<?xml version="1.0" standalone="no"?>
<!DOCTYPE svg PUBLIC "-//W3C//DTD SVG 1.1//EN" "http://www.w3.org/Graphics/SVG/1.1/DTD/svg11.dtd" >
<svg xmlns="http://www.w3.org/2000/svg">
<metadata></metadata>
<defs>
<font id="olivierregular" horiz-adv-x="1024" >
<font-face units-per-em="2048" ascent="1536" descent="-512" />
<missing-glyph horiz-adv-x="575" />
<glyph horiz-adv-x="2048" />
<glyph horiz-adv-x="2048" />
<glyph unicode="&#xd;" horiz-adv-x="2048" />
<glyph unicode=" "  horiz-adv-x="575" />
<glyph unicode="&#x09;" horiz-adv-x="575" />
<glyph unicode="&#xa0;" horiz-adv-x="575" />
<glyph unicode="!" horiz-adv-x="471" d="M317 1352q20 -29 22.5 -64t-3.5 -72.5t-14.5 -75.5t-8.5 -73q0 -51 10.5 -119.5t14.5 -139.5t-7.5 -136.5t-54.5 -110.5q-8 -6 -20 -28.5t-25.5 -41t-29 -22.5t-29.5 27q-31 51 -38 110.5t-11 116.5q-6 84 -16.5 171t-15.5 175t1 175t31 171q12 29 38.5 30t56.5 -13.5 t57.5 -38t41.5 -41.5zM182 164q37 -10 70 -42t29 -73q0 -47 -40 -55t-89 14q-29 8 -41.5 36t-9.5 56.5t23.5 49t57.5 14.5z" />
<glyph unicode="&#x22;" horiz-adv-x="724" d="M354 1278q-2 20 -6 62t-4 85t10.5 77t36.5 38q20 4 47 -10t51.5 -38t42 -50.5t21.5 -44.5q4 -35 0 -76t-14.5 -81t-26.5 -72.5t-37 -51.5q-20 -18 -41.5 0.5t-39 50t-29 65.5t-11.5 46zM147 1200q-29 68 -35 141.5t5 145.5q20 29 46.5 32t51.5 -10.5t43 -38t25 -49.5 q47 -145 0 -293q-8 -29 -26.5 -28.5t-40 15.5t-41.5 40t-28 45z" />
<glyph unicode="#" horiz-adv-x="1167" d="M680 -12q4 68 9 135t-9 133q-6 -2 -26.5 -7t-47 -14.5t-54.5 -20.5t-48 -24q-2 -14 -7 -55t-17.5 -82t-33 -70.5t-53.5 -21.5q-25 6 -39 39t-21 67.5t-8 62.5t3 24q-55 -20 -107 -35q-43 -14 -85 -24.5t-64 -10.5q-47 -2 -60.5 14.5t-9.5 37t18.5 41t24.5 26.5 q25 18 44.5 28.5t38.5 18.5t39.5 16t45.5 21q16 8 35.5 15t35 14.5t25.5 15.5t8 18q-4 16 -7 49t-5 69t-3 68.5t-1 49.5q-29 -2 -55.5 -14.5t-52 -24.5t-51 -21.5t-50.5 -3.5q-59 16 -66.5 54t40.5 69q57 33 126.5 66.5t129.5 62.5q10 2 15 26.5t6 58.5t2 70t5 60 q6 33 12.5 101.5t18.5 140.5t34.5 129t63.5 67q25 6 40.5 -25.5t22.5 -85.5t7 -122t-2 -133.5t-5 -120.5t-5 -84q27 0 54 6t50 14.5t38 16.5t15 10q-2 20 -4 54t-1 70t9.5 68.5t26.5 49.5q25 20 48.5 16t44 -22.5t32.5 -43t14 -42.5q4 -29 8.5 -55.5t12.5 -53.5 q29 -4 59.5 6.5t59.5 18.5q12 2 35.5 5t50 6t49 4t30.5 -5q2 -29 -36.5 -57.5t-88 -55t-91.5 -50t-48 -42.5q-4 -10 -5 -41t-1 -67.5t1 -71.5t1 -55q27 0 69 2t77.5 1t56 -7.5t6.5 -22.5q-20 -31 -53 -55.5t-66 -44t-55.5 -32.5t-20.5 -20q2 -41 -8 -112.5t-28.5 -146 t-44 -140t-56.5 -96.5q-35 -31 -54 -24t-29.5 32t-13.5 58.5t-1 56.5zM676 684q-35 0 -64.5 -12.5t-64.5 -20.5q-6 -2 -7 -31.5t-1 -69.5t-1 -80t-6 -64q25 6 40.5 13t28.5 14t28.5 14.5t40.5 11.5q4 2 4 28.5v62.5v72.5t2 61.5z" />
<glyph unicode="$" horiz-adv-x="1087" d="M537 -514q-31 -10 -49.5 12.5t-31 61.5t-18.5 87t-10 90t-7 70.5t-9 28.5q-63 10 -141 47t-137.5 87t-88.5 106.5t6 105.5q20 12 55 1t83.5 -32.5t105.5 -44t123 -32.5q2 51 6 130t7 154.5t3 131t-8 59.5q-53 23 -111.5 74t-102.5 119.5t-61.5 150.5t11.5 168 q20 45 53 74.5t72 47t83 24.5t89 10q-10 72 -2 129l16 114q6 41 22.5 55.5t37 13.5t40 -10.5t31.5 -11.5q18 -18 28.5 -60t15.5 -90t6 -92t1 -69q0 -8 31 -17.5t66.5 -25.5t65.5 -43t28 -68q-90 -55 -178 -34q-6 -27 -6 -65t2 -80t4 -82t-2 -70q0 -4 30.5 -19.5t77.5 -44.5 t100.5 -73t99.5 -102t74.5 -132t26.5 -164q-2 -78 -29.5 -134t-68.5 -96t-89 -64.5t-93 -39t-79 -19.5t-44 -7q-4 -8 -4 -55.5t-10.5 -103.5t-38 -106.5t-82.5 -64.5zM827 90q53 16 70.5 42t9.5 55.5t-36.5 62.5t-62.5 62.5t-70 55t-58 40.5q-2 -49 1 -94.5t5 -88.5t3 -84 t-5 -82q25 2 41 4.5t30.5 6.5t31 9t40.5 11q8 4 1 2t-15 -5l-8 -3q-1 0 22 6zM324 952q-12 -61 26.5 -96t87.5 -49q8 49 6 106.5t0 108.5q-55 25 -83.5 2t-36.5 -72z" />
<glyph unicode="%" horiz-adv-x="1069" d="M1042 330q41 -49 26 -101.5t-56 -95.5t-94.5 -73.5t-90.5 -39.5q-72 -18 -125 19t-82.5 100.5t-32.5 136t26.5 126t94 70.5t173.5 -32q2 -4 22.5 -14t47 -25.5t52 -33t39.5 -37.5zM887 176q8 16 -14.5 41t-54.5 47.5t-62.5 41t-38.5 24.5q-23 -33 -23 -85t23 -93 q39 -16 90 -10.5t80 34.5zM874 774q-51 -78 -138 -163t-182 -168t-187.5 -159.5t-153.5 -138.5q-49 -49 -72.5 -50t-27.5 23.5t6 66.5t28 79q37 84 90.5 157t110.5 146q25 33 55.5 65t63.5 62.5t63.5 63.5t53.5 69q20 37 50 78t64.5 79t74.5 65.5t81 35.5q0 -6 13.5 -37.5 t23.5 -77.5t10 -98.5t-27 -97.5zM442 1346q88 -31 128 -98.5t42 -149.5t-27.5 -165t-80.5 -143.5t-118 -85t-136 12.5q-59 27 -90 70.5t-43.5 96t-8 110t14.5 112.5q6 47 33.5 93t69.5 79t94.5 44t107.5 -9q10 8 8 18.5t6 14.5zM397 842q25 27 41.5 67.5t24.5 86.5t5 91.5 t-19.5 80t-47 52t-77.5 7.5q-45 -10 -69 -53.5t-28 -100.5t7.5 -115.5t35 -97.5t56 -49t71.5 31q16 18 15.5 18t-7 -7t-11.5 -13t3 2z" />
<glyph unicode="&#x26;" horiz-adv-x="1107" d="M500 23q-82 -35 -149.5 -40.5t-122 12t-95.5 51.5t-67 81q-57 98 -58.5 181t29.5 153.5t83 130t101 110.5q6 6 -21.5 39t-62.5 83t-67.5 113.5t-34.5 131.5q-2 57 7 117.5t35.5 113t69.5 93.5t109 61q43 14 107.5 18.5t129 -9t120 -49.5t81.5 -101q25 -63 22 -126 t-23.5 -121t-51.5 -109.5t-61.5 -91.5t-53 -65.5t-26.5 -31.5q-10 -16 8 -43t49 -55.5t65.5 -56t57.5 -46.5q8 16 26.5 52t44 79t56.5 89.5t63.5 82t66.5 56t64 12.5q59 -14 91 -47t32 -66q0 -4 -19.5 -32.5t-48 -70.5t-63.5 -90t-66.5 -92t-54 -76t-28.5 -40 q-8 -8 20.5 -32.5t73.5 -51.5t97 -49.5t89 -24.5q33 -6 41.5 -32.5t-8 -55t-53.5 -48t-92 -9.5q-51 8 -86 21.5t-62.5 28.5t-52.5 32.5t-57 36.5q-8 0 -22.5 -22.5t-42 -55.5t-73.5 -70.5t-116 -68.5zM356 567q-29 -33 -66.5 -78t-66 -92t-39 -93t14.5 -81q37 -51 93 -48 t113.5 35t103.5 82t58 93q4 12 -27.5 43t-71.5 63.5t-75 55t-37 20.5zM537 1212q-14 33 -35 50.5t-42.5 24.5t-43 6t-37.5 -3q-66 -10 -85.5 -58t-11 -107.5t33 -118t49.5 -86.5q18 10 54 41.5t68.5 73.5t50 89t-0.5 88z" />
<glyph unicode="'" horiz-adv-x="335" d="M51 1163q-18 86 3.5 174t45.5 174q27 31 58.5 29t57.5 -22.5t44.5 -53t22.5 -63.5q6 -45 -0.5 -78t-19.5 -62.5t-34.5 -58t-48.5 -65.5q-23 -31 -44 -40.5t-37.5 -3t-29 25.5t-18.5 44z" />
<glyph unicode="(" horiz-adv-x="499" d="M61 782q10 88 30 158t45.5 130t56 117.5t67.5 123.5q0 4 14.5 28.5t36 56t48 64.5t50 54.5t41 26.5t21.5 -17q0 -49 -26.5 -126t-63.5 -178.5t-74 -223.5t-55 -261q-12 -84 -7 -173t18 -175t29.5 -163t28 -136t12.5 -97t-16 -42q-10 -4 -37.5 24.5t-61.5 80.5t-68.5 129 t-60.5 170t-35 201.5t7 227.5z" />
<glyph unicode=")" horiz-adv-x="501" d="M291 535q0 80 -2 148.5t-6 132t-10.5 124.5t-16.5 129q-4 18 -20.5 61.5t-39 95.5t-46 108.5t-40 103.5t-21.5 78.5t11 35.5q35 6 79 -27.5t89 -96t87 -148.5t75 -184.5t54.5 -203t23.5 -202.5q2 -139 -21.5 -274t-63.5 -240.5t-88 -169t-91 -59.5q-14 6 -17.5 38.5 t0.5 81t12.5 110t18.5 123.5t19.5 124t13.5 111z" />
<glyph unicode="*" d="M879 477q-10 -25 -46 -18.5t-77 27t-77 43t-46 28.5q-49 33 -80 24.5t-54.5 -41t-44 -78.5t-51.5 -87q-49 -68 -76.5 -82t-39 7.5t-10 67.5t9.5 98t19 101t20 76q-12 2 -40 0t-62 -3t-67.5 0t-57 12.5t-31 34t13.5 61.5q14 31 47 45t70 20t74.5 7t64.5 5 q-6 25 -29.5 42.5t-46 36t-38 40t-7.5 51.5q10 37 28.5 44.5t39 -1t41 -25t36.5 -26.5q49 -37 93.5 -42t83.5 7.5t71.5 36t57 45t42 33.5t25.5 2q10 -12 4 -33.5t-20 -49.5t-29.5 -59.5t-21.5 -60.5q35 -6 68.5 -3t67.5 8.5t66.5 9.5t65.5 0q6 -18 -11.5 -35t-43 -29 t-50 -21.5t-32.5 -11.5q-29 -10 -60.5 -23t-60.5 -30q-12 -8 0 -26.5t35.5 -44t54.5 -54t56.5 -54.5t42 -46.5t12.5 -28.5z" />
<glyph unicode="+" horiz-adv-x="960" d="M578 152q-12 -16 -47 -9t-75 33.5t-75 69.5t-47 98q-4 20 -6 47t-2 49q-2 27 0 56q-14 -4 -63.5 -3t-104 8t-96.5 22.5t-42 41.5q2 41 26 66.5t57.5 40t72.5 18.5t72 4t55.5 -1t22.5 1q-2 4 -3 40t2 84t11 99.5t22.5 85t38 42t58.5 -30.5q43 -45 76.5 -72t58 -52.5 t37 -62t12.5 -102.5q0 -6 43 -1t147 15q31 2 50.5 -17.5t32 -47t20.5 -53t20 -33.5q-6 -27 -47 -39t-93 -19.5t-103.5 -13.5t-77.5 -20q-4 -25 -2 -66t0 -89t-12 -97t-39 -92z" />
<glyph unicode="," horiz-adv-x="604" d="M432 168q27 -20 37 -46t7 -55.5t-16.5 -61.5t-33.5 -62q-35 -53 -79 -101.5t-99 -85.5q-33 -23 -65.5 -31t-53 -0.5t-22 32t29.5 69.5q37 51 51.5 96t23.5 85t21.5 75t45.5 65q45 41 80.5 43.5t72.5 -22.5z" />
<glyph unicode="-" horiz-adv-x="980" d="M668 717q41 -10 90 -28.5t84 -35.5q27 -16 36 -38.5t2.5 -45t-24.5 -38t-45 -15.5q-115 -10 -206 -19.5t-204 -21.5q-63 -4 -107 10.5t-104 38.5q-27 18 -35 42t-3.5 46.5t15.5 40t23 23.5q14 10 79 20.5t144 16.5t151.5 8t103.5 -4z" />
<glyph unicode="." horiz-adv-x="538" d="M326 274q29 0 55.5 -16t43.5 -42t21.5 -56.5t-10.5 -57.5q-20 -37 -64 -67.5t-91.5 -35.5t-87 23.5t-52.5 108.5q-6 45 14.5 69.5t52.5 38t66 19.5t52 16z" />
<glyph unicode="/" horiz-adv-x="647" d="M461 717q-4 -47 -12.5 -114.5t-21.5 -142.5t-30.5 -151t-41 -137t-53.5 -103t-66 -51q-53 -14 -77 20t-26 94.5t10.5 139t29.5 152.5t32.5 133t21.5 84q8 39 28.5 114.5t49.5 165t62.5 180.5t68.5 163.5t70 112.5t63 28q27 -10 19 -69.5t-33 -151.5t-53.5 -213 t-40.5 -254z" />
<glyph unicode="0" horiz-adv-x="1007" d="M733 1260q0 -55 23.5 -87t55.5 -59t66.5 -59.5t59.5 -87.5q23 -55 33 -118t8 -129.5t-12.5 -132t-26.5 -122.5q-23 -78 -67 -163t-106 -153.5t-145 -110.5t-182 -36q-96 6 -176 63.5t-138 142.5t-90 184.5t-28 189.5q4 125 34 229t75 184t101 135.5t112 83.5 q61 29 107 32t90 -2t92 -6t114 22zM684 862q-6 31 -20.5 74t-37 83t-53 67.5t-67.5 29.5q-35 0 -62.5 -27.5t-49 -67.5t-37 -82t-23.5 -71q-23 -70 -38 -147.5t-20.5 -154.5t-1 -148.5t21.5 -129t47 -94t75 -42.5q66 -6 115 27.5t82.5 92t53 136t28 158.5t4 159t-16.5 137z " />
<glyph unicode="1" horiz-adv-x="800" d="M397 358q10 150 23.5 307.5t5.5 309.5q-35 -12 -65.5 -42t-58.5 -67t-52.5 -74.5t-42.5 -64.5q-20 -25 -46 -77t-54.5 -101t-59.5 -79t-61 -5q-16 12 1 63.5t53 119t80 138t81 119.5q33 47 68.5 92t70.5 89t66.5 88.5t56.5 93.5q20 35 43.5 60.5t60.5 35.5 q14 -4 38 -13.5t47.5 -20.5t41 -24.5t21.5 -27.5q4 -25 0 -51.5t-11.5 -53t-14.5 -53t-9 -51.5q-4 -55 -1 -103t13 -106q4 -123 4 -248t4 -247q2 -23 7.5 -81.5t-1 -120t-32 -106.5t-84.5 -37q-59 4 -98 31t-60.5 72t-29 104t-5.5 131z" />
<glyph unicode="2" horiz-adv-x="980" d="M680 -12q-70 4 -119 9t-87 12t-70.5 17.5t-69.5 22.5q-33 14 -61.5 29.5t-46 35t-19.5 45t22 58.5q53 74 83 162t59 168q23 74 54.5 154.5t55 163.5t33.5 164t-10 155q-16 82 -60.5 98t-93.5 -13.5t-92 -91t-55 -135.5q-4 -12 -6 -29.5t-1 -36t9 -33.5t24 -25 q0 -23 -13 -41.5t-31.5 -30.5t-38 -18.5t-31.5 -6.5q-31 -4 -49.5 10.5t-27.5 41t-9 59.5t6 65q16 55 55 129t96.5 140.5t131 111.5t159.5 45q43 0 88 -14t84 -38.5t64.5 -59.5t29.5 -74q23 -109 7.5 -219.5t-52 -216t-88 -199.5t-100.5 -170t-87 -129t-52 -76 q33 -12 103.5 -18t147 -10t143 -7.5t93.5 -9.5q12 0 30.5 -3t36 -10t29 -19.5t11.5 -28.5q0 -4 -5.5 -25.5t-33 -47t-85 -45t-161.5 -15.5z" />
<glyph unicode="3" horiz-adv-x="950" d="M481 242q68 20 109 71.5t53 113.5t-6.5 125.5t-69.5 111.5q-41 39 -91 47t-101 13t-94 19.5t-68 63.5q-20 31 -1 62.5t56 64.5t82 68.5t79 74.5t44 81t-20 91q-8 18 -33 20.5t-55.5 -5t-62.5 -24.5t-52 -40q-10 -10 -26.5 -31.5t-35 -39t-40 -22.5t-42.5 17 q-29 33 -17.5 75t45.5 83t79 77t86 54q90 35 165 32t128 -35t79.5 -89t20.5 -129q-6 -55 -32.5 -110.5t-61.5 -104.5t-74 -89t-71 -61q59 2 125.5 -13t129 -46t116 -78t85 -108.5t37.5 -138t-24 -164.5q-18 -53 -60.5 -99.5t-98.5 -82.5t-123 -60.5t-130 -36.5 q-78 -12 -146.5 5.5t-125 54t-100.5 86t-70.5 100.5t-34.5 101t6 85q14 43 27.5 38t33 -36t48 -76t73.5 -80.5t108.5 -50t151.5 14.5z" />
<glyph unicode="4" horiz-adv-x="880" d="M569 629q-2 2 1 -43t8.5 -115t8.5 -151.5t2 -153.5t-10.5 -123t-29.5 -55q-25 -4 -55.5 3t-58 21.5t-49 32.5t-30.5 39q-20 51 -29.5 107.5t-12.5 111.5t-2 110.5t1 106.5q0 41 -1 60.5t-10 28.5t-28.5 13.5t-56.5 16.5q-55 8 -108.5 31.5t-94.5 64.5q-37 37 -23.5 88 t47.5 105.5t76 102.5t62 77q35 51 84 112.5t99.5 111.5t97.5 79t80 16q8 -20 0.5 -34.5t-21.5 -29.5t-29.5 -31.5t-23.5 -41.5q20 -33 37.5 -104.5t31 -148t20.5 -142.5t7 -86q0 -2 24.5 0t61.5 4t79 4t79 0t61.5 -11t24.5 -28q0 -33 -40 -60.5t-92 -47t-106.5 -30.5 t-81.5 -11zM154 831q25 -8 52 -20t51 -16t40 2t16 34q0 55 -5 110.5t-5 102.5q-41 -55 -74.5 -102.5t-74.5 -110.5z" />
<glyph unicode="5" horiz-adv-x="1103" d="M524 195q70 29 113 74.5t67.5 95t35 93.5t14.5 68q4 59 -32 86t-88 30t-108.5 -13.5t-93.5 -42.5q-82 -78 -149.5 -92.5t-124.5 43.5q-37 33 -59.5 77.5t-33 94t-11.5 99.5t3 95q8 59 22.5 128t22.5 128q-23 12 -43 27.5t-30.5 34t-5 39t33.5 40.5q45 33 93.5 39.5 t95.5 -2t94 -20.5t92 -17q55 -8 140 2.5t167 13.5t143.5 -13.5t69.5 -77.5q2 -23 -34.5 -39.5t-96 -27.5t-133.5 -19.5t-144.5 -12.5t-130 -7t-89.5 -5q8 -109 5 -217.5t5 -224.5q25 39 75 83t113.5 78.5t134 55t136 10.5t122 -58t89.5 -147q29 -90 32.5 -161.5t-9.5 -130 t-42 -105.5t-65 -90q-49 -61 -116 -105.5t-142.5 -70t-156.5 -33.5t-159 0q-39 4 -88 16.5t-93 32t-73 46t-24 61.5q4 33 49 32.5t111.5 -7.5t145 -10t150.5 26z" />
<glyph unicode="6" horiz-adv-x="1157" d="M453 61q-66 37 -92.5 59.5t-34.5 8.5q-14 -51 -15.5 -92t-1.5 -69.5t-5 -44t-25 -15.5q-10 -4 -26.5 19.5t-29 66.5t-17.5 103.5t5 127.5q0 10 -19.5 35t-47 78t-59.5 143t-56 236q-8 39 -13.5 114.5t4 167t42 189.5t100.5 184q74 96 141.5 124t110.5 -7 q0 -18 -11.5 -32.5t-30 -30t-41 -35t-42.5 -48.5q-29 -86 -48.5 -178t-19.5 -188q2 -129 15.5 -206t28 -117t26.5 -51t16 -11q6 18 30.5 45t55.5 54.5t62.5 53t54.5 39.5q160 80 295 38t246 -173q33 -41 47 -115.5t-2.5 -159.5t-70.5 -167t-159 -135q-123 -66 -221 -60 t-192 49zM432 399q-2 -6 11.5 -25.5t40 -44t62.5 -51t78 -46t90 -25.5t95 8q39 10 60.5 35.5t29.5 56.5t6 63.5t-10 57.5q-23 72 -80 106.5t-127 30.5t-139.5 -45t-116.5 -121z" />
<glyph unicode="7" horiz-adv-x="1200" d="M1053 639q-68 -12 -116 -12t-52 -17q-6 -29 -19.5 -88t-29 -124.5t-32 -124t-28.5 -83.5q-16 -39 -31.5 -76.5t-32 -68.5t-36 -48t-43.5 -13q-29 4 -41 48t-13 110.5t5 145.5t14 150.5t16.5 128t12.5 78.5q-31 8 -82 13.5t-108.5 8.5t-118 6t-109.5 7t-82 12t-37 23 q-4 14 28 35.5t81 40t106 31t101 9.5q18 -4 58 -4t79 2t68.5 5.5t29.5 7.5q25 119 30 229.5t19 210.5q-80 -2 -164 3t-168 8t-166.5 -2t-164.5 -27q-27 45 -10.5 77.5t62.5 55t114.5 36t145.5 19.5t155.5 6t146.5 -5t116 -12t64 -16q16 -6 44 -27.5t55.5 -51t48 -61.5 t22.5 -58q-6 -96 -20.5 -212t-26.5 -210q0 -4 14.5 -7t35 -6.5t44 -4.5t43.5 -1q35 -2 65 -11t52.5 -22.5t36.5 -29.5t16 -31q0 -18 -23.5 -27.5t-55 -13.5t-65.5 -7t-54 -5z" />
<glyph unicode="8" horiz-adv-x="851" d="M774 1307q16 -66 -15.5 -155t-79.5 -175t-95 -157.5t-60 -104.5q0 -4 39 -43t86 -99.5t89 -134t47.5 -148.5t-42 -144.5t-176.5 -120.5q-43 -16 -104.5 -21.5t-120.5 1.5t-108.5 28.5t-63.5 58.5q-18 35 -14 92.5t20.5 124t41 136t49 130t44 105.5t25.5 63 q0 2 -23.5 15.5t-56.5 37t-71 58.5t-65.5 79t-40.5 98t3 120q10 51 40 96t61.5 81t56 60.5t24.5 34.5t-17.5 13.5t-41 2.5t-48 -5t-36.5 -11q16 74 68.5 107t122 35t148.5 -22.5t145.5 -61.5t113.5 -84t55 -90zM461 590q-20 -47 -47 -109.5t-50.5 -121t-36 -103.5t-1.5 -57 q12 -14 54 -6t89 28.5t88 50t51 60.5q8 27 -2 60.5t-33.5 68.5t-53 68.5t-58.5 60.5zM481 1155q8 33 16.5 63.5t9.5 55t-10.5 42t-37.5 23.5q-27 8 -73 -11t-91 -53t-80 -76t-37 -79q0 -45 16.5 -84t44 -71.5t64.5 -58t76 -44.5q12 39 26.5 74t29 69.5t25.5 71.5t21 78 q6 20 7 20.5t-1 -9t-6 -23t-6 -20.5t-1 -2t7 34z" />
<glyph unicode="9" horiz-adv-x="1107" d="M250 80q-47 18 -92 47t-76 61.5t-43 64.5t6 54q18 25 61.5 16.5t106.5 -26.5t145 -38.5t179 -20.5q92 0 155.5 47t98 118.5t40 155.5t-19.5 158q-16 37 -33.5 74.5t-58.5 52.5q-10 -10 -20.5 -36t-26 -56.5t-40 -60t-62.5 -45t-92 -10.5t-130 42q-98 43 -167.5 115.5 t-91 164t11 194.5t139.5 210q45 49 114.5 59.5t143 -9t140.5 -68t103 -117.5q18 -37 12.5 -78t-20 -76t-32 -59.5t-21.5 -30.5q8 -4 47 -17.5t87 -35t94 -53t69 -72.5q20 -37 36.5 -82t27 -92t13.5 -91t1 -77q-16 -104 -49 -179t-99 -134q-59 -70 -132 -102t-156.5 -36 t-177 15.5t-191.5 52.5zM555 786q29 20 48.5 49t24.5 57t-7.5 52.5t-45.5 38.5q-27 12 -36 33.5t-12 47.5t-8 53.5t-25.5 53t-63.5 45t-121 29.5q-35 -35 -45 -91t0 -119.5t36 -123t64.5 -98.5t88 -50.5t102.5 23.5z" />
<glyph unicode=":" horiz-adv-x="675" d="M524 905q-12 -37 -30.5 -69.5t-46 -52t-61.5 -21.5t-77 20q-27 14 -55.5 29.5t-52 36t-39 48.5t-15.5 71q0 29 31 46t76 23t96 2t93 -20.5t66.5 -44t14.5 -68.5zM485 80q-35 -39 -75.5 -62.5t-82.5 -26.5t-83 18.5t-74 70.5q-18 31 -22.5 66.5t7 67.5t38 56.5t67.5 32.5 q43 8 66.5 1t33 -23.5t4 -42t-19.5 -56.5q4 -8 30.5 -10t55.5 -8t48 -24.5t7 -59.5z" />
<glyph unicode=";" horiz-adv-x="647" d="M221 895q53 92 108.5 107.5t121.5 -37.5q25 -18 40 -61.5t8 -89.5t-43 -85t-114 -47q-35 -4 -67.5 13.5t-53 47t-24 69.5t23.5 83zM432 168q27 -20 37 -46t7 -55.5t-16.5 -61.5t-33.5 -62q-35 -53 -79 -101.5t-99 -85.5q-33 -23 -65.5 -31t-53 -0.5t-22 32t29.5 69.5 q37 51 51.5 96t23.5 85t21.5 75t45.5 65q45 41 80.5 43.5t72.5 -22.5z" />
<glyph unicode="&#x3c;" horiz-adv-x="657" d="M430 217q-82 33 -159.5 90.5t-126 126t-51.5 141t65 134.5q35 31 80 74.5t96 79.5t104.5 53.5t106.5 -3.5q51 -23 56 -54.5t-18.5 -69t-67.5 -78.5t-90 -77t-85 -66.5t-55 -47.5q23 -14 62.5 -35.5t84.5 -48t90 -57.5t78 -64l22.5 -31.5t19.5 -32.5t8 -29.5t-9 -22.5 q-31 -23 -91.5 -14t-119.5 32z" />
<glyph unicode="=" d="M158 475q45 33 120.5 49.5t163.5 19.5t177.5 -6.5t162 -25.5t118.5 -37.5t46 -44.5q0 -12 -37 -25.5t-96 -28t-137 -25.5t-161 -17t-164 -6t-148 12q-16 8 -31.5 27.5t-25 41t-7 40t18.5 26.5zM113 676q0 53 45 84t112 31q55 10 123 11t136.5 -4t132 -15.5t114.5 -21.5 t84 -21.5t39 -16.5q18 -18 6 -47t-54 -52.5t-114.5 -30.5t-173.5 17h-313q-27 0 -54.5 1t-49 7.5t-31.5 19.5t-2 38z" />
<glyph unicode="&#x3e;" horiz-adv-x="724" d="M236 289q25 43 68.5 97t87.5 103.5t79 85t41 43.5q-14 8 -51 27t-82 43.5t-87 53t-65.5 59t-17.5 60.5t57 57q45 25 98.5 8t104.5 -50.5t95 -73.5t71 -67q66 -66 75 -125t-18.5 -113.5t-80 -100.5t-109 -85t-108.5 -69.5t-77 -51.5q-25 -18 -46 -14t-34.5 20.5t-15 41 t14.5 51.5z" />
<glyph unicode="?" horiz-adv-x="843" d="M365 821q2 14 23.5 32.5t53 43.5t68.5 58.5t70 80.5q25 37 43 67t29.5 61.5t14.5 67.5t-5 83q-4 33 -30 38t-65 -9.5t-84 -43t-87 -61.5t-74.5 -64.5t-45.5 -54.5q-12 -18 -24 -56t-29.5 -69.5t-41 -44t-56.5 18.5q-53 47 -59.5 97t22.5 116q29 59 72 117.5t96 107.5 t116.5 83t131.5 46q74 12 133 -13.5t99 -74.5t57.5 -114.5t7.5 -131.5q-4 -35 -38 -95t-79 -123.5t-90 -117t-72 -69.5q-20 -14 -21 -35t7 -44.5t21.5 -48t19.5 -48.5q4 -25 13 -64t8 -77t-21.5 -65.5t-75.5 -27.5q-37 2 -60.5 27.5t-37 65.5t-18.5 89t-5 96.5t4.5 89 t8.5 66.5zM455 158q31 8 60.5 -9.5t44.5 -44t9 -55.5t-47 -43q-41 -12 -71.5 8.5t-45 49t-4 58.5t53.5 36z" />
<glyph unicode="@" horiz-adv-x="1669" />
<glyph unicode="A" horiz-adv-x="1265" d="M1100 -281q-25 -4 -39 9.5t-22.5 35t-10.5 47t-2 48.5q0 20 -5 82.5t-17.5 146.5t-35 180.5t-59.5 182.5q-8 16 -79.5 5.5t-182.5 -10.5q-35 2 -68.5 -1t-60 -7t-44 -8t-17.5 -6q-2 -27 -5 -69t-10.5 -89t-20.5 -94t-36 -84t-55.5 -59.5t-79.5 -18.5q-31 2 -44 61.5 t-18.5 135.5t-3.5 144.5t2 88.5q-113 14 -152.5 39t-27.5 50.5t67.5 48t135.5 36.5q8 74 18.5 184.5t32 225.5t59 216t103.5 157q35 27 90 18.5t115.5 -43.5t118 -90t98.5 -123q25 -45 52.5 -116.5t53 -146.5t48 -138.5t36.5 -91.5q4 -8 33 -6t62.5 -0.5t62.5 -14.5t31 -49 q2 -31 -23.5 -54.5t-56.5 -39t-57.5 -23.5t-26.5 -10q25 -129 47 -259t32.5 -235.5t2.5 -175.5t-41 -80zM535 1227q-20 -14 -33 -53t-19 -93.5t-9 -119t-3 -127v-116.5v-91q8 -2 41 -2t75 1t89 4t86 7t63.5 8t24.5 8q-4 29 -22.5 86.5t-46 126t-61.5 139t-68 125t-65.5 83 t-51.5 14.5z" />
<glyph unicode="B" horiz-adv-x="1005" d="M590 801q90 4 158.5 -28t114.5 -88t69.5 -129t26 -146.5t-17 -142t-58.5 -117.5q-57 -66 -135 -106t-159 -45t-157 28.5t-127 113.5q-10 14 -11 5t0 -29.5t-1 -47t-11.5 -47t-33 -29.5t-64.5 5q-59 16 -88.5 58t-44 91.5t-18.5 96.5t-8 73q-2 92 2 172t13 157t26.5 156 t42.5 167q18 68 41.5 128t56.5 114.5t77 103.5t105 92q66 43 142.5 41t141 -38t101.5 -99.5t23 -143.5q-12 -59 -35 -111t-50.5 -98.5t-59 -85t-62.5 -71.5zM623 1245q-31 14 -65 -11.5t-67.5 -73.5t-63.5 -108.5t-48.5 -112.5t-23.5 -87t10 -33q63 6 114 39t87 79t57.5 97 t28.5 96.5t0.5 77t-29.5 37.5zM758 313q27 70 22.5 139.5t-29 126t-65.5 93.5t-84 41q-51 8 -94 1t-77 -21.5t-56.5 -33t-30.5 -34.5q-16 -35 -25.5 -81t-5.5 -100q25 20 59 32.5t64.5 19t55 3.5t32.5 -14q14 -12 -1 -20t-42.5 -23.5t-58.5 -42t-49 -77.5q-12 -41 -3 -75 t54 -57q41 -20 93 -19t100.5 18.5t87.5 49t53 74.5z" />
<glyph unicode="C" horiz-adv-x="1077" d="M1049 487q6 -12 0.5 -53t-14.5 -87t-19 -86t-17 -48q-41 -53 -92 -104.5t-116 -77.5q-109 -43 -214.5 -36t-196.5 54t-165 128t-119 183q-43 96 -56 221.5t4 251t65.5 236.5t132.5 178q88 70 178 91.5t174 12t155.5 -42t120.5 -69.5q14 -10 50 -36.5t60 -56.5t18.5 -52.5 t-70.5 -24.5q-45 -2 -86 6t-82 19.5t-82 20.5t-86 9q-236 0 -291 -321q-8 -49 -15 -113.5t-8.5 -135.5t7 -138.5t30 -122.5t59.5 -90t99 -39q55 -4 107.5 13.5t100.5 47t92 64.5t83 69q6 6 31.5 38t58.5 60.5t61.5 43t41.5 -12.5q6 -12 6 -13t-1 2t-2 5z" />
<glyph unicode="D" horiz-adv-x="1150" d="M864 770q-2 55 -18.5 124t-46 134.5t-71.5 117.5t-95 75q-43 18 -89 30.5t-85 7t-64.5 -33t-23.5 -90.5q2 -104 6 -210t6 -212.5t-1 -213t-15 -212.5q-6 -53 -15.5 -108.5t-24 -102.5t-36 -78t-51.5 -35q-41 -2 -67 24.5t-42 70.5t-24.5 97.5t-11.5 105.5t-3 97t-2 70 q-4 147 -2 291.5t6 290.5q0 25 -5 64.5t-9 83.5t-4 87t10 77t34.5 54.5t67.5 16.5q39 -4 79 2t81 13t84 11t88 -2q49 -6 105.5 -29.5t112 -54t104.5 -67.5t82 -70q92 -100 130 -223t33.5 -246t-43 -234.5t-100.5 -187.5q-78 -96 -185.5 -155.5t-223.5 -69.5q-20 -4 -45 -4 t-46.5 3t-36 12t-14.5 28q0 18 37 30.5t90 30t114.5 46t110.5 79.5q72 78 100.5 199t18.5 266z" />
<glyph unicode="E" horiz-adv-x="960" d="M899 289q20 -14 11 -48t-38.5 -73t-76.5 -75t-105 -56q-49 -18 -102 -31.5t-109.5 -15.5t-118 10t-124.5 47q-133 70 -176.5 166t-26 198.5t79 198t137.5 160.5q-111 49 -154 124t-39 158t46 165.5t104.5 149.5t135.5 106.5t138 35.5q61 -4 126 -29.5t114 -58t71.5 -66.5 t2.5 -55q-12 -12 -40 -0.5t-71 27.5t-101.5 30.5t-129.5 10.5q-111 -6 -157 -76.5t-54 -181.5q-4 -68 15 -115t45 -75.5t49.5 -40t29.5 -7.5q74 61 157 100.5t156.5 48.5t126.5 -14.5t66 -88.5q-2 -35 -33 -64t-78 -51.5t-102.5 -41t-102.5 -30.5t-79.5 -19t-34.5 -10 q-53 -39 -105.5 -88t-77.5 -125q-23 -70 -1 -125t74 -88.5t128 -45t164 7.5q31 4 67.5 18t73.5 25.5t69 16.5t50 -9zM737 909q-47 29 -94 2.5t-104 -80.5q27 2 65.5 11.5t72.5 22t53 25.5t7 19z" />
<glyph unicode="F" horiz-adv-x="872" d="M584 -6q-6 -37 -40 -40t-76 14.5t-82 51t-58 72.5q-16 33 -29.5 81t-23 100.5t-16.5 102.5t-9 87q-10 98 -11 150.5t-24 52.5q-25 0 -65.5 11t-70.5 28.5t-36 36t35 34.5q35 6 71.5 12.5t73.5 14.5q10 59 20.5 131t22.5 131q25 98 73 168t112.5 110.5t141.5 54t161 1.5 q29 -4 81 -17.5t106 -34t99 -46t60 -54.5q8 -29 -11.5 -41t-53.5 -13t-78 5t-83.5 14.5t-70.5 16.5t-39 10q-86 25 -141.5 10.5t-88 -53.5t-48 -93t-20.5 -107.5t-4 -99.5t-1 -69q23 2 81 -1t117.5 -14t103.5 -30.5t40 -48.5q0 -10 -45 -20.5t-102.5 -19.5t-112 -16 t-74.5 -9q-6 -31 0 -112t21.5 -180.5t39 -202.5t54.5 -179z" />
<glyph unicode="G" horiz-adv-x="1185" d="M877 -381q-55 -43 -124 -62.5t-133.5 -13.5t-111.5 38t-59 91q-10 61 0 117.5t35.5 108t66.5 99.5t90 95q57 53 116.5 93t112.5 75v97.5t-1 135t-6 148.5t-13 139q-43 -121 -89 -236.5t-104.5 -211.5t-134.5 -168t-178 -105q-78 -25 -133 -4t-91 72t-54.5 124 t-22.5 152.5t4 158.5t27 140q31 106 85 222t125.5 216.5t156.5 174.5t175 96q63 14 115.5 0t92.5 -45t68 -71t42 -76.5t14 -63.5t-14 -29q-29 -6 -63.5 35t-96.5 99q-23 18 -56.5 15t-72.5 -23.5t-78 -57.5t-69 -86q-59 -88 -102.5 -173t-69 -172t-35.5 -182.5t-6 -201.5 q0 -96 25.5 -129t64.5 -19.5t87 62.5t94 117.5t85 147.5t59 149q16 55 46 116.5t70 103.5t91 53t113 -32q20 -14 33.5 -59t21.5 -105.5t12.5 -129t5.5 -132t0 -115t-3 -75.5q25 14 55.5 35.5t61 35t58 15.5t48.5 -21q18 -18 -1.5 -44.5t-57 -57.5t-85 -64.5t-84.5 -64.5 q-4 -4 -7 -65.5t-20.5 -147.5t-58 -178.5t-122.5 -155.5zM874 76q-51 -31 -96 -70q-39 -35 -76.5 -82t-56.5 -106q-12 -63 0 -93t40 -33t63.5 17.5t68.5 57.5q37 29 50.5 80t15.5 102q1 59 -9 127z" />
<glyph unicode="H" horiz-adv-x="1175" d="M813 639q-39 -4 -99.5 -3t-117.5 0t-98 -5t-43 -15q-6 -35 -9.5 -86t-5.5 -107t-1 -108.5t1 -89.5q2 -16 3 -47t2 -63.5t0 -61t-5 -41.5q-12 -31 -34.5 -20.5t-47 35t-43 52t-20.5 34.5q-35 70 -63.5 146.5t-34.5 152.5q-4 45 -5.5 95t-5.5 91q-18 -2 -44.5 -5t-52.5 -1 t-46 13t-29 40q2 33 13.5 52.5t33 29.5t52 16.5t71.5 14.5q0 29 -2 83t-3 119.5t-1 137t5 135t15.5 111t30.5 63.5q51 45 89 22.5t64 -85t43 -149.5t26.5 -171t14.5 -151.5t7 -88.5q47 8 103.5 10.5t104.5 3.5t81 5t33 16q0 39 -4.5 113t-8.5 151.5t-4 144t8 91.5 q16 51 44 57t54.5 -12t47 -52t22.5 -61q2 -47 9.5 -99t13.5 -106.5t9 -107.5t1 -98q29 -4 60.5 0t60.5 8t50.5 2t29.5 -16q8 -25 -14.5 -47.5t-57.5 -42t-70.5 -37t-52.5 -31.5q-2 -4 -1 -23.5t2 -47t3 -60.5t2 -64q0 -20 1 -69.5t0 -109.5t-4 -122.5t-11 -111t-21.5 -72 t-33.5 -6.5q-43 35 -62.5 115.5t-29 177t-13.5 192.5t-12 164z" />
<glyph unicode="I" horiz-adv-x="626" d="M453 784q4 -49 -2.5 -117.5t-18.5 -143t-30.5 -147.5t-40 -128t-44 -88t-43.5 -27q-27 6 -43 52t-27 111.5t-16.5 143.5t-8.5 148.5t-5 127t-4 79.5q-6 45 -10 108.5t-5 132t0 137t4 123t7 87t10 30.5q96 -6 150.5 -74.5t81 -164t34 -201t11.5 -189.5z" />
<glyph unicode="J" horiz-adv-x="927" d="M152 266q23 -25 79 -42t121.5 -11t126 43t90.5 121q18 66 25.5 149.5t7.5 172.5t-7 177.5t-16.5 164t-18.5 132t-15 80.5q-10 41 -26.5 70t-29 50.5t-13.5 41t22 41.5q41 41 78.5 32t70.5 -49t59.5 -100.5t47 -122t33 -113.5t16.5 -75q14 -78 32.5 -169t28.5 -187.5 t7 -191.5t-29.5 -179t-84 -153.5t-153.5 -112.5q-147 -70 -279 -49.5t-249 118.5q-49 43 -59.5 117t4 145.5t43 125t57.5 53.5q20 0 26.5 -16.5t5.5 -42t-6.5 -57.5t-8.5 -63.5t-0.5 -58.5t14.5 -41z" />
<glyph unicode="K" horiz-adv-x="1067" d="M205 -41q-29 2 -48.5 47t-30.5 109.5t-17.5 139.5t-9.5 140.5t-5 110.5t-6 51q-29 43 -29 85t12.5 80t28 68.5t17.5 49.5q6 45 9 114.5t8 143t13.5 142.5t22.5 114q16 55 50 75.5t69 15.5t60.5 -32t27.5 -65q2 -47 4 -110.5t3 -125t2 -111t1 -65.5q33 23 61.5 52.5 t63.5 68.5t83 85t120 99q55 41 119.5 76t130.5 61q31 10 55 7t35.5 -17t7.5 -37.5t-31 -50.5q-41 -39 -103.5 -96.5t-132 -121t-139 -130t-125 -125.5t-88 -106.5t-30.5 -71.5q6 -53 32.5 -95t59.5 -96q23 -35 55.5 -65.5t71.5 -48t83 -17.5t89 29q63 39 117.5 34t90.5 -34 t45 -68t-16 -65q-74 -78 -143.5 -106.5t-134 -20.5t-123.5 45t-112.5 90t-98.5 115.5t-82 122.5q-4 6 -6 -28t-5 -89.5t-11.5 -121t-22.5 -122.5t-37.5 -94t-60.5 -35z" />
<glyph unicode="L" horiz-adv-x="833" d="M-35 -29q-27 68 -7.5 127.5t67 98.5t115 49t139.5 -21q4 -2 10 20.5t10 59.5t4 83t-6 91q-27 -14 -64.5 -28.5t-73.5 -20.5t-63.5 -3t-29.5 24q-4 18 16 36.5t53 41t74 53t78 75.5q2 2 3 54.5t4 132.5t8 175t16.5 181t29 151.5t45.5 88.5q51 45 119 35.5t126 -57.5 t97 -128t37 -176q-4 -129 -43 -223t-84 -158.5t-82 -99.5t-37 -45q-4 -57 -4 -117.5t-1 -117t-5 -103.5t-16 -78q72 -43 131 -87t125.5 -74.5t150.5 -42t207 8.5q31 6 33 -16t-29 -53t-94 -58.5t-164 -33.5q-98 -6 -182 19.5t-148 60.5q-74 39 -137 92q-12 -18 -33 -41 q-16 -18 -40.5 -40t-59.5 -38q-35 -18 -76 -23.5t-81 5t-75.5 39t-62.5 81.5zM74 35q8 -29 26.5 -45.5t43 -16.5t51 22.5t55.5 72.5q-23 16 -57.5 28.5t-65.5 13.5t-49 -15.5t-4 -59.5zM510 844q66 68 98 141q29 63 27 143t-74 166q-6 6 -11 -10t-10 -47t-9.5 -72t-6.5 -84 q-8 -102 -14 -237z" />
<glyph unicode="M" horiz-adv-x="1748" d="M1784 -164q-201 16 -315.5 167t-157.5 398q-16 88 -21.5 180.5t-7.5 183.5t-2 180t-2 173q-61 -8 -106.5 -85t-77 -188.5t-52 -241.5t-36 -245.5t-25.5 -200.5t-20 -104q-12 -29 -41 -45t-63 -19t-67.5 6t-54.5 32q-49 53 -75.5 142t-30.5 179q-8 217 -32 443.5 t-71 435.5q-14 -10 -29.5 -21.5t-30.5 -33t-32.5 -56.5t-36.5 -90q-14 -43 -26.5 -119t-21.5 -168t-16 -192.5t-12.5 -191.5t-8.5 -163.5t-5 -111.5q-2 -31 -31.5 -50.5t-68.5 -21.5t-78 14.5t-57 55.5q-29 57 -37 127.5t-5 144.5t14 145.5t22 135.5q8 55 24 142t42 182.5 t62.5 187.5t88 158.5t120 95t154.5 -1.5q55 -20 94 -90t63.5 -168.5t38 -214t19.5 -226t7 -205t3 -149.5q16 43 38 118t49.5 166t61.5 188t75 186.5t88 161t100 108.5t113.5 31.5t128.5 -68.5q45 -43 74.5 -138.5t51 -216t38 -253.5t34 -250t38 -204t52.5 -118 q49 -49 94.5 -62.5t80 -15.5t60.5 -2t36 -22q8 -18 -5.5 -40t-42 -39t-71.5 -28.5t-92 -7.5z" />
<glyph unicode="N" horiz-adv-x="1120" d="M322 266q2 -31 -2.5 -86t-21.5 -99t-52 -57.5t-94 39.5q-37 29 -56.5 92.5t-27 150.5t-4 192.5t14.5 216t27.5 222.5t32.5 212q6 37 20.5 83t33 87t42 70.5t50 33.5t55.5 -22.5t59 -95.5q37 -88 55.5 -184.5t31 -194t24.5 -192.5t35.5 -181t66.5 -160t115 -129 q31 18 48.5 60.5t26.5 97.5t11 116.5t0 119t-5 105.5t-3 75q-2 57 1 126.5t9 140.5t14.5 135.5t18.5 110.5t18 67.5t17 4.5q4 -8 8 -50t10 -104.5t14.5 -139t18.5 -155.5t22.5 -152.5t26.5 -129.5q27 -59 39 -145t8 -176t-22.5 -172t-51.5 -131q-37 -57 -79.5 -68.5t-88 9 t-91.5 66.5t-86 104.5t-73.5 122t-56.5 116.5q-18 45 -37.5 101t-38 115.5t-35 120t-30.5 117.5q-35 131 -66 271q-4 -20 -8 -56q-4 -29 -5 -79t1 -121q2 -88 10.5 -182.5t17.5 -178.5t18.5 -152.5t13.5 -107.5z" />
<glyph unicode="O" horiz-adv-x="1087" d="M813 145q-53 -68 -124 -108.5t-147.5 -50t-153.5 14.5t-142 83q-123 106 -175.5 254.5t-53.5 309.5t40 317.5t105 281.5q27 55 89 105.5t139 77t160 22.5t152 -55q55 -41 82 -91.5t66 -109.5q100 -158 123.5 -320.5t3 -307t-69.5 -256.5t-94 -167zM301 1069 q-18 -39 -39.5 -130t-35 -202.5t-12.5 -226.5t26.5 -203t82 -131t152.5 -10q72 25 117 81t72.5 126.5t41 149.5t21.5 147q10 100 1 202.5t-34.5 190.5t-65.5 154.5t-89 99.5q-47 18 -84 -8.5t-66 -70.5t-51.5 -93t-36.5 -76z" />
<glyph unicode="P" horiz-adv-x="813" d="M383 180q8 -37 14 -74.5t-4 -76.5q-16 -25 -47 -31t-64.5 0t-65.5 19.5t-50 25.5q-35 100 -49.5 208.5t-16.5 217.5t4.5 215.5t16.5 200.5q4 70 25.5 147.5t56.5 150t84 134t111.5 95.5t138 36t161.5 -43t113 -114.5t11.5 -150.5t-66.5 -164t-118 -152.5t-141.5 -117 t-140.5 -55.5q-4 -117 0 -235.5t27 -235.5zM672 1311q-80 2 -136.5 -41t-93 -104.5t-53 -130t-14.5 -113.5q4 2 33.5 18t70.5 42t85 61.5t76 77.5t44.5 90.5t-12.5 99.5z" />
<glyph unicode="Q" horiz-adv-x="1169" d="M408 86q-96 47 -168 135t-118 193.5t-66.5 216t-12.5 205.5q6 74 21.5 166t48 178t88 151.5t141.5 87.5q70 16 150.5 19.5t158.5 -12t145.5 -49.5t110.5 -91q39 -49 68 -110.5t48 -127t28.5 -131t7.5 -126.5q-4 -74 -13.5 -140.5t-18.5 -119t-17.5 -85t-8.5 -38.5 q-2 -4 22 -35t56.5 -77t68.5 -99.5t58 -100.5q20 -43 -6 -64.5t-77.5 -14t-116 43t-121.5 107.5q-4 0 -41 -32t-100.5 -59.5t-148.5 -33.5t-187 43zM270 911q-80 -299 -24.5 -476t282.5 -214q74 -12 98.5 10.5t17.5 62.5t-36.5 90t-62.5 96t-59.5 79t-28.5 37q-6 31 14.5 41 t53 6t74.5 -18.5t81 -33t69.5 -36.5t43.5 -31q12 25 30.5 87.5t27.5 144.5t6 173t-33.5 173t-94 143.5t-170.5 85.5q-39 8 -73.5 -12.5t-64.5 -59t-54.5 -89t-44 -100.5t-33 -93t-19.5 -66z" />
<glyph unicode="R" horiz-adv-x="1097" d="M971 4q-70 31 -122 91.5t-95 119.5q-47 68 -96.5 153t-105.5 160.5t-120.5 128t-142.5 52.5q-14 0 -21.5 -34t-11.5 -81t-6 -100.5t-2 -92.5q-2 -84 7 -158.5t12 -131t-6 -88t-48 -29.5q-33 2 -63.5 20.5t-56 48t-44 68.5t-24.5 82q-16 123 -15.5 278.5t29.5 310t89 295 t165 232.5q59 53 133 80t144.5 21.5t131 -42t95.5 -112.5q39 -86 17.5 -162t-78 -136t-132.5 -100t-143 -53q51 -18 112.5 -60t121 -92t113.5 -104.5t95 -99.5q45 -51 73 -84t46 -60.5t31.5 -55t27.5 -70.5q27 -72 18 -114t-33 -62.5t-52.5 -23.5t-42.5 5zM623 1268 q-61 -10 -108.5 -48t-83.5 -92.5t-63.5 -119t-52.5 -127.5q33 -12 80 2t94.5 43.5t90.5 71.5t65.5 89.5t20.5 94.5t-43 86z" />
<glyph unicode="S" horiz-adv-x="1103" d="M815 1194q-25 -4 -65.5 -9t-89 -24.5t-100.5 -58.5t-101 -109q-68 -96 -36 -155.5t169 -118.5q70 -29 146.5 -50.5t143 -59.5t116 -104.5t65.5 -182.5q12 -90 -32 -154t-117.5 -106t-162.5 -61t-165 -19q-156 -2 -264.5 39.5t-172 95t-80 103.5t12.5 67q18 10 50 -0.5 t78 -27.5t104.5 -33.5t131 -18.5t159.5 16.5t190 73.5q37 20 44 58t-17.5 80t-83 79t-152.5 57q-82 18 -161 39t-142.5 58t-104.5 94t-49 147q-4 61 37 141t107.5 158t152.5 144.5t173 99.5t165 20.5t131 -90.5q35 -53 77 -86.5t73.5 -56t45 -41t-7.5 -41.5 q-23 -23 -49 -17.5t-60 20t-74 27.5t-85 7z" />
<glyph unicode="T" horiz-adv-x="843" d="M598 1233q8 -96 14 -220t7.5 -255t-5 -257t-20.5 -226.5t-38 -163t-58 -66.5q-23 -2 -42.5 39t-37 106.5t-31.5 147.5t-24.5 162t-18.5 148.5t-12 109.5q-6 45 -10.5 106.5t-5.5 127t-3 127t-4 106.5q-2 12 -21.5 15t-51 6t-71.5 12.5t-79 35.5q-49 31 -37 51.5t60.5 34 t119 20.5t139 10t121 3t62.5 -2q16 -2 54 -2t86 -2t100.5 -5t95.5 -9.5t70.5 -15.5t27.5 -21q0 -20 -36 -42t-92 -40.5t-124.5 -29.5t-134.5 -11z" />
<glyph unicode="U" horiz-adv-x="993" d="M268 1047q12 -80 27.5 -187.5t38 -217.5t54.5 -211t79 -169q45 -63 83 -58t67.5 43t50 90t26.5 85q14 68 28.5 161t29 191t30 193.5t34 169t42 118.5t51.5 43q16 2 21.5 -27.5t3.5 -74.5t-6 -95t-6 -87q-4 -63 -1 -127t6 -128.5t3 -129t-8 -129.5q-10 -78 -30 -172.5 t-58.5 -174t-105 -134t-171.5 -52.5q-135 2 -227 61.5t-151.5 156t-90.5 218t-40 250.5t-4 254t18.5 226.5t28.5 168t26 78.5q23 29 42 20t35.5 -41t29 -79t22.5 -93t15 -85t7 -55z" />
<glyph unicode="V" horiz-adv-x="894" d="M328 352q-39 90 -70 190.5t-56.5 202t-45 198.5t-33.5 179t-24.5 145.5t-16.5 96.5q-12 63 14.5 82.5t66.5 11.5t80 -36.5t52 -65.5q43 -104 60.5 -214t30.5 -229.5t35.5 -251t78.5 -278.5q8 27 25.5 114t41 203.5t54 243.5t64.5 233.5t72 174t77 63.5q4 -2 0.5 -31.5 t-9.5 -78t-13 -107.5t-12 -120.5t-5 -119t10 -98.5q14 -66 10 -150.5t-21.5 -176t-45 -181.5t-57 -163.5t-58.5 -123t-49 -59.5q-31 -14 -66 13.5t-68.5 80t-64 119.5t-57.5 133z" />
<glyph unicode="W" horiz-adv-x="1716" d="M778 473q-12 -53 -25.5 -121.5t-35 -136.5t-55 -125t-87.5 -86q-70 -35 -125 -15.5t-101 76t-81 142.5t-61.5 184t-44 200.5t-29.5 191.5t-18 158t-9 97q-2 57 3.5 125t18.5 126.5t35.5 97t53.5 40.5t57.5 -26.5t46 -73.5t33 -98t17.5 -96q14 -119 28.5 -225.5t29.5 -210 t35.5 -209t51.5 -222.5q39 33 69.5 115t59.5 183.5t58.5 208t68.5 187t90 121.5t123 13q86 -37 137.5 -98.5t79 -139.5t39.5 -165t23.5 -175t30 -171t57.5 -152q16 51 30.5 160.5t33 242.5t43 272.5t61.5 247.5q14 43 32.5 84t37 72t37 47t34.5 10q39 -16 45 -67.5 t-4 -150.5t-26.5 -254t-18.5 -378q0 -111 -37 -228.5t-96 -207.5q-43 -66 -106.5 -71t-126 23t-115 78t-72.5 97q-41 96 -58.5 210t-28.5 225.5t-25.5 210.5t-49.5 169q-4 6 -16.5 -21.5t-28.5 -74.5t-34.5 -108.5t-36 -121t-31 -109.5t-17.5 -77z" />
<glyph unicode="X" d="M1004 47q-49 -29 -97.5 -13.5t-95.5 59.5t-92 107.5t-86 132t-77 135.5t-64 116q-23 -20 -52.5 -73.5t-61.5 -120t-65.5 -137.5t-65.5 -127t-59.5 -89t-48.5 -21q-37 20 -33.5 79t28 137.5t63.5 166.5t78.5 167t70.5 139.5t39 82.5q0 2 -8 19.5t-22.5 44.5t-29 56.5 t-26.5 58.5q-29 66 -60.5 133t-78.5 127q-8 10 -40 35.5t-59.5 55.5t-34 56.5t39.5 38.5q86 -4 153.5 -42t124.5 -95t108.5 -124t102.5 -124q29 41 71 94.5t87 107.5t90 106.5t83 91t64.5 59t34.5 12.5q18 -18 2 -70.5t-52 -123t-83 -148.5t-87 -145.5t-67.5 -114.5 t-23.5 -57q8 -25 44 -83.5t81 -133t93 -157.5t83 -153q27 -55 37 -101t11 -82t-5 -57.5t-14 -25.5z" />
<glyph unicode="Y" horiz-adv-x="864" d="M90 1432q31 2 70 -30t74.5 -82t62.5 -114.5t33 -126.5q16 -121 42.5 -178t55.5 -80q33 -25 70 -18q41 104 77 209q29 90 55.5 189t31.5 183q2 37 39.5 34t80.5 -39t75 -101.5t20 -151.5q-10 -80 -41 -209t-91.5 -271t-154.5 -280.5t-232 -238.5q-80 -59 -155.5 -79.5 t-120.5 -9.5t-47 49t63 93q104 86 172 179.5t109 170.5q49 90 76 177q-66 14 -131 49q-55 29 -116 83t-106 140q-33 66 -69.5 143.5t-51 144t6 114t102.5 51.5z" />
<glyph unicode="Z" horiz-adv-x="1134" d="M1149 115q-80 -23 -183.5 -44.5t-211 -33.5t-211 -13t-185.5 15q-31 6 -70.5 14t-78.5 21.5t-71 34t-46 53.5q-18 41 -4 67.5t43 45t60.5 33t50.5 32.5q86 82 159.5 184.5t140 213t128 223t121.5 215.5q-47 6 -93.5 9t-91.5 8t-90 15.5t-88 32.5q-29 14 -60.5 51t-47 71 t-2 51.5t78.5 -5.5q106 -37 215 -54.5t222 -6.5q35 2 75.5 3t80.5 -5.5t77 -21.5t66 -44q14 -14 -5.5 -65.5t-59.5 -126t-95 -167t-114.5 -185.5t-119 -183t-107.5 -160.5t-78 -117t-32 -52.5q84 -10 148.5 -18t123 -10t118 4t132.5 24q47 10 99.5 14.5t94.5 2.5t67.5 -12.5 t21.5 -26t-46 -36.5t-132 -50z" />
<glyph unicode="[" horiz-adv-x="1038" d="M705 1499q0 -16 -20.5 -26.5t-51.5 -19.5t-66 -21.5t-66.5 -34t-53 -55t-23.5 -89.5q-6 -147 -1 -293.5t5 -293.5q0 -78 -19.5 -155t-27.5 -155q-4 -47 -10 -98t-1 -92t30.5 -65.5t86.5 -18.5q68 8 137.5 24.5t139.5 31t138.5 19.5t133.5 -10q-2 -35 -65.5 -75.5 t-157.5 -74.5t-206.5 -54.5t-212 -12t-172 52.5t-89.5 136q-25 139 -10.5 283.5t31.5 281.5q8 72 18 157t22.5 171t25.5 168t25.5 148.5t23 112.5t18.5 58t41.5 21.5t81 15.5t98.5 7t95 -3t73 -14.5t29 -26.5z" />
<glyph unicode="\" horiz-adv-x="862" d="M88 1307q-8 18 -13 54t-3 69.5t13 55t36 11.5q23 -12 53.5 -55t64 -104.5t69.5 -134.5t69 -144.5t60.5 -134t47.5 -101.5q49 -102 95.5 -199.5t93.5 -203.5q16 -39 45 -101.5t48 -129t20 -127t-35 -93.5q-20 -20 -56.5 15.5t-79.5 102.5t-89 154t-88 172t-75.5 156.5 t-52.5 108.5q-12 25 -28.5 71t-31.5 97t-27.5 97t-18.5 75q-10 29 -24.5 67.5t-31 78.5t-33 78t-28.5 65z" />
<glyph unicode="]" d="M82 193q23 16 60.5 16t83.5 -7t97.5 -17.5t99.5 -15.5t91 0t74 30q39 31 62.5 121t33.5 209.5t9 254t-11 253t-29.5 206.5t-44.5 117q-45 -4 -93 -14.5t-96 -17.5t-97.5 -6t-94.5 24q-45 20 -55 37.5t1 33t37 27.5t56.5 21.5t59 14.5t45.5 7q45 2 96 15.5t101 19.5 t97.5 -4.5t86.5 -51.5q8 -29 23.5 -96t31.5 -157.5t33.5 -194t33 -202.5t24.5 -184t11 -140q2 -70 -5 -155t-24.5 -161t-48 -131t-75.5 -65q-53 -12 -135 -16.5t-168 1.5t-166 22.5t-129 47.5q-23 14 -38.5 38.5t-23.5 50.5t-11 45.5t-3 23.5z" />
<glyph unicode="^" horiz-adv-x="774" d="M373 1284q-33 -41 -56.5 -74.5t-47 -59.5t-49 -41t-62.5 -19t-41 31.5t8 85.5t33.5 101.5t34.5 77.5q25 57 49 90t55 43.5t71 -1t95 -39.5q41 -20 97 -76.5t101.5 -120t63.5 -121t-14 -80.5q-35 -23 -78 1t-89 63t-90 81t-81 58z" />
<glyph unicode="_" d="M827 80q41 -10 90.5 -28.5t83.5 -35.5q27 -16 36.5 -33.5t3 -34t-25 -26.5t-44.5 -10q-86 -16 -187.5 -15t-204 6t-198.5 9t-172 -8q-63 -4 -107.5 10t-103.5 39q-27 18 -35 36.5t-4 35t15.5 29t23.5 18.5q10 6 59 15t122 16.5t162 12.5t177 4t170 -10.5t139 -29.5z" />
<glyph unicode="`" horiz-adv-x="724" d="M383 1186q-16 10 -60 51t-87 92t-68 99.5t-2 74.5q16 18 67.5 8t117 -38.5t135 -70.5t123 -86t81 -84t8.5 -65q-29 -35 -68.5 -44t-82.5 -3t-87 24.5t-77 41.5z" />
<glyph unicode="a" horiz-adv-x="1003" d="M606 866q-6 -27 -34.5 -44t-65.5 -35.5t-76 -41t-65 -59.5q-41 -59 -57.5 -141t-15.5 -157t18.5 -129t43.5 -54q33 0 69 30.5t64.5 70.5t47 82t18.5 65t-2 62.5t1 78.5t12 67.5t32 30.5t54.5 10.5t60 2t46 -40t13.5 -115.5q-6 -166 16.5 -251t87.5 -99q45 -8 81 21.5 t65 66.5t49.5 66.5t32.5 23.5q14 -6 10 -51t-30.5 -101.5t-79 -113t-134.5 -86.5q-43 -16 -79.5 -16.5t-66.5 10t-52.5 29t-40.5 40.5q-41 51 -66 127q-20 -49 -57 -86q-31 -33 -80 -60.5t-121 -31.5q-72 -2 -135.5 45t-101 127t-40.5 185.5t46 221.5q33 76 86 129.5 t113.5 87t121 49t108.5 17.5t77.5 -7.5t25.5 -25.5z" />
<glyph unicode="b" horiz-adv-x="991" d="M178 1327q27 70 74 117t99 71.5t105.5 26.5t92.5 -18q41 -23 62.5 -56.5t30.5 -77.5t9 -94.5t-6 -101.5q-8 -74 -26.5 -144.5t-44 -136t-55.5 -127t-60 -112.5q-70 -123 -156 -230q-2 -86 18.5 -149.5t53.5 -104t69.5 -60t65.5 -19.5q43 0 75.5 44t51 107.5t23 134 t-10.5 125.5q-14 53 -38.5 73.5t-48 30t-38 17.5t-8.5 37q8 31 39 55.5t71 35.5t82 5t72 -39q31 -35 70 -65.5t79 -52t77.5 -33t66.5 -6.5q29 4 42 -9.5t6 -33t-35.5 -39t-79.5 -25.5q-35 -6 -68 1t-59 18q-31 12 -58 28q18 -25 27 -59q8 -29 10 -72t-8 -102 q-10 -47 -33.5 -102.5t-66.5 -102.5t-107.5 -79t-157.5 -32q-137 0 -229 69t-144.5 181.5t-69.5 257t-6 295t49 295.5t93 258zM270 610q57 78 109 176q41 86 80 203t49 260q4 57 -6 95t-28.5 50.5t-41 -2t-45.5 -59.5q-23 -47 -40 -102t-29.5 -114.5t-20.5 -121t-14 -116.5 q-13 -132 -13 -269z" />
<glyph unicode="c" horiz-adv-x="686" d="M594 772q-6 -10 -39 -5t-76 2t-86 -26.5t-69 -89.5q-25 -66 -34 -139.5t0 -140t34.5 -115.5t68.5 -68q61 -25 110.5 -16.5t88.5 28t66.5 42t43.5 28.5q39 12 35 -29.5t-57 -107.5q-29 -37 -72 -70.5t-96 -54t-115.5 -22.5t-132.5 24q-66 25 -119 80t-86.5 128t-47 157 t2 168t61.5 162.5t128 140.5q78 55 152.5 57t131 -20.5t87 -58.5t20.5 -54z" />
<glyph unicode="d" horiz-adv-x="1040" d="M596 725q12 137 20 258q6 104 10.5 206.5t0.5 156.5q-4 51 23.5 94t64.5 73.5t73.5 47t53.5 16.5q16 0 19 -82t0 -212t-8 -294t-3 -330q2 -154 18.5 -250t42 -150t54 -76.5t55.5 -30t45 -9.5t25 -14q8 -18 -13.5 -47t-63.5 -49.5t-99.5 -21.5t-120.5 34q-53 29 -80 77 t-37 95q-12 53 -10 111q-45 -82 -107 -144q-27 -27 -59.5 -51t-71.5 -42.5t-84 -29t-96 -6.5q-55 4 -99.5 44t-74 100.5t-43 135.5t-9 149.5t29 143t71.5 117.5q35 35 74 53.5t78.5 23.5t79.5 0t75 -15q82 -25 166 -82zM276 541q-18 -49 -23 -103.5t-2 -99.5t13 -76t25 -33 q29 -8 60.5 12.5t84.5 84.5q25 33 50.5 80t43 92t21.5 79.5t-10 40.5q-16 6 -52 12.5t-76 2.5t-78.5 -23.5t-56.5 -68.5z" />
<glyph unicode="e" horiz-adv-x="790" d="M94 782q29 55 76 96.5t103.5 67t119 37.5t121.5 12q61 -4 105.5 -39.5t62.5 -92t7 -126t-60 -141.5q-53 -78 -113.5 -117t-112.5 -55q-59 -20 -116 -18q-2 -78 16 -134q8 -25 19.5 -46t30 -37.5t45 -23.5t61.5 -1q74 12 120 54t76.5 85t50 75t37.5 23q23 -10 24 -51 t-19.5 -96t-60.5 -113.5t-101.5 -99.5t-141 -56.5t-178.5 15.5q-80 25 -133 78t-84 122.5t-41 149.5t-3 159t30.5 150.5t58.5 122.5zM285 559q27 4 59 16q29 10 62.5 31t72.5 58q37 35 50.5 67.5t15.5 54.5q2 27 -8 50q-29 8 -62 0q-29 -8 -63.5 -33t-71.5 -78 q-29 -41 -41 -72.5t-16 -52.5q-4 -25 2 -41z" />
<glyph unicode="f" horiz-adv-x="688" d="M659 1423q0 -31 -29.5 -38t-67.5 -8t-74.5 -8t-51.5 -38q-14 -31 -23.5 -75t-15.5 -96t-8 -108.5t-2 -111.5q0 -127 8 -272q23 6 58 14q29 6 71.5 14.5t102.5 18.5q61 8 97 0t48 -23.5t1 -33t-44 -23.5q-68 -16 -127 -35.5t-104 -38.5q-53 -23 -95 -43q10 -158 9 -287 q0 -55 -3 -111.5t-9.5 -103.5t-17.5 -81.5t-26 -49.5q-29 -27 -62.5 -46t-63 -25.5t-52 3t-28.5 40.5q-4 16 -6.5 50t-3.5 76t0 91t1 96q2 113 4 244q-8 -4 -16 -11q-18 -12 -51 -14q-45 -6 -67.5 24.5t-0.5 82.5q10 25 29.5 45t42.5 37q25 18 55 30q-10 158 -6 303 q0 61 4 127t12.5 128.5t20.5 117.5t31 96q31 68 77 102t97 42t102 -1.5t92 -27.5t66.5 -39t25.5 -33z" />
<glyph unicode="g" horiz-adv-x="823" d="M948 236q45 18 69.5 16t31 -15.5t-5 -34t-35.5 -38.5q-20 -14 -50 -39t-62 -52.5t-61.5 -54t-50.5 -43.5q14 -96 16.5 -195t-12 -190.5t-47 -168t-88.5 -126.5q-78 -70 -157.5 -80t-141 27t-96.5 114t-20 181q16 106 66 188t106 138q66 66 141 112q-2 16 -8 45 q-4 25 -14.5 63t-26.5 97q-10 35 -25.5 67t-30.5 54q-18 27 -34 47q-33 -37 -68 -65q-29 -25 -63.5 -44.5t-65.5 -19.5q-33 0 -74 35t-72.5 92t-49 131t-5.5 152q14 78 37 125t49.5 74.5t57 40t61.5 18.5q45 8 107.5 -12.5t119 -52t96.5 -65.5t38 -52t-44 -13.5t-96.5 13 t-106.5 8.5t-73 -33q-20 -33 -32.5 -78t-15.5 -90t5 -83t31 -56q12 -10 33.5 7t50 43t63.5 49.5t75 28.5t83 -20.5t88 -99.5q27 -43 56.5 -99.5t52.5 -160.5q53 33 100 62.5t98 52.5zM526 -516q12 35 15.5 89t3.5 108q-2 61 -6 129q-43 -37 -76 -78q-29 -35 -50.5 -82 t-17.5 -101q4 -51 22.5 -74.5t40 -26.5t41 8.5t27.5 27.5z" />
<glyph unicode="h" horiz-adv-x="944" d="M70 227q-2 68 -4.5 189t-1 264t5.5 293.5t15 275.5t31.5 209t53.5 96q57 20 113.5 2t101.5 -56t74.5 -86t34.5 -87q23 -127 1 -229.5t-61 -188.5t-82 -157.5t-61 -139.5q51 92 115 156q27 27 57.5 49.5t65 34.5t71.5 12t76 -20q63 -33 97 -93.5t49.5 -135t19.5 -156.5 t9 -158t17.5 -140.5t44.5 -103.5q47 -55 82 -76.5t59.5 -26.5t40 -4t23.5 -7q6 -6 9 -13.5t0 -14.5t-17 -16.5t-43 -19.5q-55 -18 -142 -5t-186 85q-49 35 -74.5 98.5t-40 138t-21.5 151.5t-17.5 140.5t-29.5 103.5t-56 42t-65.5 -28t-49 -80t-34 -113.5t-21.5 -125 t-12.5 -116.5t-6.5 -88q-2 -51 -24.5 -71.5t-52 -20.5t-62.5 13t-53 28q-23 16 -33 49t-14 65q-4 37 -2 82zM264 778l18 52q17 53 37.5 128.5t37 157.5t14.5 144q-4 61 -16.5 105t-29 59.5t-33 -5t-26.5 -88.5t-12 -163t1 -182t5 -117z" />
<glyph unicode="i" horiz-adv-x="481" d="M8 537q6 49 16.5 94t26 84t33.5 66.5t41 39.5q23 10 58.5 21.5t67.5 8.5t48 -28.5t-2 -89.5q-8 -35 -14.5 -87t-7.5 -112.5t3.5 -121t15.5 -111.5t30.5 -87t48.5 -46q59 -20 102 4.5t80 75.5q14 23 34.5 38t34 13t13.5 -26.5t-27 -82.5q-29 -59 -72.5 -104t-98 -70.5 t-116 -29.5t-122.5 18q-61 20 -100.5 58t-61 101.5t-28.5 155t-3 218.5zM100 1268q23 45 69 55t90 -2t76 -42t25 -69q-8 -47 -52 -80.5t-132 -25.5q-25 2 -44 18.5t-31.5 40t-13.5 52t13 53.5z" />
<glyph unicode="j" horiz-adv-x="847" d="M664 371q-10 -12 -7.5 -51t11 -92.5t17.5 -115t9 -118.5t-3 -99t-10 -79t-18.5 -73t-27.5 -81q-23 -57 -49.5 -104t-62.5 -84t-82 -61.5t-107 -37.5q-119 -16 -180.5 23t-85 109.5t-16.5 160.5t24 174q23 160 101.5 298.5t215.5 230.5q-12 80 -44 156.5t-62.5 143 t-51 118t-8.5 79.5q23 16 54.5 18.5t65.5 -7t66.5 -24.5t55.5 -32q29 -29 49.5 -68.5t35.5 -84.5t26.5 -92.5t23.5 -85.5q8 4 39 13t73 20.5t88 20.5t86 11t65.5 -6t25.5 -31t-41 -40t-95 -34.5t-106 -34.5t-75 -40zM256 -383q45 -6 80 16.5t59.5 59.5t37.5 81t20 85 q6 23 9 70.5t0 100t-12.5 98.5t-25.5 62q-45 -27 -86 -78t-71.5 -111t-50 -125.5t-24 -120t11 -92.5t52.5 -46zM362 1049q-16 6 -39.5 9t-46 10t-41 20.5t-24.5 35.5q-8 53 4 80t35.5 35t53.5 1t59.5 -23.5t53 -37t36.5 -38.5q12 -16 8 -35t-18.5 -33t-36 -22t-44.5 -2z" />
<glyph unicode="k" horiz-adv-x="999" d="M344 647q8 18 46 57t90 74t111.5 58.5t110.5 11.5q72 -16 119 -54t60 -120q6 -45 -11.5 -91t-52.5 -87t-81 -74t-95 -47q-6 -2 1 -30t26.5 -63.5t51.5 -70.5t75 -53q47 -20 90 -13t79.5 29.5t66.5 53t51.5 59t34.5 48t18 19.5q18 -4 18 -37.5t-15.5 -81t-47 -100.5 t-74.5 -97t-97.5 -70.5t-117.5 -20.5q-78 6 -129 37.5t-83 74.5t-49.5 90.5t-24.5 88.5t-11 66.5t-8 23.5q-25 -8 -50.5 -11.5t-45 -3.5h-32.5h-12q-4 -80 -8 -147.5t-6 -108.5q0 -39 -27.5 -60.5t-62.5 -20.5t-71 28t-54 84q-10 33 -16.5 119t-8.5 200.5t-1 244.5t5.5 250 t10.5 218.5t16 147.5q16 92 52 153.5t81 96t94.5 44t92.5 -5.5q94 -31 127.5 -99t29.5 -157.5t-38.5 -188.5t-77.5 -190.5t-86.5 -164t-63.5 -109.5zM373 438q41 53 82 82q35 23 76.5 25t80.5 -53q55 53 56.5 100t-39.5 70q-35 20 -76 5.5t-78 -49t-64.5 -83t-37.5 -97.5z M315 840q-2 2 14.5 45t40 107.5t47 141t37 144.5t12.5 118t-28 60q-33 12 -53 -29t-33.5 -109.5t-20.5 -152.5t-10.5 -156.5t-4.5 -121.5t-1 -47z" />
<glyph unicode="l" horiz-adv-x="712" d="M668 1239q-8 -92 -29 -176t-48.5 -160t-60 -143.5t-65.5 -122.5q-78 -131 -172 -238q0 -14 6 -37q4 -20 16.5 -49.5t38.5 -70.5q53 -86 118 -107.5t125 -4.5t105.5 61.5t61.5 89.5q16 47 32.5 61t30 7t20.5 -29.5t5 -49.5q-35 -92 -88 -161q-23 -31 -53.5 -60 t-67.5 -51.5t-81 -35.5t-95 -11q-131 2 -218 63.5t-140.5 157.5t-76 218t-25.5 247t10.5 240.5t31.5 201.5q20 90 54 178.5t84.5 156t119 106.5t160.5 28q68 -10 117 -47q41 -31 69.5 -93.5t14.5 -168.5zM272 580q53 88 99 182q39 80 75.5 175t53.5 187q8 45 15 92.5t6 87 t-15 67.5t-47 32q-43 4 -77 -30t-57.5 -94t-38 -143t-20.5 -176.5t-4 -191.5t10 -188z" />
<glyph unicode="m" horiz-adv-x="1761" d="M82 930q39 2 69.5 -11.5t53 -35t39 -50t26.5 -59.5q23 -70 29 -160q10 20 29 48q25 43 92 124q33 39 69.5 74t82.5 56.5t101.5 23.5t127.5 -25q70 -25 109.5 -67.5t61 -95t32 -110.5t22.5 -112q18 -109 28.5 -126t43.5 79q16 51 49 116t78 115t98 72.5t111 -8.5 q39 -23 74.5 -64.5t63 -100t46 -129t24.5 -148.5q6 -80 17.5 -133t31 -84t51.5 -39t81 2q37 8 51 -12.5t2 -47t-52 -50t-108 -23.5q-66 0 -119 32.5t-96 82t-76.5 109.5t-57.5 118.5t-39 105.5t-23 72q-12 37 -31 14.5t-41.5 -73t-47 -112.5t-48.5 -108q-25 -45 -54.5 -86 t-65.5 -61t-81 -9t-100 70q-37 39 -60.5 99.5t-39 129t-25 138.5t-14.5 131.5t-10 105.5t-11 62q-23 49 -77 29.5t-140 -117.5q-43 -47 -61.5 -128t-24.5 -165t-4 -155.5t2 -102.5t-20.5 -55.5t-53.5 -36.5t-76 -7t-86 36q-27 20 -47 90.5t-32.5 165t-17.5 200t-2 194.5 t14.5 148.5t31.5 63.5z" />
<glyph unicode="n" d="M80 748q12 20 35.5 37.5t49 30.5t51.5 20.5t42 7.5q8 0 13 -16.5t10.5 -43t7.5 -60.5t4 -69q4 -82 2 -186q27 53 57 104q27 43 62 89.5t71 78.5q35 31 77 47.5t85 13.5t83 -32t71 -86q20 -39 30.5 -97.5t15.5 -123t10 -130t18.5 -120.5t37 -94t68.5 -49q37 -10 73 -1 t67.5 24.5t55 26.5t33.5 5q8 -8 -9 -45t-57 -76t-100.5 -66.5t-138.5 -17.5q-154 20 -221.5 158.5t-77.5 361.5q-4 80 -19.5 119t-40 41t-56 -27.5t-68.5 -85.5q-43 -63 -63.5 -126.5t-27.5 -119t-9.5 -98.5t-10.5 -63q-10 -23 -42.5 -31t-70.5 -8t-74 8t-50 21 q-8 8 -13.5 58t-7.5 120.5t-1 151.5t4 154t9.5 126.5t14.5 67.5z" />
<glyph unicode="o" horiz-adv-x="784" d="M514 831q94 -57 145.5 -140t66.5 -174t-5.5 -181t-68.5 -163t-121.5 -120t-168.5 -49q-119 -2 -199.5 52.5t-123.5 138.5t-50 183t21.5 186t94 148.5t163.5 67.5q90 6 131 19.5t59.5 25t25.5 15t30 -8.5zM274 653q-12 -12 -20 -59t-11 -110.5t1 -133t15 -127t31.5 -94.5 t49.5 -33t55.5 38t48 84t35 110.5t16.5 118t-7.5 104.5t-34.5 72q-57 59 -97.5 64t-81.5 -34z" />
<glyph unicode="p" horiz-adv-x="929" d="M100 948q18 20 43 17.5t49.5 -19t46 -39t31.5 -39.5q12 -18 18.5 -56t9.5 -74t7 -58.5t14 -9.5q8 12 31 46t61 69.5t92 62t126 20.5q51 -4 101 -25.5t87 -61.5t58.5 -99t17.5 -135q-4 -80 -30.5 -140.5t-72 -102.5t-101.5 -67.5t-118 -37.5q-109 -23 -146.5 -17t-29.5 39 q4 16 16.5 27.5t34 23t53 24.5t74.5 36q39 20 71 60t44 86t2 93t-53 82q-72 59 -142.5 24.5t-119.5 -145.5q-23 -49 -35 -139t-17.5 -197.5t-5.5 -222t1 -215t1 -176.5t-4 -104q-6 -43 -30.5 -55.5t-57 -6.5t-66.5 27.5t-57 46.5q-8 8 -14 74.5t-10 168t-6 228.5t-2 259 t2 259t6 228.5t9 167t11 73.5z" />
<glyph unicode="q" d="M893 924q6 -8 11 -63.5t9.5 -140.5t7.5 -192.5t3 -222.5q59 39 100 79t67.5 67.5t42 37t25.5 -11.5q8 -16 -3 -51t-40 -78t-77 -90t-115 -88q0 -96 -2 -187.5t-6.5 -168t-9.5 -133t-13 -82.5q-18 -63 -52 -99.5t-69 -46.5t-61.5 6.5t-32.5 59.5q-4 25 -5 81t-1 130.5 t-1 162t-5 175.5q-49 -10 -102.5 -16.5t-112.5 -4.5q-96 0 -176 36t-136.5 102.5t-82 158.5t-9.5 207q20 94 51 156.5t69 100.5t84 56.5t95 28.5q70 14 127 -14.5t99 -71.5t68 -84t34 -53t10 24.5t1 85.5t0 94.5t11 49.5q8 4 34 12t55.5 12t59.5 0t48 -24zM608 186 q12 2 25.5 4.5t25.5 6.5q-8 88 -19 160.5t-34 119.5q-25 51 -56.5 96t-66 73t-72.5 32t-75 -25q-29 -23 -44.5 -70.5t-15.5 -104t18.5 -115t58.5 -102.5t102.5 -66.5t152.5 -8.5z" />
<glyph unicode="r" horiz-adv-x="704" d="M35 801q-23 12 -41.5 14t-33.5 2t-26.5 3t-19.5 20q-6 14 19.5 38.5t68.5 41t96.5 13.5t102.5 -42q43 -37 70.5 -71t43.5 -60q18 -31 27 -60q57 55 119 93q53 33 118.5 53t131.5 2q16 -6 15 -25.5t-16.5 -42t-42 -43t-63.5 -28.5q-72 -16 -113.5 -61.5t-64.5 -106 t-29 -129t-6 -131.5q2 -133 -37 -198t-104 -69q-76 -4 -113 70t-37 250q2 111 2 192.5t-6 138t-20 89.5t-41 47z" />
<glyph unicode="s" horiz-adv-x="718" d="M541 997q8 -16 -2.5 -25t-30 -18.5t-44 -22.5t-47 -38t-37.5 -63.5t-15 -98.5q-2 -59 27.5 -114.5t72.5 -107.5t94 -102.5t92 -102.5t64.5 -106.5t15.5 -111.5q-10 -57 -64.5 -97t-132 -61.5t-168 -23.5t-169 15.5t-136 54t-71.5 94.5q-23 84 -13.5 141t34 95t55 59.5 t53.5 33.5q47 27 62.5 0.5t-19.5 -84.5q-16 -29 -8 -64.5t37.5 -67t75.5 -54.5t106 -25q37 -2 74.5 7.5t62.5 29t30 47t-22 62.5t-92.5 88t-134 117.5t-120.5 137.5t-52 146q0 145 52 213t169 88q57 10 94 9.5t58.5 -9t32 -20t16.5 -21.5z" />
<glyph unicode="t" horiz-adv-x="655" d="M186 1475q6 37 43 41t78 -16.5t76 -58.5t37 -83q2 -47 4 -96.5t4 -87.5q2 -47 4 -89q70 6 123 5q47 -2 84 -12.5t37 -37.5q0 -29 -36 -49t-81 -35q-53 -16 -119 -28q4 -137 9 -266q2 -113 1 -236t-10 -215q-10 -92 -31.5 -135t-48 -55.5t-55.5 -5t-53 17.5 q-12 4 -22.5 43t-16.5 100.5t-10 138t-6 156.5q-6 188 -7 422q-55 -12 -102 -12q-41 0 -76 13t-43 50q-6 29 26 51.5t73 38.5q47 18 110 33v33q0 14 1 29.5t1 25.5q0 82 -2 133t-2 85t2 55.5t8 46.5z" />
<glyph unicode="u" horiz-adv-x="991" d="M291 795q-2 -20 -4 -69.5t-2 -110t4 -126t14 -120t30.5 -89t53.5 -34.5q47 0 81 34.5t58.5 88t39 120t23.5 130t12 119t5 85.5q2 37 21.5 53.5t48.5 17.5t61.5 -11.5t61 -30.5t47 -42t20.5 -46q2 -31 -2 -89.5t-7 -131t-3 -149.5t11.5 -141.5t35 -110.5t66.5 -56 q39 -10 53 -26.5t3 -32t-45 -23.5t-91 2q-94 16 -145.5 65.5t-75.5 102.5q-29 61 -35 135q-27 -82 -70 -141q-37 -53 -95 -91t-142 -26t-138.5 54t-88.5 101.5t-50 130.5t-22 142q-6 57 -6.5 114.5t4 107t12.5 84t18 44.5q12 10 51 22.5t81 13.5t75 -13t31 -57z" />
<glyph unicode="v" horiz-adv-x="870" d="M74 862q45 23 93 22t86 -17.5t60.5 -43t18.5 -55.5q-16 -141 -1 -263t41.5 -207t55.5 -124t43 -14t26.5 101.5t36 169.5t67.5 183.5t122 141.5q68 43 91.5 28.5t19 -65.5t-26 -128t-43.5 -157q-14 -53 -41 -123.5t-60.5 -137.5t-73.5 -117t-79 -58q-74 -16 -128 1t-95 52 t-73 80t-58 88q-18 27 -40 81t-41.5 120.5t-33.5 138.5t-17.5 134.5t8 108.5t42.5 60z" />
<glyph unicode="w" horiz-adv-x="1626" d="M94 825q43 20 82 20.5t67.5 -14t45 -40t14.5 -54.5q-16 -133 2.5 -246.5t49 -192.5t64.5 -116t46 -14t28.5 95.5t42 160.5t64.5 173t98 132t102.5 51t74 -18.5t52 -64.5t40.5 -85q18 -45 33.5 -115.5t33 -134t37 -101.5t47.5 -17q18 14 39 59t44.5 105.5t51 126t60.5 121 t72.5 90t89.5 32.5q53 -2 99 -27.5t80 -59.5t52 -68.5t18 -57t-22.5 -23.5t-69.5 33q-49 35 -108.5 -21t-91.5 -202q-16 -72 -36 -128t-47.5 -96t-68.5 -64.5t-100 -30.5q-55 -6 -102.5 23.5t-85.5 77.5t-63.5 105.5t-33.5 106.5q-10 47 -17.5 66.5t-14.5 13.5t-17 -35 t-29 -76q-16 -47 -32.5 -94t-43 -87t-68.5 -71.5t-112 -46.5q-68 -14 -128 1.5t-110.5 48t-89 74.5t-63.5 83q-16 27 -36.5 77t-39 112.5t-32 129t-16.5 125t8 101.5t40 57z" />
<glyph unicode="x" horiz-adv-x="974" d="M975 913q2 -4 9 -9t9 -14t-2 -25.5t-22 -41.5q-31 -47 -61.5 -93t-69.5 -98t-91.5 -114.5t-125.5 -140.5q74 -74 152.5 -143.5t142 -131t101.5 -112.5t32 -86q-4 -18 -55.5 -5t-132.5 50t-184.5 94t-211.5 129q-16 8 -37 29q-76 -72 -153.5 -130.5t-139.5 -90.5 q20 -25 29 -48q8 -20 4 -42.5t-31 -41.5q-29 -20 -62.5 -9t-52 44t-9 83t68.5 110q33 33 93.5 96.5t127.5 136.5q-61 68 -118.5 150t-104.5 167t-81 168t-48 152.5t-6 120.5t47 74q33 18 69.5 -1.5t76.5 -63.5t81 -107.5t82 -134t81 -143.5t79 -134q8 -10 14 -20.5t14 -20.5 q63 70 111.5 120t88.5 89t76 70.5t77 64.5q53 43 91 53t42 0z" />
<glyph unicode="y" horiz-adv-x="940" d="M145 829q41 -4 58.5 -32.5t23.5 -68.5t4 -85t-1 -84t10.5 -65.5t38.5 -28.5q25 -4 48 20.5t46.5 64.5t49.5 89t56 96q23 35 49.5 51.5t49.5 22.5q27 8 53 4q43 2 86 -63q18 -29 38.5 -73t41 -110.5t41 -158t39.5 -213.5q27 -174 11 -319.5t-60 -259.5t-112.5 -196 t-148.5 -130t-166 -61t-168 9q-78 23 -138 87.5t-91 150.5t-21.5 183t74.5 183q63 86 151.5 136.5t169.5 72t136 19.5t53 -17q0 -16 -29.5 -34.5t-75.5 -48t-104.5 -76t-115.5 -117.5q-57 -72 -55.5 -133.5t45.5 -91t124 -15.5t179 96q49 41 77.5 100.5t41 130t11.5 146.5 t-10 150q-20 172 -77 360q-33 -61 -74 -110q-35 -41 -85 -75t-112 -34q-92 0 -147.5 40t-81 99.5t-26.5 129t11.5 128t35.5 96t46 35.5z" />
<glyph unicode="z" horiz-adv-x="735" d="M817 397q6 -16 -1 -31.5t-24.5 -33t-42 -37t-49.5 -39.5q-61 -51 -90 -88q-16 -20 -26 -35q31 -49 49 -117q16 -59 22.5 -148t-14.5 -212q-16 -102 -65.5 -180t-112 -128t-129 -71.5t-115.5 -11.5q-41 12 -74.5 34.5t-53 65.5t-22.5 108.5t17 161.5q16 80 35.5 133.5 t51.5 102.5t78 102.5t114 130.5q-37 74 -76 103t-72 41t-56.5 20t-29.5 39q-6 20 12.5 43t47 46.5t62.5 48t60 51.5q27 27 45.5 59.5t22.5 66t-11.5 64.5t-54.5 51q-45 23 -73.5 8.5t-53 -36t-50 -37t-64.5 7.5q-20 12 -25.5 42t6 65.5t37 72.5t66.5 63.5t96 37t125 -6.5 q133 -33 188.5 -127t28.5 -229q-12 -66 -49 -114t-78 -78q-47 -37 -100 -62q18 0 41 -10q20 -10 46.5 -30.5t57.5 -61.5q68 70 121 108.5t91 54t61.5 11t29.5 -18.5zM389 -426q35 102 43 170t4 109q-6 49 -26 75q-59 -68 -107 -137q-41 -61 -74.5 -136t-31.5 -151 t21.5 -103.5t48 -14t61 61.5t61.5 126z" />
<glyph unicode="{" horiz-adv-x="831" d="M725 -354q-129 -74 -268 -25q-68 20 -128.5 61.5t-106.5 97.5t-69.5 124.5t-17.5 142.5q10 78 35 160t57 151q23 39 38.5 72t37.5 62q-41 29 -80 52t-82 52q-29 18 -47 32.5t-28 43.5q-6 14 11 30.5t47 32t67.5 30.5t73.5 27.5t63.5 22.5l38.5 14q20 8 24 23.5t-3 33 t-20.5 32t-25.5 24.5q-33 27 -69.5 51.5t-67.5 55t-48.5 68.5t-9.5 89q2 35 16.5 79t37 86t54.5 77t69 51q45 20 97 30.5t98 8.5t80 -14.5t44 -34.5q16 -35 4 -47t-42 -16.5t-70.5 -8.5t-83.5 -22q-43 -25 -63.5 -65t-24 -83t9 -82t35.5 -59q31 -31 56 -59.5t45.5 -60.5 t34 -69.5t17.5 -87.5q6 -51 -22.5 -85.5t-74.5 -57t-98.5 -36t-89.5 -21.5q16 -10 67.5 -33t101 -52.5t77 -61t-3.5 -58.5q-10 -10 -33.5 -39t-49 -75t-47 -110.5t-28.5 -148.5q-2 -61 3.5 -111.5t24 -91.5t52 -72.5t88.5 -54.5q61 -25 115.5 -6t97.5 48.5t74 53t47 9.5 q14 -14 3 -40t-35.5 -53.5t-54.5 -52t-50 -34.5z" />
<glyph unicode="|" horiz-adv-x="636" d="M354 84q0 -18 -9 -52t-22.5 -61.5t-31 -42t-33.5 3.5q-14 18 -23.5 67.5t-13.5 116t-6 144.5t-3 152.5t-1 140t-2 109.5q-2 109 -5 211t1 212v108t7 132.5t28.5 117.5t64.5 66q25 8 41 -35.5t26.5 -118.5t15.5 -170t8 -185.5t3 -166t2 -114.5q2 -27 -2 -73t-9 -96 t-12 -95t-11 -72q-4 -31 -6.5 -70t-4.5 -81t-2 -80.5v-67.5z" />
<glyph unicode="}" horiz-adv-x="704" d="M170 -336q2 18 28.5 31.5t64.5 30t81 41t76 65.5t50 104.5t3 155.5q-6 27 -16.5 57.5t-26.5 58.5t-39.5 47t-54.5 26q-29 6 -54.5 21t-42 37.5t-18.5 50.5t17 56q23 27 46 45.5t44 45.5q10 18 -9.5 39.5t-48 48t-57.5 59.5t-37 74q-6 33 12.5 80t46 94t59.5 90t56 68 q25 31 39 71.5t15.5 81.5t-10 81t-38.5 71q-20 27 -42.5 28.5t-44 -1.5t-42 -2t-39.5 24q-23 33 -9 56.5t42.5 36.5t64.5 16t56 -5q74 -35 129 -91t86 -125.5t33 -144.5t-31 -145q-12 -29 -43 -63.5t-64.5 -69.5t-65.5 -65.5t-50 -50.5q-27 -29 -1.5 -52.5t65.5 -50 t78 -59.5t38 -80q-10 -27 -31.5 -45.5t-46 -34.5t-47 -32.5t-35.5 -41.5q4 -10 34 -24.5t70 -35t80 -48t66 -64.5q51 -72 63.5 -143.5t12.5 -132.5q0 -47 -15.5 -94.5t-48 -89t-86 -76.5t-129.5 -60q-23 -8 -54.5 -11t-65 0t-63.5 14.5t-50 31.5z" />
<glyph unicode="~" d="M543 477q-37 45 -51.5 82t-24.5 64.5t-27.5 46t-58.5 28.5q-37 0 -55.5 -19.5t-27.5 -46t-12 -55t-7 -49.5q-4 -23 -18.5 -41t-35 -30.5t-43 -15.5t-43.5 3q-35 18 -42 60.5t-3 77.5q2 39 20.5 86t51.5 87t79 67.5t105 27.5q82 0 129 -21.5t80 -58.5t61.5 -86t73.5 -100 q23 -27 46.5 -26t44 18.5t41 45t37 55.5t30.5 50.5t27 26.5q-2 -35 7 -58.5t17 -47t11 -53.5t-9 -75q-6 -27 -22.5 -48t-35 -38.5t-35.5 -29t-30 -15.5q-55 -18 -97 -19t-75 11t-58 37.5t-50 58.5z" />
<glyph unicode="&#xa1;" horiz-adv-x="489" d="M125 68q-20 29 -22.5 63.5t4 72.5t14.5 75.5t8 72.5q0 51 -10 120t-14.5 139.5t7 136t54.5 110.5q8 6 20.5 28.5t25.5 41t28.5 22.5t29.5 -26q31 -51 38 -110.5t11 -117.5q6 -84 16.5 -171t15.5 -175t-1 -176t-31 -170q-12 -29 -38.5 -30t-56 13.5t-57.5 38.5t-42 42z M260 1241q-18 4 -41.5 11.5t-43 20.5t-33 35.5t-9.5 59.5q0 23 15.5 37t39 18t51 1t52.5 -13q27 -8 40 -38t10 -61.5t-23.5 -54t-57.5 -16.5z" />
<glyph unicode="&#xa2;" d="M1008 791q-8 -27 -24.5 -26t-39 16.5t-50.5 40t-60 46.5q-41 29 -76 35t-49 6v-68.5v-131t1 -165.5t1 -170t-1 -144.5t-1 -90.5q61 2 108 24.5t83 55.5t63.5 66.5t49 58.5t41 31t42.5 -17q16 -16 16 -44.5t-13.5 -61.5t-36 -64.5t-50.5 -56.5q-43 -53 -124 -88t-161 -45 q0 -20 -2 -70.5t-9 -104.5t-22.5 -99.5t-42.5 -57.5q-47 -18 -73.5 15.5t-40 89t-19.5 118t-10 103.5q0 4 -31 9t-78 19.5t-104 42t-110.5 75.5t-95.5 123t-60 181q-20 121 5 222.5t89.5 180.5t162 134t218.5 84q6 0 6 15.5t-1 44t3 66.5t20 85q0 14 7.5 34.5t21.5 37 t34.5 22.5t47.5 -8q12 -20 22.5 -58t18.5 -80t13 -82t3 -67q27 -8 56 -18q25 -10 55.5 -24.5t62.5 -37.5q25 -23 49.5 -49t43 -54t30 -54.5t11.5 -44.5zM279 543q-4 -66 4 -133.5t31.5 -124t67.5 -96t114 -52.5q-8 106 -13.5 201.5t-6.5 187.5t3 184.5t17 192.5 q-18 6 -53 -16.5t-71 -70.5t-62.5 -117.5t-30.5 -155.5z" />
<glyph unicode="&#xa3;" horiz-adv-x="882" d="M215 -74q-23 -8 -48.5 1.5t-48 29.5t-40 45t-23.5 47q-2 6 3 20.5t11.5 31t12.5 29.5t10 15q25 12 60.5 43t71.5 76t61.5 103.5t29.5 124.5q2 33 1 63.5t-3 54.5q-2 29 -6 56q-109 0 -153.5 22.5t-38.5 51t56 54t130 33.5q-8 31 -21.5 96.5t-17.5 142.5t8.5 155.5 t53.5 135t118.5 80t206.5 -6.5q20 -6 48 -12.5t51.5 -19t37 -30.5t0.5 -45q-10 -20 -41.5 -18t-73.5 8t-89 8t-90 -21q-35 -20 -45.5 -58t-6.5 -85t18.5 -97t32 -96t32 -82t20.5 -55q2 -4 27.5 -10t60.5 -11t74.5 -8t70.5 1q37 6 53.5 -12.5t13.5 -43t-26.5 -48t-68.5 -29.5 q-68 -16 -122.5 -16.5t-54.5 -2.5q0 -53 -11 -114.5t-37.5 -124t-69.5 -120t-107 -102.5q18 2 63.5 9.5t102.5 12.5t118.5 5t112 -11.5t81 -37t26.5 -70.5q-2 -33 -34 -51t-83 -30.5t-115.5 -19.5t-134 -15.5t-139.5 -20t-129 -31.5z" />
<glyph unicode="&#xa4;" horiz-adv-x="1392" d="M1313 268q29 -37 32 -75.5t-10.5 -71.5t-39 -52.5t-56.5 -15.5q-45 12 -73.5 28.5t-50 38t-40 49.5t-41.5 62q-31 59 -52 73.5t-45 8.5t-55.5 -22.5t-82.5 -18.5q-86 10 -124 28.5t-40 8.5q-43 -47 -79 -102t-83 -103q-53 -55 -77.5 -65t-31 6t5 55t30 83t42 87t43.5 72 q20 31 20.5 55.5t-11 50t-27.5 54t-25 69.5q-10 25 -24.5 78t-5.5 129q-14 8 -35 19q-18 10 -45 25.5t-62 39.5q-18 14 -56 38t-77 51.5t-69.5 59t-32.5 64.5q-6 51 25.5 59.5t76.5 -4t91 -35t65 -30.5q35 -18 61.5 -42t65.5 -40q35 -31 53.5 -35t35.5 5.5t38.5 26.5 t60.5 32q41 20 100.5 35.5t110.5 7.5q45 -4 81 -18.5t63.5 -28t45 -22.5t25.5 -3q23 18 51.5 51t58.5 70t60.5 72.5t59 61.5t51 36t39.5 -4q14 -18 6 -55t-30.5 -83.5t-53.5 -94.5t-60.5 -89t-52 -67.5t-26.5 -30.5q16 -35 24 -72q8 -33 10.5 -77t-8.5 -93q-23 -63 -43 -102 q-12 -23 -24 -43q-6 -6 20.5 -26.5t64.5 -49.5t77 -60.5t55 -58.5zM928 807q-35 29 -66 52.5t-96 33.5q-61 6 -110.5 -14.5t-69.5 -69.5q-35 -80 -25 -151.5t47 -121t91.5 -67.5t107.5 6q59 20 102 57t62.5 83.5t10.5 96.5t-54 95z" />
<glyph unicode="&#xa5;" horiz-adv-x="901" d="M905 477q-10 -6 -27.5 -20.5t-43 -29.5t-58.5 -27.5t-74 -14.5q-14 -2 -32.5 -4t-33.5 -4t-25.5 -5t-10.5 -5v-62.5t-2 -104t-7 -102.5t-18 -61q-43 -37 -74.5 -21.5t-54 52t-34 78.5t-13.5 59q-4 23 -7 51.5t-5 54.5l-4 62q-14 2 -61.5 7t-101.5 13t-100 23.5t-57 40.5 q-4 14 13.5 35.5t36.5 25.5q10 6 50 6t87 -2t88 -4t53 0q2 25 0 57.5t-6 32.5q-2 2 -15.5 3t-31 2t-36.5 2t-36 1q-39 4 -76.5 3t-76.5 8q-12 2 -32 12t-34 24.5t-20.5 31t10.5 32.5q18 23 60 30t94.5 7t104.5 -3t91 1q0 -2 0 8v25.5t-1 33t-5 29.5q-4 16 -22.5 53t-34.5 54 q-59 66 -117 140.5t-100 141t-60 114.5t4 60q6 4 30.5 -13t56.5 -47t69 -67t69.5 -71.5t59 -64.5t37.5 -42q6 -8 20.5 -25.5t28.5 -37t24.5 -39t10.5 -31.5q37 27 73.5 75t71.5 100t70 100.5t69 76.5q14 10 29.5 4t30 -21t26 -36.5t19.5 -42.5q4 -14 -8.5 -46t-35 -71 t-51 -81t-54 -77.5t-44 -61t-20.5 -32.5q-16 -23 -18.5 -57.5t-4.5 -62.5q0 -8 21.5 -14.5t50.5 -11.5t59.5 -9t46.5 -8q6 0 19.5 -5.5t26 -13.5t20.5 -19.5t6 -23.5q-10 -14 -26.5 -9t-30.5 1q-4 -2 -22.5 -7t-42 -9.5t-47 -8.5t-38.5 -6q-29 -4 -39 1t-4 -5q2 -16 2 -32.5 v-28.5q0 -14 -2 -27h68.5t102.5 -3t91 -10.5t35 -23.5z" />
<glyph unicode="&#xa6;" horiz-adv-x="587" d="M299 666q-12 -12 -27.5 -15.5t-29 28.5t-24.5 113.5t-15 239.5t13 252t44 141.5t57.5 57.5t53.5 0q14 -8 22 -49t9 -101.5t-2 -130t-10 -133t-17.5 -111t-20.5 -63.5q-16 -25 -19 -55.5t-3 -63.5t-5.5 -61.5t-25.5 -48.5zM199 -76q-2 39 -7.5 97.5t-3.5 119t17.5 109.5 t52.5 69q29 18 43 15.5t23.5 -16t17.5 -34t23 -36.5q14 -16 16 -42t-1 -55.5t-8 -60.5t-1 -55q-2 -20 -1 -64.5t1 -96.5t-2 -107.5t-8.5 -101.5t-17.5 -73.5t-30 -27.5q-31 4 -51 47t-34.5 99.5t-20.5 116.5t-8 97z" />
<glyph unicode="&#xa7;" horiz-adv-x="823" d="M512 246q55 -12 95 -32.5t69 -47.5t50.5 -59.5t39.5 -69.5q80 -137 -23 -289q-27 -37 -70.5 -64.5t-96 -44t-104.5 -22.5t-93 -2q-29 2 -74 13.5t-86 29.5t-68.5 44t-21.5 56q6 35 23.5 45.5t43 6t56.5 -15.5t65.5 -19t71.5 -8t72 20q33 20 52 50t25.5 63.5t-3 67.5 t-35.5 63q-29 33 -61.5 53t-70.5 40.5t-81 47.5t-88 74q-113 106 -158 225t2 283q12 41 39 76.5t52.5 63.5t43 44t10.5 18q-61 37 -87.5 97.5t-30.5 124t8 120t28 86.5q31 59 91.5 92t131 43.5t141.5 -1t124 -41.5q53 -33 76.5 -58.5t21.5 -43t-25.5 -22.5t-62.5 3 q-41 8 -91 16t-99 5t-90 -21.5t-66 -63.5q-12 -29 -12 -66.5t12 -73.5t38 -65.5t64 -42.5q92 -31 165 -60.5t127.5 -64t90 -77.5t52.5 -99q31 -98 15.5 -186t-108.5 -143q-74 -49 -138 -64.5t-118.5 -9.5t-100.5 27.5t-83 46.5q14 -10 31.5 -32t44.5 -48.5t67.5 -51 t106.5 -36.5zM268 766q-37 -35 -40 -79t17.5 -85t60.5 -70.5t87 -34.5t96.5 20.5t92.5 96.5q20 39 15 75t-27.5 65.5t-55.5 52t-65 35.5q-29 12 -55.5 7t-50.5 -19.5t-43.5 -33t-31.5 -30.5z" />
<glyph unicode="&#xa8;" d="M686 1458q23 49 58.5 51t66.5 -24.5t47 -68.5t0 -79q-25 -53 -57.5 -53t-59 27.5t-44 69.5t-11.5 77q2 12 1 -1t-3 -26.5t-3 -12.5t5 40zM195 1481q45 39 86 39t69 -62q12 -16 32.5 -34.5t41 -39t34 -41t11.5 -43.5q-10 -47 -41 -66.5t-68.5 -16t-77.5 25t-68 57 t-36 81.5t17 100q4 6 -4.5 -11.5t-14.5 -31t-5 -9t24 51.5z" />
<glyph unicode="&#xa9;" horiz-adv-x="1470" d="M1370 397q-35 -66 -80 -108.5t-97 -77.5t-110.5 -65.5t-119.5 -67.5q-168 -96 -333 -94t-297 78.5t-215 217t-89 318.5q0 172 45 340t147 303q53 74 105.5 112t111 53t125 13t150.5 -8q68 -6 129 -25.5t119.5 -45t115 -54.5t115.5 -53q39 -16 90 -66.5t96 -112t76 -123 t31 -97.5q-4 -41 -19.5 -108t-35 -134.5t-37 -123t-23.5 -71.5zM1212 471q35 51 58.5 111.5t34 126t5.5 132t-26 128.5q-23 53 -45 91t-51 65.5t-66 46t-88 34.5q-49 12 -95 33t-98.5 41t-112.5 35.5t-136 17.5q-68 2 -115 -28.5t-79.5 -79.5t-55.5 -108.5t-41 -112.5 q-35 -98 -52.5 -216t-3 -232t65.5 -214t154 -164q109 -74 215 -71.5t202.5 52.5t180.5 135t149 177q27 37 26 36t-10 -14.5t-17.5 -25.5t1.5 4zM698 428q-113 37 -182.5 123t-73.5 205q-8 106 51.5 181t149.5 110.5t191.5 28.5t179.5 -64q45 -33 36.5 -53.5t-41 -30.5 t-75.5 -12.5t-64 4.5q-41 8 -83 4t-77.5 -21.5t-58 -48.5t-22.5 -76q-4 -70 20.5 -110.5t64.5 -57t91 -11.5t100 28q14 6 40 18t53.5 22.5t51 14.5t33.5 -6q25 -29 -10 -79t-98.5 -94t-140.5 -68.5t-136 -6.5z" />
<glyph unicode="&#xaa;" horiz-adv-x="892" d="M512 1186q-18 -49 -45 -94t-64.5 -71t-86 -24t-107.5 52q-49 37 -86 90t-49.5 109.5t5 111.5t77.5 98q86 70 183 65t218 -87q14 -8 27.5 -7t23.5 1t16.5 -5.5t10.5 -25.5q4 -35 9 -70t13 -69q6 -53 21.5 -79t34 -39.5t39 -19.5t34.5 -20q-18 -35 -49.5 -68t-79.5 -37 q-23 -4 -47 9.5t-44.5 39t-36 61.5t-17.5 79zM457 1358q-29 12 -52.5 27.5t-46 24.5t-46 8t-48.5 -23q-39 -35 -47 -84t29 -94q33 -41 74.5 -34t77.5 39.5t55.5 80t11.5 88.5q-14 6 -17.5 -0.5t-1 -14.5t6.5 -15t4 -3z" />
<glyph unicode="&#xab;" horiz-adv-x="901" d="M559 555q37 -18 98.5 -49t117.5 -73t90 -91t14 -102q-6 -16 -31 -10t-59.5 26t-74.5 48t-78 54.5t-67.5 46t-44.5 23.5q-55 20 -82.5 54t-30.5 73t18.5 79t64.5 71q53 41 114.5 78.5t120.5 66.5q10 8 48 18.5t74 12.5t55.5 -12.5t-7.5 -55.5q-10 0 -53 -26.5t-96.5 -65.5 t-106.5 -84t-84 -82zM651 866q-16 -6 -57 -30.5t-92 -58.5t-104.5 -73.5t-93.5 -76.5t-60.5 -68t-5.5 -45q23 -25 55.5 -45t67 -38.5t68.5 -40t60 -50.5q27 -20 60 -57t41 -78q4 -18 -3 -33.5t-20.5 -25t-30 -10.5t-28.5 11q-25 23 -71 59t-99 79t-105.5 90t-90.5 92t-53 84 t5 63q31 33 66 74t84 85t117.5 88t164.5 81q16 2 45 -1t53.5 -12t36 -24.5t-9.5 -38.5q-10 -4 -8 0t6 7.5t7 3t-5 -10.5z" />
<glyph unicode="&#xac;" d="M813 264q-29 45 -41 102.5t-24.5 106.5t-36 83t-76.5 34q-10 0 -67.5 4t-133.5 12t-154.5 23.5t-134 38t-72 52.5t32.5 71q31 25 89.5 38t130 17t148.5 1t143.5 -9.5t114.5 -14.5t65 -12q45 0 75.5 -20.5t52 -52t34 -70.5t18.5 -78q0 -98 -19.5 -173t-46 -118 t-54.5 -53.5t-44 18.5z" />
<glyph unicode="&#xad;" horiz-adv-x="980" d="M668 717q41 -10 90 -28.5t84 -35.5q27 -16 36 -38.5t2.5 -45t-24.5 -38t-45 -15.5q-115 -10 -206 -19.5t-204 -21.5q-63 -4 -107 10.5t-104 38.5q-27 18 -35 42t-3.5 46.5t15.5 40t23 23.5q14 10 79 20.5t144 16.5t151.5 8t103.5 -4z" />
<glyph unicode="&#xae;" horiz-adv-x="1431" d="M1006 1313q6 2 27.5 11t62.5 2t100 -43t139 -124q49 -51 63.5 -120.5t9.5 -143.5t-21.5 -147.5t-30.5 -135.5q-35 -160 -110 -285.5t-183.5 -203.5t-249.5 -99.5t-311 27.5q-137 51 -239.5 153.5t-161 232.5t-68.5 276.5t39 285.5q23 59 54.5 122t73.5 117t96 95t120 60 q76 23 149.5 15.5t147 -26t146.5 -40t147 -29.5q6 0 -9.5 2t-27 3t-8 1t44.5 -6zM1262 956q-8 49 -41 81t-71 59.5t-73 58.5t-49 78q-111 49 -238.5 88t-250.5 29q-115 -10 -192 -71.5t-122 -150t-62.5 -190.5t-10.5 -195q6 -121 51 -231.5t122.5 -194.5t182 -133t227.5 -47 q90 0 166 40t136.5 106.5t106.5 151.5t73.5 176t39 181.5t5.5 163.5q-2 16 -1 11.5t2 -18t2 -29t2 -21.5t0 5t-5 52zM803 481q-78 55 -150.5 114.5t-150.5 119.5q-8 -29 2 -67t26.5 -78t30.5 -76.5t18.5 -65.5t-11 -44t-58.5 -11q-45 4 -71.5 51t-39 117.5t-8.5 156.5 t23.5 170t54.5 158t84 119q43 43 98.5 40t104.5 -34t82.5 -81t35.5 -99q6 -43 -8 -86t-44.5 -78t-77 -59.5t-103.5 -32.5q12 -27 46 -47.5t76 -41t86 -41t78 -43t51 -50t7 -62.5q-12 -25 -37.5 -22.5t-54.5 15.5t-54.5 31.5t-35.5 26.5zM618 1059q-35 -18 -55 -58 t-31.5 -86.5t-15.5 -94.5t-6 -83q45 27 68.5 37t62.5 21q39 6 70.5 24.5t54.5 63.5q8 23 2 59.5t-24.5 69t-50.5 49t-75 -1.5z" />
<glyph unicode="&#xb0;" horiz-adv-x="636" d="M565 1130q-27 -57 -77 -102t-109.5 -59.5t-121.5 12.5t-112 115q-51 76 -51 169t51 171q12 25 32 43t41.5 30.5t43 18.5t33.5 6q94 0 160.5 -42t101.5 -103.5t37 -131.5t-29 -127zM416 1130q49 37 58 100.5t-12.5 114t-65.5 69t-101 -31.5q-25 -16 -35 -47.5t-8 -68.5 t14.5 -72t35 -57.5t51 -28t63.5 21.5z" />
<glyph unicode="&#xb1;" horiz-adv-x="999" d="M539 98q-37 -2 -98.5 -6t-126 -1t-120 16.5t-79.5 48.5q-6 35 47 59.5t136 36.5t181.5 15t184.5 -2t143 -18.5t59 -33.5q23 -66 -60 -88.5t-267 -26.5zM84 739q4 31 33.5 43.5t71.5 16.5t91.5 2t94.5 0q2 16 6 67.5t-2 114.5q-4 76 34 100.5t84 5t86 -82t40 -160.5 q-2 -20 20.5 -26.5t58 -8.5t76.5 -1t77 -4t57.5 -19.5t17.5 -43.5q-4 -31 -25.5 -47t-52.5 -23t-66.5 -10.5t-66.5 -4.5t-54.5 -4t-29.5 -11q-8 0 -15.5 -1t-11.5 -16.5t-3 -48t7 -94.5q-6 -43 -19 -80.5t-61 -48.5q-61 -6 -88.5 29t-38 84t-9.5 98t-3 72q-47 -2 -105.5 -2 t-108.5 9t-79.5 30.5t-15.5 64.5z" />
<glyph unicode="&#xb2;" horiz-adv-x="458" d="M98 1063q-45 -6 -64.5 12.5t-20.5 48t15.5 61.5t41.5 52q20 16 42.5 37.5t41 46.5t29 52.5t10.5 56.5q0 23 -14.5 28.5t-31 -2.5t-30 -25.5t-13.5 -41.5q-14 -12 -27.5 13t-8 59t36 58.5t106.5 10.5q68 -23 83 -67t-4.5 -96t-65.5 -103.5t-101 -87.5q51 0 87 1t83 -14 q14 -4 36.5 -14t36 -24.5t13.5 -30t-27 -29.5q-6 -4 -32.5 -2t-63.5 4t-79 2t-79 -6z" />
<glyph unicode="&#xb3;" horiz-adv-x="380" d="M330 1147q0 -45 -31 -62.5t-70 -27.5q-12 0 -38.5 1t-54 7t-51.5 18.5t-28 34.5q-8 25 4.5 36t34 13t48 0t51 -4t43 0t20.5 15q0 10 -25.5 28.5t-54 39t-49 42t-10.5 39.5q12 14 43 24.5t64.5 19.5t60 19.5t30.5 26.5q4 33 -7 45.5t-32.5 14.5t-49 -3.5t-52 -9.5t-44 -3 t-23.5 16q-14 33 11 48t64 18t79 -3t54 -14q53 -37 51.5 -73t-30.5 -66.5t-69 -58.5t-62 -50q4 -4 24.5 -14.5t42 -25.5t39 -37.5t17.5 -53.5z" />
<glyph unicode="&#xb4;" horiz-adv-x="882" d="M383 1470q33 23 77 41.5t87 24.5t83 -3t68 -44q18 -25 -9 -65t-80.5 -84t-123 -86t-135 -70.5t-117 -38.5t-67.5 8q-23 27 2 75t68 99t87 92t60 51z" />
<glyph unicode="&#xb5;" horiz-adv-x="1273" d="M346 913q6 -53 6 -110.5t-1 -114.5t-1 -113.5t8 -109.5q0 -18 8.5 -52t24 -73t37 -76t47 -60.5t54 -27.5t59.5 25q55 33 92 87t60.5 118.5t34.5 133t13 130.5q-6 51 8.5 103t40 93t56.5 66.5t58.5 25.5t48 -30.5t24.5 -100.5q8 -61 4 -151t-5 -185.5t9 -183.5t47 -143 q16 -27 47 -35t64 -7t65.5 6t53 5t24.5 -8t-16 -33q-45 -53 -100.5 -80.5t-112.5 -33t-110.5 13t-93.5 60.5t-60.5 107.5t-12.5 153.5q-29 -78 -72.5 -150.5t-104 -113.5t-141.5 -37t-183 78q-2 -72 4 -158t15 -173t18.5 -167.5t15.5 -140.5q8 -88 -21.5 -128t-71.5 -35 t-84 53.5t-57 138.5q-29 215 -38 441t14 456q0 45 -5 119.5t-10.5 156.5t-6.5 160t10 131q10 16 45.5 38t75.5 27t74 -14t42 -82z" />
<glyph unicode="&#xb7;" horiz-adv-x="940" d="M518 764q27 0 51.5 -15.5t41 -39t20.5 -52t-10 -53.5q-18 -33 -59.5 -60.5t-84.5 -32.5t-80 21.5t-47 100.5q-6 41 12.5 63.5t47 34.5t59.5 18.5t49 14.5z" />
<glyph unicode="&#xb8;" horiz-adv-x="802" d="M371 -432q16 10 47 10t59.5 1t46 13.5t4.5 47.5q-16 51 -45.5 55t-60.5 -3t-57.5 -12.5t-38.5 27.5q-14 37 -28.5 76t-23 80t-7.5 87t20 99q43 10 66.5 -25.5t35.5 -88t17.5 -104.5t15.5 -75q43 12 93 12.5t91 -17t65.5 -57.5t18.5 -108q2 -55 -44 -85.5t-104.5 -35 t-110.5 20.5t-60 82q8 6 8 4t-2 -5t-5 -4t-1 5z" />
<glyph unicode="&#xb9;" horiz-adv-x="487" d="M379 1110q41 -10 62.5 -28.5t19.5 -36t-25.5 -26.5t-73.5 -3q-25 0 -65.5 -1t-80.5 1t-69.5 12t-29.5 35q0 12 19.5 24.5t46 21.5t51 12t36.5 1q6 49 7.5 97.5t-1.5 97.5q-18 -6 -30.5 -20.5t-25.5 -29t-27.5 -26.5t-34.5 -16q-4 -2 -23.5 2t-38 13t-29 25.5t0.5 39.5 q35 12 64.5 38.5t59 58.5t58.5 62.5t61 51.5q20 0 33.5 -30t20 -75t8.5 -97t2 -97.5v-76t4 -30.5z" />
<glyph unicode="&#xba;" horiz-adv-x="813" d="M666 1049q-31 -70 -91.5 -125.5t-133 -71.5t-147.5 15.5t-134 138.5q-61 92 -61.5 203.5t61.5 205.5q14 31 37.5 52.5t50 37t51.5 22.5t41 7q115 0 193.5 -50t120.5 -124t45.5 -158.5t-33.5 -152.5zM485 1049q39 31 57.5 75.5t17.5 92t-18.5 89.5t-47 65.5t-69.5 21.5 t-85 -41q-31 -20 -43 -59.5t-10 -83.5t18.5 -86t42 -69.5t61 -31.5t76.5 27z" />
<glyph unicode="&#xbb;" d="M678 397q29 41 79 83t77 87q16 37 13 55.5t-18.5 30t-40 19.5t-53.5 22q-78 37 -149.5 77t-141.5 93q-39 31 -46 49.5t5.5 25.5t40 7t59.5 -6t61.5 -16.5t47.5 -20.5q25 -14 67 -32.5t90 -42t96 -50t85 -58.5t55.5 -67t6.5 -73q-8 -29 -38 -75t-71 -98.5t-88 -105.5 t-91 -94t-79 -64.5t-51 -15.5q-23 10 -18.5 45t21.5 77t40 83.5t41 64.5zM418 614q-12 14 -46 34t-76 42.5t-87 48t-81 52t-56.5 53t-14.5 53.5q23 10 72 2t110.5 -29.5t128 -53.5t121 -66.5t89 -68.5t34.5 -63q0 -31 -25.5 -81t-66.5 -106t-92 -111.5t-102.5 -96.5 t-96.5 -59.5t-75 -1.5q-29 16 -29 46t19.5 69.5t53 85t73.5 90.5t79 86.5t68 74.5z" />
<glyph unicode="&#xbc;" horiz-adv-x="1411" d="M1249 268q0 -43 2 -62.5t0 -32.5t-9 -32.5t-25 -62.5q-35 -66 -71 -68t-64.5 30t-49 84t-22.5 95q-16 -6 -68.5 -18.5t-116 -12.5t-127 21.5t-100.5 83.5q-29 49 -26 98t27 94t62.5 87t81.5 79t84 68t68 53q51 37 105.5 83t117.5 58q49 10 74 0t33 -30.5t3 -49t-15.5 -54 t-21.5 -47t-15 -27.5q-6 -23 -4 -62t7 -79t11 -68.5t10 -28.5q8 -16 35 -16t56.5 1t58 -5.5t41.5 -30.5q12 -25 0.5 -47.5t-34 -42t-53 -35t-55.5 -23.5zM737 350q29 -2 74 2t86 10.5t69.5 12.5t26.5 8q-6 25 -7 74t-1 166q0 -6 -37 -41t-81 -79t-84 -87t-46 -66zM217 260 q-49 -37 -83 -13.5t-40 79.5q-6 47 13.5 103t49 112.5t63.5 107.5t56 88q61 100 123 194.5t117 194.5q12 18 32.5 67.5t46.5 92.5t53.5 59.5t56.5 -28.5q27 -41 25.5 -99.5t-20 -123t-51 -134t-68.5 -132t-70 -117t-56 -88.5q-25 -37 -65 -83t-77.5 -95.5t-68.5 -97.5 t-37 -87q-6 -6 -7 -5t1 4t4 5t2 -4zM276 1102q-2 -14 -8 -42t-16 -56.5t-22.5 -53t-29 -35t-35 -1t-38.5 48.5q-12 23 -19.5 63.5t-9.5 87.5t1 97.5t13.5 91t26 67.5t37.5 29q31 2 51.5 -27t32.5 -75t15 -99t1 -96z" />
<glyph unicode="&#xbd;" horiz-adv-x="1263" d="M752 -27q-86 0 -122 37t-37 89.5t27.5 106.5t75.5 91q41 31 90.5 57.5t92.5 65.5t71.5 99.5t28.5 160.5q0 43 -34 48t-75 -13.5t-74.5 -55t-33.5 -81.5q-20 -10 -38.5 11t-28 57t-4.5 78t35 74.5t86 48t151 -2.5q102 -20 145 -67.5t42 -110t-39 -136t-96.5 -146.5 t-130 -137.5t-141.5 -109.5q47 0 94.5 8.5t93.5 16.5t92 10t89 -10q27 -10 67 -29.5t66.5 -44.5t27.5 -53.5t-48 -54.5q-39 8 -94.5 9t-119 -3t-131 -8.5t-128.5 -4.5zM248 270q-57 2 -74.5 54.5t-4.5 137.5t52 191.5t93.5 215t120 209t133 173t132 108.5t115.5 13 q27 -33 15.5 -88t-46 -121.5t-85 -138.5t-99.5 -137.5t-90 -120.5t-55 -86q-14 -29 -39 -91.5t-54.5 -128t-59.5 -120.5t-54 -70q-12 0 -11 3t6 4.5t8 0t-3 -7.5zM53 1159q-6 49 -16 88t-11 70t14 56.5t60 51.5q20 -12 32.5 -29.5t21 -40t16.5 -46t23 -47.5q6 -18 9 -84 t0 -138.5t-12.5 -130t-25.5 -57.5q-59 2 -83 37t-29 82t-1 99t2 89z" />
<glyph unicode="&#xbe;" horiz-adv-x="1216" d="M1067 252q0 -88 -5 -143.5t-34 -75.5q-33 -37 -56.5 -31t-40 36t-25.5 76t-11 89q-16 -6 -67.5 -14.5t-113 -6.5t-118.5 18.5t-84 57.5q-25 37 1 101.5t74 134t105.5 133t98.5 98.5q29 27 58.5 55.5t59 52t61 36t64.5 5.5q41 -8 49.5 -34.5t1 -57t-22.5 -57.5t-22 -37 q-6 -23 -8 -68t0 -90t4 -79.5t6 -34.5h21.5t46.5 -3t52.5 -15.5t37.5 -37.5t2 -41t-31.5 -28t-50 -21.5t-53.5 -17.5zM700 362q29 -2 62 -3t59.5 0t43 3.5t14.5 4.5q-6 25 -7.5 73.5t-1.5 165.5q0 -6 -24.5 -36.5t-54 -68.5t-57.5 -77t-34 -62zM274 211q-49 -37 -82.5 -13.5 t-39.5 78.5q-6 47 13 103.5t49 113t63.5 107.5t56.5 88q61 100 122.5 194.5t116.5 194.5q8 14 19.5 43t27 60.5t33 60.5t35 45.5t36.5 14t38 -32.5q27 -41 22.5 -99.5t-28 -123t-61.5 -134t-77.5 -132t-76.5 -117t-60 -89.5q-25 -37 -57.5 -83t-64 -95t-55 -97t-30.5 -87 q-6 -6 -7 -5t1 4t4 5t2 -4zM420 936q0 -31 -15.5 -52.5t-39 -35.5t-51 -21.5t-54.5 -13.5q-14 0 -50 1t-75 9t-69.5 24.5t-36.5 47.5q-10 33 5 48t45 18.5t67.5 -1t71.5 -6.5t58.5 1t28.5 22q0 16 -36 40.5t-75.5 52.5t-68.5 57.5t-14 56.5q14 20 40.5 24t55.5 8.5 t57.5 18.5t48.5 57q6 43 -5 62.5t-32.5 22.5t-49 -2t-54.5 -9t-48.5 -1t-27.5 24q-20 45 13.5 67.5t89 26.5t116 -5.5t93.5 -25.5q41 -20 60 -50t21.5 -62.5t-14 -65.5t-49.5 -57q-20 -16 -43 -24.5t-45.5 -16t-40.5 -14.5t-31 -19q4 -6 30 -19.5t55.5 -38t51 -61.5 t17.5 -88z" />
<glyph unicode="&#xbf;" d="M1102 -37q0 -45 -41 -97t-96.5 -101.5t-113.5 -87t-93 -54.5q-86 -37 -192.5 -31.5t-208 42t-183.5 100t-117 143.5q-51 106 -41.5 207.5t58.5 188.5t128 157t167 113q45 18 88 31.5t90 19.5q55 6 75.5 23.5t21.5 44t-9 63.5t-12 80q-4 39 5 84t30.5 84t58.5 65.5 t90 26.5q18 -6 34.5 -42t30 -87t23.5 -112.5t17.5 -117t12.5 -100.5l7 -63q2 -41 -17.5 -60.5t-53.5 -29t-78 -10.5t-89 -4t-86 -11t-69 -29q-102 -70 -151.5 -156.5t-48.5 -171.5t51 -156t149 -105q68 -25 129 -18t115.5 30.5t102.5 55.5t88 57.5t71.5 37t56.5 -9.5 q18 -14 19 -15t-4 4t-12 9t-3 2zM680 1403q55 25 91 8.5t49.5 -50.5t5 -70t-43.5 -48q-70 -29 -109.5 -14.5t-52 46.5t3 71t56.5 57z" />
<glyph unicode="&#xc0;" horiz-adv-x="1185" d="M1040 -145q-45 -8 -59 28.5t-27 96.5q-18 74 -35.5 182t-64.5 225q-8 16 -72.5 6t-165.5 -10q-29 2 -58.5 0t-54 -6t-39.5 -7t-15 -5q-4 -35 -9.5 -99.5t-24 -127t-55 -106.5t-100.5 -38q-29 2 -40 55t-15 121t-2 129t2 80q-102 14 -138 35.5t-24 44t61.5 43t120.5 33.5 q8 66 17.5 155.5t30 182t56.5 174t95 131.5q31 25 81 21.5t104.5 -31t105.5 -80t86 -123.5q23 -41 47 -97.5t47 -115t42 -109.5t30 -78q2 -16 36.5 -17t74.5 1t71 0t25 -23q-2 -14 -31 -31.5t-64 -31.5t-63.5 -24.5t-28.5 -12.5q23 -117 45.5 -217t34.5 -176t8 -123t-35 -55 zM524 1026q-27 -18 -40 -77.5t-17 -132.5t-4 -146.5t-2 -122.5q12 -4 67.5 -5t116 0t108.5 5t48 10q-2 25 -18.5 73t-41 104.5t-54.5 113.5t-59.5 101t-57.5 66.5t-46 10.5zM483 1352q-23 14 -52.5 38.5t-53 53.5t-34.5 55.5t3 44.5q10 12 41 10t70 -13t81 -31.5t75.5 -47 t53 -57.5t15.5 -62q-10 -25 -33.5 -31.5t-53.5 -2.5t-61 17.5t-51 25.5z" />
<glyph unicode="&#xc1;" horiz-adv-x="1085" d="M1040 -145q-45 -8 -59 28.5t-27 96.5q-18 74 -35.5 182t-64.5 225q-8 16 -72.5 6t-165.5 -10q-29 2 -58.5 0t-54 -6t-39.5 -7t-15 -5q-4 -35 -9.5 -99.5t-24 -127t-55 -106.5t-100.5 -38q-29 2 -40 55t-15 121t-2 129t2 80q-102 14 -138 35.5t-24 44t61.5 43t120.5 33.5 q8 66 17.5 155.5t30 182t56.5 174t95 131.5q31 25 81 21.5t104.5 -31t105.5 -80t86 -123.5q23 -41 47 -97.5t47 -115t42 -109.5t30 -78q2 -16 36.5 -17t74.5 1t71 0t25 -23q-2 -14 -31 -31.5t-64 -31.5t-63.5 -24.5t-28.5 -12.5q23 -117 45.5 -217t34.5 -176t8 -123t-35 -55 zM524 1026q-27 -18 -40 -77.5t-17 -132.5t-4 -146.5t-2 -122.5q12 -4 67.5 -5t116 0t108.5 5t48 10q-2 25 -18.5 73t-41 104.5t-54.5 113.5t-59.5 101t-57.5 66.5t-46 10.5zM539 1350q-23 -16 -56.5 -35t-68.5 -30t-65 -11t-40 18q-10 20 20.5 69.5t82 95.5t109 72.5 t97.5 2.5q20 -18 17.5 -44t-18 -51.5t-38 -49t-40.5 -37.5z" />
<glyph unicode="&#xc2;" horiz-adv-x="1187" d="M1040 -145q-45 -8 -59 28.5t-27 96.5q-18 74 -35.5 182t-64.5 225q-8 16 -72.5 6t-165.5 -10q-29 2 -58.5 0t-54 -6t-39.5 -7t-15 -5q-4 -35 -9.5 -99.5t-24 -127t-55 -106.5t-100.5 -38q-29 2 -40 55t-15 121t-2 129t2 80q-102 14 -138 35.5t-24 44t61.5 43t120.5 33.5 q8 66 17.5 155.5t30 182t56.5 174t95 131.5q31 25 81 21.5t104.5 -31t105.5 -80t86 -123.5q23 -41 47 -97.5t47 -115t42 -109.5t30 -78q2 -16 36.5 -17t74.5 1t71 0t25 -23q-2 -14 -31 -31.5t-64 -31.5t-63.5 -24.5t-28.5 -12.5q23 -117 45.5 -217t34.5 -176t8 -123t-35 -55 zM524 1026q-27 -18 -40 -77.5t-17 -132.5t-4 -146.5t-2 -122.5q12 -4 67.5 -5t116 0t108.5 5t48 10q-2 25 -18.5 73t-41 104.5t-54.5 113.5t-59.5 101t-57.5 66.5t-46 10.5zM502 1386q-25 -29 -42.5 -54t-33.5 -43.5t-35.5 -30t-46.5 -13.5q-27 -4 -30 22.5t6.5 63.5 t24.5 74t26 55q18 43 35.5 66.5t40 31t51 -1t69.5 -28.5q29 -16 70 -57t73.5 -87.5t47 -87.5t-9.5 -57q-25 -16 -57 0t-65.5 45t-65 59.5t-58.5 42.5z" />
<glyph unicode="&#xc3;" horiz-adv-x="1185" d="M1040 -145q-45 -8 -59 28.5t-27 96.5q-18 74 -35.5 182t-64.5 225q-8 16 -72.5 6t-165.5 -10q-29 2 -58.5 0t-54 -6t-39.5 -7t-15 -5q-4 -35 -9.5 -99.5t-24 -127t-55 -106.5t-100.5 -38q-29 2 -40 55t-15 121t-2 129t2 80q-102 14 -138 35.5t-24 44t61.5 43t120.5 33.5 q8 66 17.5 155.5t30 182t56.5 174t95 131.5q31 25 81 21.5t104.5 -31t105.5 -80t86 -123.5q23 -41 47 -97.5t47 -115t42 -109.5t30 -78q2 -16 36.5 -17t74.5 1t71 0t25 -23q-2 -14 -31 -31.5t-64 -31.5t-63.5 -24.5t-28.5 -12.5q23 -117 45.5 -217t34.5 -176t8 -123t-35 -55 zM524 1026q-27 -18 -40 -77.5t-17 -132.5t-4 -146.5t-2 -122.5q12 -4 67.5 -5t116 0t108.5 5t48 10q-2 25 -18.5 73t-41 104.5t-54.5 113.5t-59.5 101t-57.5 66.5t-46 10.5zM545 1356q-18 25 -28.5 39t-19 22t-15.5 11.5t-21 3.5q-29 0 -40 -13.5t-15 -36.5q-6 -25 -29 -38 t-45 -5q-27 10 -32 34t-1 42q2 20 13.5 46t30.5 48.5t45 39t56 16.5q37 0 59.5 -6.5t40 -18.5t33 -30.5t39.5 -45.5q23 -25 42.5 -23.5t35 13.5t27.5 28.5t20 20.5q16 -18 22.5 -47t-7.5 -78q-6 -27 -19.5 -45t-48.5 -28q-45 -14 -80.5 1t-62.5 50z" />
<glyph unicode="&#xc4;" horiz-adv-x="1187" d="M1040 -145q-45 -8 -59 28.5t-27 96.5q-18 74 -35.5 182t-64.5 225q-8 16 -72.5 6t-165.5 -10q-29 2 -58.5 0t-54 -6t-39.5 -7t-15 -5q-4 -35 -9.5 -99.5t-24 -127t-55 -106.5t-100.5 -38q-29 2 -40 55t-15 121t-2 129t2 80q-102 14 -138 35.5t-24 44t61.5 43t120.5 33.5 q8 66 17.5 155.5t30 182t56.5 174t95 131.5q31 25 81 21.5t104.5 -31t105.5 -80t86 -123.5q23 -41 47 -97.5t47 -115t42 -109.5t30 -78q2 -16 36.5 -17t74.5 1t71 0t25 -23q-2 -14 -31 -31.5t-64 -31.5t-63.5 -24.5t-28.5 -12.5q23 -117 45.5 -217t34.5 -176t8 -123t-35 -55 zM524 1026q-27 -18 -40 -77.5t-17 -132.5t-4 -146.5t-2 -122.5q12 -4 67.5 -5t116 0t108.5 5t48 10q-2 25 -18.5 73t-41 104.5t-54.5 113.5t-59.5 101t-57.5 66.5t-46 10.5zM641 1499q18 39 47 41t53.5 -18.5t37 -54t-2.5 -62.5q-20 -41 -44.5 -42t-46 20.5t-35 55.5 t-9.5 60q2 10 1 0t-3 -21l-2 -10zM254 1518q35 31 67.5 30.5t55.5 -49.5q8 -12 24.5 -26.5t33 -30t27.5 -31.5t9 -35q-8 -37 -31.5 -52t-54.5 -13t-62.5 18.5t-53 45t-27.5 65.5t12 78q4 4 -2 -9.5t-12.5 -23.5t-5 -7t19.5 40z" />
<glyph unicode="&#xc5;" horiz-adv-x="1175" d="M678 1270q-23 -47 -64 -82q53 -29 102.5 -83t84.5 -140q23 -41 47 -97.5t47 -115t42 -109.5t30 -78q2 -16 36.5 -17t74.5 1t71 0t25 -23q-2 -14 -31 -31.5t-64 -31.5t-63.5 -24.5t-28.5 -12.5q23 -117 45.5 -217t34.5 -176t8 -123t-35 -55q-45 -8 -59 28.5t-27 96.5 q-18 74 -35.5 182t-64.5 225q-8 16 -69.5 8t-163.5 -18q-70 -2 -121 -5t-51 -7q-4 -35 -9.5 -99.5t-24 -127t-55 -106.5t-100.5 -38q-29 2 -40 55t-15 121t-2 129t2 80q-102 14 -138 35.5t-24 44t61.5 43t120.5 33.5q8 66 17.5 157.5t30 187t55 180.5t92.5 134 q-23 23 -39 53q-35 51 -35 117t35 121q16 35 53 52t53 17q68 0 114 -29.5t70.5 -72.5t27 -93t-20.5 -89zM524 1026q-27 -18 -40 -77.5t-17 -132.5t-4 -146.5t-2 -122.5q12 -4 67.5 -5t116 0t108.5 5t48 10q-2 25 -18.5 73t-41 104.5t-54.5 113.5t-59.5 101t-57.5 66.5 t-46 10.5zM573 1270q35 27 41.5 70.5t-9 79.5t-47.5 49.5t-71 -21.5q-27 -18 -30.5 -58t10.5 -76t41.5 -53.5t64.5 9.5z" />
<glyph unicode="&#xc6;" horiz-adv-x="1519" d="M360 201q-12 -33 -37.5 -79t-58.5 -82t-68.5 -46t-68.5 31q-14 18 -13 63t12 102.5t27.5 121t32 122t26.5 105.5t11 69q0 8 -35.5 13.5t-78.5 11.5t-77 17.5t-28 31.5q10 43 44 62.5t76 26.5t83 6t63 1q8 0 24.5 32t36 77t40 95t37.5 89q31 72 68.5 144.5t90.5 132.5 q66 78 121 67.5t131 -100.5q4 -6 49 -1t108.5 14t137.5 20.5t138.5 16.5t107.5 1t47 -23q6 -23 -41 -45t-109.5 -42.5t-126 -35t-92.5 -20.5q-53 -10 -71.5 -57t-19.5 -109.5t7.5 -131t8.5 -120.5q0 -2 25.5 0t65.5 3t86 -1t87 -10q23 -6 49.5 -4t53 3t52 0t48.5 -9 q-12 -39 -49.5 -64.5t-87.5 -42t-105 -25.5t-101.5 -14.5t-76 -9.5t-29.5 -10q0 -51 -1 -113.5t2 -119t12.5 -98.5t27.5 -52q68 -41 130 -34t121.5 25.5t119 27t118.5 -32.5q6 -6 1 -24.5t-14 -39t-20.5 -38t-17.5 -21.5q-41 -35 -82 -48.5t-83 -16.5t-87 2t-94 10 q-49 6 -110.5 14t-117 27.5t-94 55.5t-44.5 97q-2 18 -6.5 75.5t-8.5 121t-8 117t-6 65.5q-2 8 -25.5 12t-57.5 3t-71 -4t-67 -5q-4 0 -19.5 -46t-37 -109.5t-44.5 -133t-37 -114.5zM696 1149q-27 -18 -48 -65.5t-37.5 -102.5t-30 -107.5t-21.5 -80.5q25 2 50.5 -1.5 t48 -3.5t41 5.5t30.5 21.5q6 10 6 38t-3 63.5t-8 75.5t-10 74t-10.5 56.5t-7.5 26.5z" />
<glyph unicode="&#xc7;" d="M571 -406q18 8 47 11.5t55.5 14.5t44 32.5t13.5 66.5q-6 35 -21.5 49.5t-37 16.5t-44 -1t-43 -5t-35.5 4t-20 29q-6 29 -15 51t-15 44.5t-8.5 47.5t4.5 57q-137 29 -237.5 125t-162.5 234q-43 96 -56 221t4 251t65.5 236.5t132.5 177.5q88 70 178 91.5t174 12.5 t155.5 -42t120.5 -70q14 -10 50 -36.5t60 -56.5t18.5 -52.5t-70.5 -24.5q-45 -2 -86 6.5t-82 19.5t-82 20.5t-86 9.5q-236 0 -291 -322q-12 -74 -22.5 -181.5t0 -210t51.5 -176t131 -79.5q55 -4 111.5 15.5t109.5 50t101 67.5t87 72q6 6 32 37.5t58.5 60.5t61.5 43t41 -12 q6 -12 1 -53t-14.5 -87.5t-19.5 -86.5t-16 -48q-41 -53 -92.5 -104t-116.5 -78q-86 -35 -172 -37q8 -57 5 -93t3 -63q45 4 94 -3t88 -29.5t57.5 -65.5t2.5 -108q-6 -55 -55.5 -92t-106.5 -46.5t-103.5 10t-46.5 78.5z" />
<glyph unicode="&#xc8;" horiz-adv-x="847" d="M350 1485q-20 12 -45.5 33.5t-45 45t-30 47t1.5 38.5q12 14 61.5 5t101.5 -35t91 -62.5t33 -77.5q-8 -23 -28.5 -29t-45 -2t-50.5 15.5t-44 21.5zM778 260q18 -12 10 -43t-35.5 -66.5t-70.5 -68.5t-94 -51q-45 -16 -93.5 -28.5t-100.5 -14.5t-108.5 9t-113.5 42 q-82 41 -125 95t-57.5 114.5t-2 123t40 122t69.5 111.5t87 93q-100 45 -140 113t-36 144.5t43 152.5t96.5 135.5t124 96t125.5 32.5q55 -4 113.5 -26.5t103.5 -53t66.5 -61.5t1.5 -49q-12 -10 -36.5 0t-64.5 25.5t-92.5 27.5t-119.5 10q-98 -6 -141.5 -70.5t-49.5 -164.5 q-4 -61 13.5 -105.5t41 -70t45 -36t25.5 -5.5q68 55 144.5 91t144 44t116 -13.5t58.5 -80.5q-2 -31 -30.5 -57.5t-70.5 -47t-92.5 -37t-94.5 -28t-73.5 -18.5t-31.5 -9q-47 -35 -95.5 -80t-70.5 -115q-20 -63 -1 -112t67.5 -81t118 -42t149.5 6q27 4 60.5 16.5t67 23.5 t62.5 15t47 -8zM631 825q-45 29 -87 4.5t-95 -73.5q25 2 59.5 10t65 19.5t49 22.5t8.5 17z" />
<glyph unicode="&#xc9;" horiz-adv-x="843" d="M479 1495q-18 -14 -45.5 -29.5t-57.5 -24.5t-53.5 -9t-31.5 16q-10 16 16.5 57t67.5 79t89 60.5t83 2.5q16 -16 13 -37t-15.5 -42.5t-31 -41t-34.5 -31.5zM778 260q18 -12 10 -43t-35.5 -66.5t-70.5 -68.5t-94 -51q-45 -16 -93.5 -28.5t-100.5 -14.5t-108.5 9t-113.5 42 q-82 41 -125 95t-57.5 114.5t-2 123t40 122t69.5 111.5t87 93q-100 45 -140 113t-36 144.5t43 152.5t96.5 135.5t124 96t125.5 32.5q55 -4 113.5 -26.5t103.5 -53t66.5 -61.5t1.5 -49q-12 -10 -36.5 0t-64.5 25.5t-92.5 27.5t-119.5 10q-98 -6 -141.5 -70.5t-49.5 -164.5 q-4 -61 13.5 -105.5t41 -70t45 -36t25.5 -5.5q68 55 144.5 91t144 44t116 -13.5t58.5 -80.5q-2 -31 -30.5 -57.5t-70.5 -47t-92.5 -37t-94.5 -28t-73.5 -18.5t-31.5 -9q-47 -35 -95.5 -80t-70.5 -115q-20 -63 -1 -112t67.5 -81t118 -42t149.5 6q27 4 60.5 16.5t67 23.5 t62.5 15t47 -8zM631 825q-45 29 -87 4.5t-95 -73.5q25 2 59.5 10t65 19.5t49 22.5t8.5 17z" />
<glyph unicode="&#xca;" horiz-adv-x="847" d="M362 1534q-37 -41 -62.5 -74t-66.5 -37q-23 8 -26.5 30t3.5 45.5t21.5 47t30.5 39.5q20 25 34.5 41t30 22.5t35 2.5t50.5 -19q20 -10 52 -38.5t56.5 -61.5t35.5 -61.5t-7 -38.5t-43 1t-49.5 30.5t-49.5 41t-45 29.5zM778 260q18 -12 10 -43t-35.5 -66.5t-70.5 -68.5 t-94 -51q-45 -16 -93.5 -28.5t-100.5 -14.5t-108.5 9t-113.5 42q-82 41 -125 95t-57.5 114.5t-2 123t40 122t69.5 111.5t87 93q-100 45 -140 113t-36 144.5t43 152.5t96.5 135.5t124 96t125.5 32.5q55 -4 113.5 -26.5t103.5 -53t66.5 -61.5t1.5 -49q-12 -10 -36.5 0 t-64.5 25.5t-92.5 27.5t-119.5 10q-98 -6 -141.5 -70.5t-49.5 -164.5q-4 -61 13.5 -105.5t41 -70t45 -36t25.5 -5.5q68 55 144.5 91t144 44t116 -13.5t58.5 -80.5q-2 -31 -30.5 -57.5t-70.5 -47t-92.5 -37t-94.5 -28t-73.5 -18.5t-31.5 -9q-47 -35 -95.5 -80t-70.5 -115 q-20 -63 -1 -112t67.5 -81t118 -42t149.5 6q27 4 60.5 16.5t67 23.5t62.5 15t47 -8zM631 825q-45 29 -87 4.5t-95 -73.5q25 2 59.5 10t65 19.5t49 22.5t8.5 17z" />
<glyph unicode="&#xcb;" horiz-adv-x="847" d="M778 260q18 -12 10 -43t-35.5 -66.5t-70.5 -68.5t-94 -51q-45 -16 -93.5 -28.5t-100.5 -14.5t-108.5 9t-113.5 42q-82 41 -125 95t-57.5 114.5t-2 123t40 122t69.5 111.5t87 93q-100 45 -140 113t-36 144.5t43 152.5t96.5 135.5t124 96t125.5 32.5q55 -4 113.5 -26.5 t103.5 -53t66.5 -61.5t1.5 -49q-12 -10 -36.5 0t-64.5 25.5t-92.5 27.5t-119.5 10q-98 -6 -141.5 -70.5t-49.5 -164.5q-4 -61 13.5 -105.5t41 -70t45 -36t25.5 -5.5q68 55 144.5 91t144 44t116 -13.5t58.5 -80.5q-2 -31 -30.5 -57.5t-70.5 -47t-92.5 -37t-94.5 -28 t-73.5 -18.5t-31.5 -9q-47 -35 -95.5 -80t-70.5 -115q-20 -63 -1 -112t67.5 -81t118 -42t149.5 6q27 4 60.5 16.5t67 23.5t62.5 15t47 -8zM631 825q-45 29 -87 4.5t-95 -73.5q25 2 59.5 10t65 19.5t49 22.5t8.5 17zM489 1583q16 33 41 34t46.5 -16.5t31.5 -46t-2 -53.5 q-16 -37 -38.5 -37t-41 18.5t-30 47.5t-7.5 53q2 8 1 -1t-3 -18.5t-2 -8.5t4 28zM154 1595q31 29 60.5 29t45.5 -41q8 -10 22.5 -23.5t29 -26.5t24.5 -28.5t8 -29.5q-10 -47 -51 -54.5t-80 14t-61.5 64.5t2.5 96q4 6 -1.5 -5t-10.5 -20t-4.5 -7.5t16.5 32.5z" />
<glyph unicode="&#xcc;" horiz-adv-x="645" d="M297 1368q-23 14 -52.5 39t-53 53.5t-35 55t3.5 45.5q10 12 40.5 10t69.5 -13.5t81 -32t76 -47t54.5 -57t14.5 -61.5q-10 -25 -34 -32t-53.5 -3t-60.5 17.5t-51 25.5zM465 637q0 -61 -6 -136t-19.5 -148.5t-31 -143.5t-38 -121t-42 -79.5t-41.5 -22.5q-27 6 -44.5 48 t-29.5 102.5t-19.5 134t-10.5 145t-3 133t2 98.5q0 47 1 110.5t3 129t6.5 128t10.5 112t16 80t23 28.5q78 -10 121 -72.5t64.5 -151.5t27.5 -189.5t10 -184.5z" />
<glyph unicode="&#xcd;" horiz-adv-x="618" d="M453 637q0 -61 -6.5 -136t-19.5 -148.5t-30.5 -143.5t-38 -121t-42 -79.5t-42.5 -22.5q-27 6 -44 48t-29.5 102.5t-19.5 134t-10 145t-3 133t2 98.5q0 47 1 110.5t3 129t6 128t10.5 112t15.5 80t23 28.5q78 -10 121 -72.5t64.5 -151.5t28 -189.5t10.5 -184.5zM348 1409 q-18 -14 -46 -29.5t-57.5 -24.5t-53 -9t-31.5 16q-10 16 16.5 57t67.5 79t89 60.5t83 2.5q16 -16 13 -37t-15.5 -42.5t-31 -41t-34.5 -31.5z" />
<glyph unicode="&#xce;" horiz-adv-x="618" d="M453 637q0 -61 -6.5 -136t-19.5 -148.5t-30.5 -143.5t-38 -121t-42 -79.5t-42.5 -22.5q-27 6 -44 48t-29.5 102.5t-19.5 134t-10 145t-3 133t2 98.5q0 47 1 110.5t3 129t6 128t10.5 112t15.5 80t23 28.5q78 -10 121 -72.5t64.5 -151.5t28 -189.5t10.5 -184.5zM274 1491 q-37 -41 -62.5 -74t-66.5 -37q-23 8 -26.5 30t3.5 45.5t21.5 47t30.5 39.5q20 25 34.5 41t30 22.5t35 2.5t50.5 -19q20 -10 52 -38.5t56.5 -61.5t35.5 -61.5t-7 -38.5t-43 1t-49.5 30.5t-49.5 41t-45 29.5z" />
<glyph unicode="&#xcf;" horiz-adv-x="620" d="M379 1583q16 33 40.5 34t46 -16.5t32 -46t-1.5 -53.5q-16 -37 -39 -37t-41.5 18.5t-29.5 47.5t-7 53q2 8 1 -1t-3 -18.5t-2 -8.5t4 28zM43 1595q31 29 60.5 29t46.5 -41q8 -10 22 -23.5t28.5 -26.5t25 -28.5t7.5 -29.5q-10 -47 -51 -54.5t-80 14t-61.5 64.5t2.5 96 q4 6 -1 -5t-10 -20t-5 -7.5t16 32.5zM453 637q0 -61 -6.5 -136t-19.5 -148.5t-30.5 -143.5t-38 -121t-42 -79.5t-42.5 -22.5q-27 6 -44 48t-29.5 102.5t-19.5 134t-10 145t-3 133t2 98.5q0 47 1 110.5t3 129t6 128t10.5 112t15.5 80t23 28.5q78 -10 121 -72.5t64.5 -151.5 t28 -189.5t10.5 -184.5z" />
<glyph unicode="&#xd0;" horiz-adv-x="1130" d="M924 770q-2 55 -23.5 124t-56.5 134.5t-82 117.5t-100 75q-43 18 -89.5 30.5t-85 7t-64.5 -33t-24 -90.5q0 -74 3.5 -147t5.5 -144q20 2 45.5 4t50 0t46 -9.5t34.5 -23.5q10 -25 0.5 -50.5t-34 -52t-60 -52t-78.5 -50.5q0 -82 -3 -161.5t-14 -161.5q-6 -53 -15 -108.5 t-23.5 -102.5t-36 -78t-52.5 -35q-41 -2 -66.5 24.5t-42 70.5t-24.5 97.5t-11 105.5t-3 97t-2 70q0 8 -1 14.5t-1 14.5q-37 -10 -63.5 -11.5t-37.5 13.5q-12 14 -9 38.5t18.5 52.5t39 57.5t50.5 58.5l8 344q0 25 -5 64.5t-9.5 83.5t-4.5 87t10.5 77t35 54.5t67.5 16.5 q39 -4 79 2t81 13t84 11t88 -2q49 -6 105.5 -29.5t111.5 -54t104.5 -67.5t81.5 -70q92 -100 134 -221t43 -241t-33.5 -229.5t-96.5 -185.5q-39 -47 -90 -89t-108.5 -73.5t-118.5 -51t-119 -25.5q-20 -4 -44.5 -4t-46 3t-36 12t-14.5 28q0 18 37 30.5t90 30t114.5 46 t110.5 79.5q72 78 116 199t34 266z" />
<glyph unicode="&#xd1;" d="M535 1493q-18 25 -28.5 39t-19 22.5t-15.5 11.5t-21 3q-29 0 -40.5 -13.5t-15.5 -35.5q-6 -25 -28.5 -38.5t-44.5 -4.5q-27 10 -32 33.5t-1 41.5q2 20 13 46t30.5 48.5t45 39t56.5 16.5q37 0 59.5 -6t40 -18.5t33 -31t39.5 -44.5q23 -25 42.5 -24t34.5 13.5t27.5 28.5 t20.5 20q16 -18 22.5 -46.5t-8.5 -77.5q-6 -27 -19 -45.5t-48 -28.5q-45 -14 -80.5 1t-62.5 50zM322 229q2 -31 -2.5 -86t-21.5 -99t-52 -57.5t-94 40.5q-37 29 -56.5 92t-27 150t-4 192.5t14.5 216t27.5 222.5t32.5 212q6 37 20.5 83t33 87t42 70.5t50 34t55.5 -22.5 t59 -96q55 -133 119 -276.5t119 -276.5t95 -245t46 -179q14 180 22.5 304t4.5 206q-4 86 -2 188.5t11 191.5t25.5 148.5t43.5 56.5q23 -2 31 -32.5t10 -82.5t2 -122t6 -149.5t22.5 -164.5t53.5 -169q0 -94 -2 -186.5t-9.5 -174.5t-19.5 -146.5t-31 -103.5 q-29 -61 -68.5 -76.5t-83.5 3t-90.5 62.5t-88.5 101.5t-76.5 120t-57.5 115.5q-18 45 -37.5 101.5t-38 115.5t-35 119.5t-30.5 118.5q-35 131 -66 270q-4 -20 -8 -55q-4 -29 -5 -79t1 -122q2 -88 10.5 -182.5t17.5 -178t18.5 -152.5t13.5 -108z" />
<glyph unicode="&#xd2;" d="M483 1511q-23 14 -52.5 39t-53 53.5t-34.5 55.5t3 45q10 12 41 10t70 -13t81 -31.5t75.5 -47.5t53 -57.5t15.5 -61.5q-10 -25 -33.5 -32t-53.5 -2.5t-61 17.5t-51 25zM844 143q-51 -66 -128 -103.5t-161 -46.5t-166 13.5t-143 79.5q-117 100 -167 241.5t-50 294t38.5 303 t100.5 269.5q27 53 85 100t132 72t152.5 21.5t144.5 -52.5q27 -18 44 -40.5t32.5 -47t30 -50.5t32.5 -52q115 -160 149 -316.5t20.5 -292t-58.5 -239t-88 -154.5zM299 1022q-18 -37 -38.5 -123t-33 -192.5t-11.5 -216t25.5 -192.5t78 -125t145.5 -9q68 23 116 76t79.5 120.5 t49 142.5t25.5 140q10 96 -3 193.5t-43 181.5t-73 147.5t-92 94.5q-43 18 -78.5 -7.5t-63.5 -67.5t-48.5 -89t-34.5 -74z" />
<glyph unicode="&#xd3;" d="M539 1532q-23 -16 -56.5 -34.5t-68.5 -30t-65 -11.5t-40 19q-10 20 20.5 69t82 95.5t109 73t97.5 1.5q20 -18 17.5 -43.5t-18 -51.5t-38 -49.5t-40.5 -37.5zM844 143q-51 -66 -128 -103.5t-161 -46.5t-166 13.5t-143 79.5q-117 100 -167 241.5t-50 294t38.5 303 t100.5 269.5q27 53 85 100t132 72t152.5 21.5t144.5 -52.5q27 -18 44 -40.5t32.5 -47t30 -50.5t32.5 -52q115 -160 149 -316.5t20.5 -292t-58.5 -239t-88 -154.5zM299 1022q-18 -37 -38.5 -123t-33 -192.5t-11.5 -216t25.5 -192.5t78 -125t145.5 -9q68 23 116 76t79.5 120.5 t49 142.5t25.5 140q10 96 -3 193.5t-43 181.5t-73 147.5t-92 94.5q-43 18 -78.5 -7.5t-63.5 -67.5t-48.5 -89t-34.5 -74z" />
<glyph unicode="&#xd4;" d="M502 1593q-25 -29 -42.5 -54.5t-33.5 -43.5t-35.5 -29.5t-46.5 -13.5q-27 -4 -30 22.5t6.5 63.5t24.5 74t26 55q18 43 35.5 66.5t40 31t51 -1t69.5 -28.5q29 -16 70 -57.5t73.5 -87.5t47 -87t-9.5 -57q-25 -16 -57 0t-65.5 45t-65 59.5t-58.5 42.5zM844 143 q-51 -66 -128 -103.5t-161 -46.5t-166 13.5t-143 79.5q-117 100 -167 241.5t-50 294t38.5 303t100.5 269.5q27 53 85 100t132 72t152.5 21.5t144.5 -52.5q27 -18 44 -40.5t32.5 -47t30 -50.5t32.5 -52q115 -160 149 -316.5t20.5 -292t-58.5 -239t-88 -154.5zM299 1022 q-18 -37 -38.5 -123t-33 -192.5t-11.5 -216t25.5 -192.5t78 -125t145.5 -9q68 23 116 76t79.5 120.5t49 142.5t25.5 140q10 96 -3 193.5t-43 181.5t-73 147.5t-92 94.5q-43 18 -78.5 -7.5t-63.5 -67.5t-48.5 -89t-34.5 -74z" />
<glyph unicode="&#xd5;" d="M844 143q-51 -66 -128 -103.5t-161 -46.5t-166 13.5t-143 79.5q-117 100 -167 241.5t-50 294t38.5 303t100.5 269.5q27 53 85 100t132 72t152.5 21.5t144.5 -52.5q27 -18 44 -40.5t32.5 -47t30 -50.5t32.5 -52q115 -160 149 -316.5t20.5 -292t-58.5 -239t-88 -154.5z M299 1022q-18 -37 -38.5 -123t-33 -192.5t-11.5 -216t25.5 -192.5t78 -125t145.5 -9q68 23 116 76t79.5 120.5t49 142.5t25.5 140q10 96 -3 193.5t-43 181.5t-73 147.5t-92 94.5q-43 18 -78.5 -7.5t-63.5 -67.5t-48.5 -89t-34.5 -74zM524 1487q-18 25 -28.5 39t-18.5 22 t-15 11.5t-22 3.5q-29 0 -40 -13.5t-15 -36.5q-6 -25 -28.5 -38t-45.5 -5q-27 10 -32 34t0 42q2 20 13 46t30.5 48.5t45 39t56.5 16.5q37 0 59.5 -6.5t40 -18.5t32.5 -30.5t40 -45.5q23 -25 42 -23.5t34.5 13.5t28 28.5t20.5 20.5q16 -18 22.5 -46.5t-8.5 -78.5 q-6 -27 -19.5 -45t-47.5 -28q-45 -14 -81 1t-63 50z" />
<glyph unicode="&#xd6;" d="M844 143q-51 -66 -128 -103.5t-161 -46.5t-166 13.5t-143 79.5q-117 100 -167 241.5t-50 294t38.5 303t100.5 269.5q27 53 85 100t132 72t152.5 21.5t144.5 -52.5q27 -18 44 -40.5t32.5 -47t30 -50.5t32.5 -52q115 -160 149 -316.5t20.5 -292t-58.5 -239t-88 -154.5z M299 1022q-18 -37 -38.5 -123t-33 -192.5t-11.5 -216t25.5 -192.5t78 -125t145.5 -9q68 23 116 76t79.5 120.5t49 142.5t25.5 140q10 96 -3 193.5t-43 181.5t-73 147.5t-92 94.5q-43 18 -78.5 -7.5t-63.5 -67.5t-48.5 -89t-34.5 -74zM594 1587q16 33 40.5 34t46 -16.5 t32 -46t-1.5 -53.5q-16 -37 -39 -37t-41.5 18.5t-29.5 47.5t-7 53q2 8 1 -1t-3 -18t-2 -8.5t4 27.5zM258 1599q31 29 60.5 29t46.5 -41q8 -10 22 -23.5t28.5 -26.5t25 -28.5t8.5 -29.5q-10 -47 -51.5 -54.5t-80 14t-61.5 64.5t2 96q4 6 -1 -5t-10 -20t-5 -7.5t16 32.5z" />
<glyph unicode="&#xd7;" horiz-adv-x="1224" d="M219 33q2 53 23.5 110.5t52.5 112.5t64.5 103.5t61.5 87t44 62t12 30.5q-78 78 -176 170t-184 170q-31 31 2 60.5t110 21.5q35 -4 94.5 -38t120 -77t113.5 -86t76 -68q39 39 70.5 73t62.5 66.5t63.5 66.5t71.5 73q12 12 46 32.5t75 39t80 29.5t61.5 5t22.5 -35.5 t-39 -91.5q-31 -49 -56.5 -89t-54 -83t-65.5 -94t-90 -125q-8 -12 26.5 -48t83.5 -80t98.5 -86t67.5 -64q31 -35 57.5 -90.5t29.5 -98.5t-26.5 -55t-111.5 37q-39 27 -89 63.5t-102.5 74.5t-101.5 72.5t-88 57.5q-6 0 -33.5 -29.5t-72 -71.5t-97.5 -88.5t-107.5 -81 t-105.5 -48t-90 9.5z" />
<glyph unicode="&#xd8;" horiz-adv-x="1284" d="M946 104q-131 -74 -246.5 -84t-201.5 8.5t-138.5 44t-54.5 23.5q0 -4 -17.5 -29.5t-44 -53t-58 -46t-62.5 -6.5q-16 8 -11 36t19 63.5t32.5 73.5t33.5 67q2 2 -8.5 21.5t-23.5 52t-26.5 79.5t-15.5 105q-6 80 -7 160.5t9 160.5t34.5 157t69.5 148q92 147 220.5 200.5 t285.5 33.5q18 2 49 -5t62 -17.5t53.5 -17.5t26.5 -5q12 18 51 63t84 87t87 69t62 8q23 -6 22 -29.5t-15.5 -56.5t-38 -70.5t-45 -71.5t-37 -59.5t-11.5 -31.5q27 -16 67 -79t72.5 -155t48 -204.5t-9 -227.5t-98.5 -222.5t-219 -189.5zM674 145q66 14 120 56.5t97 98.5 t74.5 119.5t50.5 125.5q8 23 16 63.5t13.5 90t5.5 103.5t-8.5 103t-25 87t-42.5 59q-6 2 -35 -32t-71 -88t-90 -121t-92 -129.5t-79 -112.5l-49 -70q-23 -37 -41 -73t-37.5 -71t-41 -69.5t-50.5 -71.5q59 -63 123 -79t162 11zM498 1149q-66 -78 -108 -173t-61.5 -197.5 t-19.5 -206t19 -195.5q121 186 234.5 382.5t242.5 383.5q-2 12 -32 37.5t-75 39t-98 2t-102 -72.5z" />
<glyph unicode="&#xd9;" d="M532 1444q-23 14 -52 38.5t-53 53.5t-35 55.5t3 44.5q10 12 41 10.5t70 -13t81 -32t75.5 -47t53 -57.5t15.5 -61q-10 -25 -33.5 -32t-53.5 -3t-61 17.5t-51 25.5zM315 1071q12 -80 21.5 -187.5t25 -217t41 -211t72.5 -168.5q45 -63 89 -58.5t81 42.5t63.5 90.5t32.5 84.5 q14 68 27.5 155t26 177t27 175t30.5 150.5t38.5 104.5t51.5 37q16 2 22.5 -25.5t7.5 -69.5t-2 -89t-5 -84q-4 -63 -2 -126t4 -124t1 -123.5t-10 -128.5q-10 -78 -27.5 -164t-55 -157.5t-102 -117.5t-169.5 -44q-129 2 -221 57t-152.5 145.5t-93.5 205t-47 235.5t-12 238.5 t11 214t23.5 162t24.5 79.5q47 27 80 -1t54.5 -77t31.5 -102t12 -78z" />
<glyph unicode="&#xda;" d="M629 1427q-23 -16 -56.5 -34.5t-68.5 -29.5t-64.5 -11t-40.5 18q-10 20 21 69.5t82 95.5t108.5 72.5t98.5 2.5q20 -18 17 -44t-18.5 -51.5t-38 -49.5t-40.5 -38zM315 1071q12 -80 21.5 -187.5t25 -217t41 -211t72.5 -168.5q45 -63 89 -58.5t81 42.5t63.5 90.5t32.5 84.5 q14 68 27.5 155t26 177t27 175t30.5 150.5t38.5 104.5t51.5 37q16 2 22.5 -25.5t7.5 -69.5t-2 -89t-5 -84q-4 -63 -2 -126t4 -124t1 -123.5t-10 -128.5q-10 -78 -27.5 -164t-55 -157.5t-102 -117.5t-169.5 -44q-129 2 -221 57t-153.5 144.5t-95.5 202t-49 230t-13 231.5 t13 204t27.5 147.5t30.5 63.5q47 27 79 7.5t51.5 -57.5t29.5 -82t12 -69z" />
<glyph unicode="&#xdb;" d="M543 1585q-25 -29 -42.5 -54.5t-33.5 -44t-35.5 -29.5t-46.5 -13q-27 -4 -30 22.5t6.5 63.5t24.5 73.5t26 55.5q18 43 35.5 66.5t40 30.5t51 -1t69.5 -29q29 -16 70 -57t73.5 -87t47 -87t-10.5 -57t-56.5 0t-65 44.5t-65 59.5t-58.5 43zM315 1071q12 -80 21.5 -187.5 t25 -217t41 -211t72.5 -168.5q45 -63 89 -58.5t81 42.5t63.5 90.5t32.5 84.5q14 68 27.5 155t26 177t27 175t30.5 150.5t38.5 104.5t51.5 37q16 2 22.5 -25.5t7.5 -69.5t-2 -89t-5 -84q-4 -63 -2 -126t4 -124t1 -123.5t-10 -128.5q-10 -78 -27.5 -164t-55 -157.5 t-102 -117.5t-169.5 -44q-129 2 -221 57t-152.5 145.5t-93.5 205t-47 235.5t-12 238.5t11 214t23.5 162t24.5 79.5q47 27 80 -1t54.5 -77t31.5 -102t12 -78z" />
<glyph unicode="&#xdc;" d="M686 1550q16 33 41 34t46.5 -16.5t31.5 -46t-2 -53.5q-16 -37 -39 -36.5t-41 18.5t-29.5 47t-7.5 53q2 8 1 -1t-3 -18t-2 -8.5t4 27.5zM350 1563q31 29 60.5 28.5t46.5 -41.5q8 -10 22.5 -23.5t28.5 -26.5t24.5 -28.5t8.5 -29.5q-10 -47 -51 -54.5t-80 14t-61.5 64.5 t1.5 97q4 6 -1 -5.5t-10 -20.5t-5 -7t16 33zM315 1071q12 -80 21.5 -187.5t25 -217t41 -211t72.5 -168.5q45 -63 89 -58.5t81 42.5t63.5 90.5t32.5 84.5q14 68 27.5 155t26 177t27 175t30.5 150.5t38.5 104.5t51.5 37q16 2 22.5 -25.5t7.5 -69.5t-2 -89t-5 -84 q-4 -63 -2 -126t4 -124t1 -123.5t-10 -128.5q-10 -78 -27.5 -164t-55 -157.5t-102 -117.5t-169.5 -44q-129 2 -221 57t-152.5 145.5t-93.5 205t-47 235.5t-12 238.5t11 214t23.5 162t24.5 79.5q47 27 80 -1t54.5 -77t31.5 -102t12 -78z" />
<glyph unicode="&#xdd;" horiz-adv-x="958" d="M571 1462q-20 -16 -53 -33.5t-65.5 -27.5t-60 -10t-38.5 18q-10 18 18.5 65.5t77 90.5t102.5 67.5t95 1.5q18 -18 16.5 -41.5t-16 -48t-36.5 -46.5t-40 -36zM160 1380q-78 -4 -97.5 -48t-5 -107.5t49 -136t65.5 -136.5q41 -82 98.5 -132t110.5 -79q61 -33 125 -47 q-31 -98 -82 -196q-43 -86 -111.5 -182.5t-167.5 -178.5q-61 -53 -59 -89t45 -46t114.5 9.5t147.5 74.5q131 96 223.5 236.5t153.5 287t93 277.5t42 207q10 82 -14.5 139t-60 86t-67.5 28t-34 -38q-4 -31 -13 -69t-22.5 -80t-30 -86t-32.5 -85q-37 -98 -84 -203 q-39 -6 -76 19q-31 23 -60.5 77t-43.5 169q-6 59 -29 118.5t-52.5 107.5t-62 76.5t-63.5 26.5z" />
<glyph unicode="&#xde;" d="M104 1210q0 49 -1 117t11.5 124t45.5 84t100 -3q31 -33 45 -86t20.5 -110.5t9.5 -114t9 -95.5q68 25 149.5 47.5t161.5 26.5t149.5 -21.5t110.5 -97.5q33 -49 42.5 -135t-17.5 -174t-96.5 -158.5t-192.5 -87.5q-41 0 -94 -3t-100 -9t-80 -14t-33 -17q6 -23 12 -73t6 -111 t-7 -125.5t-28.5 -112t-59.5 -70t-97 -1.5q-6 16 -13 88t-14.5 177t-14.5 233t-12 258.5t-8.5 251t-3.5 212.5zM805 825q-8 33 -28.5 77t-49.5 84t-64.5 67.5t-74.5 27.5q-66 0 -111 -34.5t-72.5 -87t-41 -113t-16.5 -112.5t3 -87t17 -35q57 0 137 12.5t149.5 38t114.5 66.5 t37 96z" />
<glyph unicode="&#xdf;" horiz-adv-x="1062" d="M481 -12q-68 0 -94.5 25.5t-20 56t42 58.5t91.5 34q68 8 109.5 26.5t64 44t31 58.5t10.5 69q0 20 -6.5 56.5t-21.5 74t-46 72.5t-80 55q-16 6 -41.5 23.5t-50.5 42.5t-42 54.5t-17 62.5q0 41 9 67.5t26.5 48t43 40t60.5 44.5q49 39 76.5 69t37 59.5t2 64.5t-27.5 84 q-31 61 -69 88t-75.5 23.5t-71.5 -35t-56 -84.5q-43 -98 -61.5 -205t-25 -209t-4.5 -193.5t2 -154.5q2 -68 8.5 -162t9.5 -189.5t0 -179t-20 -133.5q-6 -16 -35.5 -5t-63.5 38t-62.5 65t-30.5 76q-18 252 -21.5 498t48.5 492q12 55 27.5 119.5t39 126t57 114.5t80.5 88 t110.5 46t145.5 -13q106 -35 182 -89t111 -161q16 -45 5 -92t-36.5 -92t-60.5 -86t-64.5 -74t-49 -57.5t-13.5 -34.5q6 -43 50 -78t97.5 -76t100.5 -95t57 -136q14 -123 -18.5 -205t-99 -133t-158 -71.5t-191.5 -20.5z" />
<glyph unicode="&#xe0;" horiz-adv-x="1005" d="M606 866q-6 -27 -34.5 -44t-65.5 -35.5t-76 -41t-65 -59.5q-41 -59 -57.5 -141t-15.5 -157t18.5 -129t43.5 -54q33 0 69 30.5t64.5 70.5t47 82t18.5 65t-2 62.5t1 78.5t12 67.5t32 30.5t54.5 10.5t60 2t46 -40t13.5 -115.5q-4 -84 7 -153.5t31.5 -122t49.5 -84t62 -37.5 q45 -8 74.5 3t49 26.5t34 27.5t26.5 6q14 -6 7 -34.5t-32.5 -62.5t-70.5 -64.5t-107 -39.5q-92 -16 -156.5 14.5t-105.5 71.5q-47 49 -76 115q-20 -49 -57 -86q-31 -33 -80 -60.5t-121 -31.5q-72 -2 -135.5 45t-101 127t-40.5 185.5t46 221.5q33 76 86 129.5t113.5 87 t121 49t108.5 17.5t77.5 -7.5t25.5 -25.5zM463 1229q-23 14 -52.5 38.5t-53 53.5t-35 55.5t3.5 44.5q10 12 40.5 10.5t69.5 -13t81 -32t76 -47t53.5 -57.5t15.5 -61q-10 -25 -34 -32t-53.5 -3t-60.5 17.5t-51 25.5z" />
<glyph unicode="&#xe1;" horiz-adv-x="1007" d="M606 866q-6 -27 -34.5 -44t-65.5 -35.5t-76 -41t-65 -59.5q-41 -59 -57.5 -141t-15.5 -157t18.5 -129t43.5 -54q33 0 69 30.5t64.5 70.5t47 82t18.5 65t-2 62.5t1 78.5t12 67.5t32 30.5t54.5 10.5t60 2t46 -40t13.5 -115.5q-4 -84 7 -153.5t31.5 -122t49.5 -84t62 -37.5 q45 -8 74.5 3t49 26.5t34 27.5t26.5 6q14 -6 7 -34.5t-32.5 -62.5t-70.5 -64.5t-107 -39.5q-92 -16 -156.5 14.5t-105.5 71.5q-47 49 -76 115q-20 -49 -57 -86q-31 -33 -80 -60.5t-121 -31.5q-72 -2 -135.5 45t-101 127t-40.5 185.5t46 221.5q33 76 86 129.5t113.5 87 t121 49t108.5 17.5t77.5 -7.5t25.5 -25.5zM535 1233q-23 -16 -57 -34.5t-68.5 -30t-64.5 -11.5t-40 19q-10 20 20.5 69t82 95t108.5 73t98 2q20 -18 17.5 -43.5t-18 -51.5t-38 -49.5t-40.5 -37.5z" />
<glyph unicode="&#xe2;" horiz-adv-x="1005" d="M606 866q-6 -27 -34.5 -44t-65.5 -35.5t-76 -41t-65 -59.5q-41 -59 -57.5 -141t-15.5 -157t18.5 -129t43.5 -54q33 0 69 30.5t64.5 70.5t47 82t18.5 65t-2 62.5t1 78.5t12 67.5t32 30.5t54.5 10.5t60 2t46 -40t13.5 -115.5q-4 -84 7 -153.5t31.5 -122t49.5 -84t62 -37.5 q45 -8 74.5 3t49 26.5t34 27.5t26.5 6q14 -6 7 -34.5t-32.5 -62.5t-70.5 -64.5t-107 -39.5q-92 -16 -156.5 14.5t-105.5 71.5q-47 49 -76 115q-20 -49 -57 -86q-31 -33 -80 -60.5t-121 -31.5q-72 -2 -135.5 45t-101 127t-40.5 185.5t46 221.5q33 76 86 129.5t113.5 87 t121 49t108.5 17.5t77.5 -7.5t25.5 -25.5zM365 1321q-25 -29 -42.5 -54.5t-34 -44t-36 -29.5t-45.5 -13q-27 -4 -30 22.5t6.5 63.5t24.5 73.5t25 55.5q18 43 36 66.5t40.5 30.5t51 -1t69.5 -29q29 -16 70 -57t73.5 -87t47 -87t-10.5 -57t-56.5 0t-65 44.5t-65 59.5t-58.5 43 z" />
<glyph unicode="&#xe3;" horiz-adv-x="1001" d="M606 866q-6 -27 -34.5 -44t-65.5 -35.5t-76 -41t-65 -59.5q-41 -59 -57.5 -141t-15.5 -157t18.5 -129t43.5 -54q33 0 69 30.5t64.5 70.5t47 82t18.5 65t-2 62.5t1 78.5t12 67.5t32 30.5t54.5 10.5t60 2t46 -40t13.5 -115.5q-4 -84 7 -153.5t31.5 -122t49.5 -84t62 -37.5 q45 -8 74.5 3t49 26.5t34 27.5t26.5 6q14 -6 7 -34.5t-32.5 -62.5t-70.5 -64.5t-107 -39.5q-92 -16 -156.5 14.5t-105.5 71.5q-47 49 -76 115q-20 -49 -57 -86q-31 -33 -80 -60.5t-121 -31.5q-72 -2 -135.5 45t-101 127t-40.5 185.5t46 221.5q33 76 86 129.5t113.5 87 t121 49t108.5 17.5t77.5 -7.5t25.5 -25.5z" />
<glyph unicode="&#xe4;" horiz-adv-x="1001" d="M606 866q-6 -27 -34.5 -44t-65.5 -35.5t-76 -41t-65 -59.5q-41 -59 -57.5 -141t-15.5 -157t18.5 -129t43.5 -54q33 0 69 30.5t64.5 70.5t47 82t18.5 65t-2 62.5t1 78.5t12 67.5t32 30.5t54.5 10.5t60 2t46 -40t13.5 -115.5q-4 -84 7 -153.5t31.5 -122t49.5 -84t62 -37.5 q45 -8 74.5 3t49 26.5t34 27.5t26.5 6q14 -6 7 -34.5t-32.5 -62.5t-70.5 -64.5t-107 -39.5q-92 -16 -156.5 14.5t-105.5 71.5q-47 49 -76 115q-20 -49 -57 -86q-31 -33 -80 -60.5t-121 -31.5q-72 -2 -135.5 45t-101 127t-40.5 185.5t46 221.5q33 76 86 129.5t113.5 87 t121 49t108.5 17.5t77.5 -7.5t25.5 -25.5zM621 1339q18 39 46.5 41t53 -18.5t37 -54t-1.5 -62.5q-20 -41 -45 -42t-46.5 20.5t-35 55.5t-8.5 60q2 10 1 0t-4 -20l-2 -10q1 -1 5 30zM233 1358q35 31 68 31t55 -50q8 -12 24.5 -26.5t33 -29.5t28 -31.5t9.5 -34.5 q-8 -37 -32 -52.5t-54.5 -13.5t-62.5 18.5t-53.5 45t-28.5 65.5t13 78q4 4 -2 -9.5t-12 -23.5t-5 -7t19 40z" />
<glyph unicode="&#xe5;" horiz-adv-x="1007" d="M606 866q-6 -27 -34.5 -44t-65.5 -35.5t-76 -41t-65 -59.5q-41 -59 -57.5 -141t-15.5 -157t18.5 -129t43.5 -54q33 0 69 30.5t64.5 70.5t47 82t18.5 65t-2 62.5t1 78.5t12 67.5t32 30.5t54.5 10.5t60 2t46 -40t13.5 -115.5q-4 -84 7 -153.5t31.5 -122t49.5 -84t62 -37.5 q45 -8 74.5 3t49 26.5t34 27.5t26.5 6q14 -6 7 -34.5t-32.5 -62.5t-70.5 -64.5t-107 -39.5q-92 -16 -156.5 14.5t-105.5 71.5q-47 49 -76 115q-20 -49 -57 -86q-31 -33 -80 -60.5t-121 -31.5q-72 -2 -135.5 45t-101 127t-40.5 185.5t46 221.5q33 76 86 129.5t113.5 87 t121 49t108.5 17.5t77.5 -7.5t25.5 -25.5zM659 1219q-33 -45 -78.5 -68t-93 -25t-88.5 14.5t-63 51.5q-53 51 -63.5 125t40.5 151q23 49 72 70t90 18q90 -4 140.5 -42.5t68.5 -93t10 -109.5t-35 -92zM537 1243q39 25 44 57.5t-10.5 58t-43 35t-52.5 -13.5q-37 -25 -43 -55.5 t8.5 -54t41 -33.5t55.5 6z" />
<glyph unicode="&#xe6;" horiz-adv-x="1323" d="M1116 872q20 -35 21.5 -65.5t-12 -58t-39 -53t-56.5 -50.5q-35 -27 -77 -46t-78.5 -33.5t-61.5 -25t-25 -18.5q-8 -18 -13 -54t-4 -79t8 -89t26.5 -83t52.5 -60.5t82 -21.5q78 6 133 52t103 116q16 25 35.5 58.5t41 62.5t43 47t43.5 14q16 -4 17.5 -46t-16 -102.5 t-55.5 -128t-95 -122.5q-35 -39 -95.5 -69.5t-128 -43t-134 -2t-113.5 55.5q-53 35 -99.5 48t-109.5 -22q-66 -47 -135.5 -57t-131 4t-106.5 47t-61 72q-8 23 -13.5 62.5t3 87.5t33 99.5t73.5 99.5t129 88t199 65q-4 39 -10.5 94t-20.5 107t-38.5 91t-63.5 43 q-39 -4 -61.5 -29.5t-41 -56t-37 -59.5t-49.5 -37q-39 -6 -74.5 4t-60.5 31.5t-32 50.5t12 60q61 102 158.5 147t199.5 16q47 -14 94 -43.5t85 -63.5t60.5 -63.5t22.5 -42.5q10 78 70.5 116t137.5 38t152.5 -39t112.5 -113zM975 793q0 8 -16.5 25.5t-42 31.5t-55.5 18 t-56 -12q-29 -35 -39 -82t-2 -92q4 -8 38 3t71.5 30.5t69.5 42.5t32 35zM383 461q-31 -31 -54.5 -75t-28.5 -90t12.5 -89t64.5 -70q41 -16 68.5 1.5t43 54t21.5 86t7 98.5t-2 90t-5 61q-10 0 -48 -16t-79 -51z" />
<glyph unicode="&#xe7;" horiz-adv-x="921" d="M606 31q-4 0 -6 -17.5t-7 -47t-16.5 -70.5t-31.5 -89q-63 -152 -121.5 -166t-75.5 103q-10 49 1 95t29.5 84t35 64.5t16.5 37.5q-68 23 -127 53q-53 27 -105.5 62.5t-80.5 78.5q-45 68 -64.5 169t-11.5 206.5t45 202t102 155.5q63 51 131 71.5t137.5 16.5t139.5 -26.5 t137 -55.5q20 -8 40 -28.5t28 -42t0 -40t-41 -22.5q-37 -2 -67.5 13.5t-59.5 34t-58.5 30.5t-66.5 4q-63 -12 -107.5 -58t-70 -110.5t-31.5 -140.5t5 -144.5t41 -125t77 -82.5q72 -39 126 -42t95 12t70.5 44t52.5 53q18 18 30.5 36t26 32t29.5 21.5t43 3.5q31 0 33 -24 t-8 -52q-12 -35 -37 -76q-61 -96 -126 -148t-151 -75z" />
<glyph unicode="&#xe8;" horiz-adv-x="798" d="M115 793q31 55 79 95t104 64.5t118.5 34.5t122.5 8q61 -4 104 -42t60.5 -96t4 -128t-64.5 -139q-57 -78 -117.5 -114t-111.5 -52q-59 -18 -119 -14q-4 -76 12 -134q6 -25 17.5 -47t30 -38.5t44 -24.5t60.5 -4q74 10 121 47t78.5 78t52 72.5t41.5 31.5q14 0 18 -38t-7 -92 t-40 -114.5t-81 -105.5t-130 -64.5t-186 9.5q-98 25 -157.5 93t-90.5 142q-37 84 -49 187q-8 57 0 120q4 53 23.5 123t62.5 142zM299 563q33 0 68 8q29 8 63.5 29t65.5 62q29 41 41 73.5t16 55.5q6 25 2 45q-41 -4 -78 -17q-33 -10 -65.5 -31.5t-53.5 -60.5 q-25 -45 -37 -75.5t-16 -51.5q-6 -23 -6 -37zM393 1206q-23 14 -52.5 39t-53 53.5t-34.5 55t3 45.5q10 12 41 10t70 -13.5t80.5 -32t75.5 -47t54.5 -56t14.5 -62.5q-10 -25 -33.5 -32t-53.5 -3t-61 17.5t-51 25.5z" />
<glyph unicode="&#xe9;" horiz-adv-x="800" d="M115 793q31 55 79 95t104 64.5t118.5 34.5t122.5 8q61 -4 104 -42t60.5 -96t4 -128t-64.5 -139q-57 -78 -117.5 -114t-111.5 -52q-59 -18 -119 -14q-4 -76 12 -134q6 -25 17.5 -47t30 -38.5t44 -24.5t60.5 -4q74 10 121 47t78.5 78t52 72.5t41.5 31.5q14 0 18 -38t-7 -92 t-40 -114.5t-81 -105.5t-130 -64.5t-186 9.5q-98 25 -157.5 93t-90.5 142q-37 84 -49 187q-8 57 0 120q4 53 23.5 123t62.5 142zM299 563q33 0 68 8q29 8 63.5 29t65.5 62q29 41 41 73.5t16 55.5q6 25 2 45q-41 -4 -78 -17q-33 -10 -65.5 -31.5t-53.5 -60.5 q-25 -45 -37 -75.5t-16 -51.5q-6 -23 -6 -37zM496 1272q-23 -16 -56.5 -34.5t-68.5 -30t-65 -11.5t-40 18q-10 20 20.5 69.5t82 95.5t109 73t97.5 2q20 -18 17.5 -44t-18 -51.5t-38 -49t-40.5 -37.5z" />
<glyph unicode="&#xea;" horiz-adv-x="798" d="M115 793q31 55 79 95t104 64.5t118.5 34.5t122.5 8q61 -4 104 -42t60.5 -96t4 -128t-64.5 -139q-57 -78 -117.5 -114t-111.5 -52q-59 -18 -119 -14q-4 -76 12 -134q6 -25 17.5 -47t30 -38.5t44 -24.5t60.5 -4q74 10 121 47t78.5 78t52 72.5t41.5 31.5q14 0 18 -38t-7 -92 t-40 -114.5t-81 -105.5t-130 -64.5t-186 9.5q-98 25 -157.5 93t-90.5 142q-37 84 -49 187q-8 57 0 120q4 53 23.5 123t62.5 142zM299 563q33 0 68 8q29 8 63.5 29t65.5 62q29 41 41 73.5t16 55.5q6 25 2 45q-41 -4 -78 -17q-33 -10 -65.5 -31.5t-53.5 -60.5 q-25 -45 -37 -75.5t-16 -51.5q-6 -23 -6 -37zM387 1307q-25 -29 -42 -54.5t-33.5 -44t-36 -30t-46.5 -13.5q-27 -4 -29.5 22.5t6.5 63.5t24.5 74t25.5 55q18 43 35.5 66.5t40 31t51.5 -1t70 -28.5q29 -16 69.5 -57t73.5 -87.5t47 -87t-10 -57.5q-25 -16 -56.5 0.5t-65.5 45 t-65.5 59.5t-58.5 43z" />
<glyph unicode="&#xeb;" horiz-adv-x="800" d="M115 793q31 55 79 95t104 64.5t118.5 34.5t122.5 8q61 -4 104 -42t60.5 -96t4 -128t-64.5 -139q-57 -78 -117.5 -114t-111.5 -52q-59 -18 -119 -14q-4 -76 12 -134q6 -25 17.5 -47t30 -38.5t44 -24.5t60.5 -4q74 10 121 47t78.5 78t52 72.5t41.5 31.5q14 0 18 -38t-7 -92 t-40 -114.5t-81 -105.5t-130 -64.5t-186 9.5q-98 25 -157.5 93t-90.5 142q-37 84 -49 187q-8 57 0 120q4 53 23.5 123t62.5 142zM299 563q33 0 68 8q29 8 63.5 29t65.5 62q29 41 41 73.5t16 55.5q6 25 2 45q-41 -4 -78 -17q-33 -10 -65.5 -31.5t-53.5 -60.5 q-25 -45 -37 -75.5t-16 -51.5q-6 -23 -6 -37zM543 1407q18 39 46.5 41t53.5 -18.5t37 -54.5t-2 -62q-20 -41 -45 -42t-46.5 20.5t-34.5 55t-9 60.5q2 10 1 0t-3 -21l-2 -10zM156 1425q35 31 67.5 31t55.5 -49q8 -12 24 -26.5t32.5 -30t28 -31.5t9.5 -35q-8 -37 -32 -52 t-54.5 -13t-62 18t-53 45t-29 65.5t13.5 77.5q4 4 -2.5 -9t-12.5 -23.5t-4.5 -7.5t19.5 40z" />
<glyph unicode="&#xec;" horiz-adv-x="618" d="M12 381q16 23 30.5 42t28 45t24.5 60.5t20 85.5q8 51 10 95.5t6 76t14.5 52t36.5 26.5q25 4 69 16.5t84 12.5t65.5 -23.5t13.5 -91.5q-6 -27 -11.5 -78t-9.5 -113.5t-3 -129t9.5 -124t25.5 -98t48 -53.5q61 -25 101 0t83 78q18 23 39 38t34 12t11 -28.5t-30 -86.5 q-57 -123 -147.5 -163t-213.5 -16q-68 14 -108.5 65.5t-63 108t-33 103.5t-18.5 51q-10 6 -17.5 3t-15.5 -10t-20.5 -15.5t-30.5 -12.5q-43 -8 -50.5 13.5t19.5 58.5zM307 1210q-23 14 -52.5 39t-53 53.5t-34.5 55t3 45.5q10 12 41 10t69.5 -13t80.5 -31.5t76 -47.5 t54.5 -57.5t14.5 -61.5q-10 -25 -33.5 -32t-53.5 -3t-61 17.5t-51 25.5z" />
<glyph unicode="&#xed;" horiz-adv-x="618" d="M12 381q16 23 30.5 42t28 45t24.5 60.5t20 85.5q8 51 10 95.5t6 76t14.5 52t36.5 26.5q25 4 69 16.5t84 12.5t65.5 -23.5t13.5 -91.5q-6 -27 -11.5 -78t-9.5 -113.5t-3 -129t9.5 -124t25.5 -98t48 -53.5q61 -25 101 0t83 78q18 23 39 38t34 12t11 -28.5t-30 -86.5 q-57 -123 -147.5 -163t-213.5 -16q-68 14 -108.5 65.5t-63 108t-33 103.5t-18.5 51q-10 6 -17.5 3t-15.5 -10t-20.5 -15.5t-30.5 -12.5q-43 -8 -50.5 13.5t19.5 58.5zM397 1241q-23 -16 -56.5 -34.5t-68 -30t-64.5 -11.5t-40 19q-10 20 20.5 69.5t82 95.5t108.5 72.5t98 1.5 q20 -18 17.5 -43.5t-18 -51t-38.5 -49.5t-41 -38z" />
<glyph unicode="&#xee;" horiz-adv-x="618" d="M14 381q16 23 30.5 42t28 45t25 60.5t19.5 85.5t10 95.5t6 76t14.5 52t36.5 26.5q25 4 69 16.5t84 12.5t65.5 -23.5t13.5 -91.5q-6 -27 -11.5 -78t-9.5 -113.5t-3 -129t9.5 -124t25.5 -98t48 -53.5q61 -25 101 0t83 78q18 23 39 38t34 12t11 -28.5t-30 -86.5 q-57 -123 -147.5 -163t-213.5 -16q-68 14 -108.5 65.5t-63 108t-33 103.5t-18.5 51q-10 6 -17.5 3t-15.5 -10t-20.5 -15.5t-30.5 -12.5q-43 -8 -50.5 13.5t19.5 58.5zM322 1329q-29 -25 -51.5 -45t-42 -34.5t-41 -22.5t-48.5 -4q-29 2 -25.5 27.5t20 59t40 67.5t35.5 50 q53 76 94 80t113 -53q25 -20 56.5 -68.5t54 -100.5t27.5 -96t-22 -54q-29 -10 -56 12t-54 57t-52 71t-48 54z" />
<glyph unicode="&#xef;" horiz-adv-x="608" d="M12 381q16 23 30.5 42t28 45t24.5 60.5t20 85.5q8 51 10 95.5t6 76t14.5 52t36.5 26.5q25 4 69 16.5t84 12.5t65.5 -23.5t13.5 -91.5q-6 -27 -11.5 -78t-9.5 -113.5t-3 -129t9.5 -124t25.5 -98t48 -53.5q61 -25 101 0t83 78q18 23 39 38t34 12t11 -28.5t-30 -86.5 q-57 -123 -147.5 -163t-213.5 -16q-68 14 -108.5 65.5t-63 108t-33 103.5t-18.5 51q-10 6 -17.5 3t-15.5 -10t-20.5 -15.5t-30.5 -12.5q-43 -8 -50.5 13.5t19.5 58.5zM436 1378q18 39 47 41t53.5 -18.5t37 -54t-2.5 -62.5q-20 -41 -44.5 -42t-46 20.5t-35 55.5t-9.5 60 q2 10 1 0t-3 -20l-2 -10q0 -1 4 30zM49 1397q35 31 68 30.5t55 -49.5q8 -12 24.5 -26.5t33 -29.5t27.5 -31.5t9 -35.5q-8 -37 -31.5 -52t-54 -13t-62.5 18.5t-53.5 45t-28.5 65.5t13 78q4 4 -2 -9.5t-12 -23.5t-5 -7t19 40z" />
<glyph unicode="&#xf0;" horiz-adv-x="823" d="M369 1069q0 2 -8.5 -7t-23.5 -21.5t-35.5 -24.5t-47.5 -19q-12 -4 -32.5 -7t-41 0t-35 13.5t-10.5 32.5q2 20 18.5 39t36 34t36 25.5t18.5 12.5l-18.5 18.5t-30 34t-27.5 41t-8 41.5q6 18 35.5 17t65.5 -10t66.5 -22.5t37.5 -19.5q2 0 13 4t26.5 10.5t30 12.5t24.5 10 q43 25 79.5 30t62.5 -1t40 -18.5t12 -20.5q-29 -39 -71.5 -69.5t-75.5 -55.5q41 -35 84 -73t76 -83q14 -23 25 -44t20 -44q2 -4 15 -5t32.5 -5t42 -15.5t43.5 -35.5q-10 -25 -24.5 -36t-27 -17.5t-21.5 -9.5t-7 -9q14 -41 22.5 -107.5t7.5 -140t-13.5 -142.5t-37.5 -114 q-41 -76 -80.5 -130t-89 -91t-113 -59.5t-147.5 -32.5q-68 -8 -112.5 10.5t-72.5 54t-42 84t-17 100.5t2 102t15 91q18 92 59 160t98.5 121t127 96t143.5 86q-25 63 -64.5 116.5t-80.5 92.5zM436 195q43 43 81 107.5t61.5 133t25.5 135t-24 115.5q-53 -35 -108.5 -62.5 t-107 -60.5t-94.5 -77t-71 -111q-16 -45 -19.5 -97.5t8.5 -91.5q12 -35 45 -45t72 -5t75 22.5t56 36.5q10 12 3 5t-16 -16.5t-10.5 -10.5t23.5 22z" />
<glyph unicode="&#xf1;" d="M80 748q-8 -14 -14.5 -67.5t-9.5 -126.5t-4 -154t1 -151.5t7.5 -120.5t13.5 -58q14 -12 50 -20.5t74 -8.5t70.5 8t42.5 31q8 20 10.5 63t9.5 98.5t27.5 119t63.5 126.5q37 55 68.5 85t56 28t40 -41t19.5 -119q10 -223 78 -361t221 -159q78 -10 138.5 17.5t100.5 66.5 t57.5 76t8.5 45q-10 6 -33.5 -5t-55 -26.5t-67.5 -25t-73 1.5q-45 10 -68.5 49t-37 94t-18.5 120.5t-10 130t-15.5 123t-30.5 97.5q-31 57 -71 86t-83 32t-85 -13.5t-77 -47.5q-37 -33 -71.5 -79t-61.5 -89q-31 -51 -57 -104q2 104 -2 186q-2 35 -4 69t-7.5 60.5t-10.5 43 t-13 16.5q-16 0 -42 -7.5t-51.5 -20.5t-49 -30.5t-35.5 -37.5zM549 1180q-23 29 -36 47t-22.5 28.5t-18.5 13.5t-26 3q-33 0 -47 -16.5t-18 -43.5q-8 -29 -36 -45t-54 -6q-33 12 -39 41t-2 51q2 25 16.5 55.5t38 58.5t55 47.5t68.5 19.5q45 0 72.5 -7.5t48 -21.5t40 -36.5 t48.5 -55.5q27 -31 50.5 -29t42 16.5t33.5 34t25 25.5q18 -23 25.5 -57.5t-8.5 -94.5q-8 -33 -24.5 -55.5t-57.5 -34.5q-53 -16 -97 1.5t-77 60.5z" />
<glyph unicode="&#xf2;" horiz-adv-x="821" d="M561 879q94 -57 145.5 -140.5t66.5 -174.5t-5 -181t-68.5 -163t-122 -120t-167.5 -49q-119 -2 -200 52.5t-124 138.5t-50 183t21.5 186t94 148.5t163.5 67.5q90 6 131 19.5t59.5 25t25.5 15.5t30 -8zM322 700q-12 -12 -20.5 -59t-11.5 -110.5t1 -133t15 -127t31.5 -94.5 t49.5 -33t55.5 38t48 84t35 110.5t16.5 118t-7.5 104.5t-34.5 72q-57 59 -97 64t-81 -34zM367 1210q-23 14 -52.5 39t-53 53.5t-35 55t2.5 45.5q10 12 41 10t70 -13t81 -31.5t75.5 -47.5t53 -57.5t15.5 -61.5q-10 -25 -33.5 -32t-53 -3t-60.5 17.5t-51 25.5z" />
<glyph unicode="&#xf3;" horiz-adv-x="821" d="M561 879q94 -57 145.5 -140.5t66.5 -174.5t-5 -181t-68.5 -163t-122 -120t-167.5 -49q-119 -2 -200 52.5t-124 138.5t-50 183t21.5 186t94 148.5t163.5 67.5q90 6 131 19.5t59.5 25t25.5 15.5t30 -8zM322 700q-12 -12 -20.5 -59t-11.5 -110.5t1 -133t15 -127t31.5 -94.5 t49.5 -33t55.5 38t48 84t35 110.5t16.5 118t-7.5 104.5t-34.5 72q-57 59 -97 64t-81 -34zM514 1262q-23 -16 -56.5 -35t-68.5 -30t-64.5 -11t-39.5 18q-10 20 20.5 69.5t81.5 95.5t108.5 72.5t98.5 2.5q20 -18 17 -44t-18 -51.5t-38 -49t-41 -37.5z" />
<glyph unicode="&#xf4;" horiz-adv-x="821" d="M561 879q94 -57 145.5 -140.5t66.5 -174.5t-5 -181t-68.5 -163t-122 -120t-167.5 -49q-119 -2 -200 52.5t-124 138.5t-50 183t21.5 186t94 148.5t163.5 67.5q90 6 131 19.5t59.5 25t25.5 15.5t30 -8zM322 700q-12 -12 -20.5 -59t-11.5 -110.5t1 -133t15 -127t31.5 -94.5 t49.5 -33t55.5 38t48 84t35 110.5t16.5 118t-7.5 104.5t-34.5 72q-57 59 -97 64t-81 -34zM381 1280q-27 -29 -46.5 -52.5t-37.5 -40t-37.5 -26.5t-46.5 -10q-27 -2 -28 23.5t11.5 61.5t30 73t27.5 55q20 41 39.5 63.5t42 27.5t51.5 -5t68 -33q29 -18 66.5 -61t67 -92.5 t41 -91.5t-15.5 -56q-25 -14 -55.5 4.5t-62 49t-61 63.5t-54.5 47z" />
<glyph unicode="&#xf5;" horiz-adv-x="821" d="M561 879q94 -57 145.5 -140.5t66.5 -174.5t-5 -181t-68.5 -163t-122 -120t-167.5 -49q-119 -2 -200 52.5t-124 138.5t-50 183t21.5 186t94 148.5t163.5 67.5q90 6 131 19.5t59.5 25t25.5 15.5t30 -8zM322 700q-12 -12 -20.5 -59t-11.5 -110.5t1 -133t15 -127t31.5 -94.5 t49.5 -33t55.5 38t48 84t35 110.5t16.5 118t-7.5 104.5t-34.5 72q-57 59 -97 64t-81 -34zM430 1225q-18 25 -28.5 39t-18.5 22t-15.5 11t-21.5 3q-29 0 -40 -13t-15 -36q-6 -25 -28.5 -38t-45.5 -5q-27 10 -32 34t-1 42q2 20 13.5 46t31 48.5t45 39t56.5 16.5 q37 0 59.5 -6.5t39.5 -18.5t32.5 -30.5t40.5 -45.5q23 -25 42 -23.5t34.5 13.5t27.5 28.5t21 20.5q16 -18 22 -47t-8 -78q-6 -27 -19.5 -45t-48.5 -28q-45 -14 -80.5 1t-62.5 50z" />
<glyph unicode="&#xf6;" horiz-adv-x="821" d="M561 879q94 -57 145.5 -140.5t66.5 -174.5t-5 -181t-68.5 -163t-122 -120t-167.5 -49q-119 -2 -200 52.5t-124 138.5t-50 183t21.5 186t94 148.5t163.5 67.5q90 6 131 19.5t59.5 25t25.5 15.5t30 -8zM322 700q-12 -12 -20.5 -59t-11.5 -110.5t1 -133t15 -127t31.5 -94.5 t49.5 -33t55.5 38t48 84t35 110.5t16.5 118t-7.5 104.5t-34.5 72q-57 59 -97 64t-81 -34zM539 1393q18 39 46.5 41t53.5 -18.5t37 -54.5t-2 -63q-20 -41 -45 -42t-46.5 20.5t-34.5 55.5t-9 61q2 10 1 -0.5t-3 -20.5l-2 -10zM152 1411q35 31 67.5 31t54.5 -49 q8 -12 24.5 -26.5t33 -30t28 -32t9.5 -34.5q-8 -37 -32 -52.5t-54.5 -13.5t-62.5 18.5t-53.5 45t-28.5 65.5t14 78q4 4 -2.5 -9t-12.5 -23.5t-4.5 -7.5t19.5 40z" />
<glyph unicode="&#xf7;" horiz-adv-x="802" d="M784 563q-6 -14 -23.5 -23.5t-38 -14.5t-40.5 -7t-33 -2q-31 -10 -55.5 -24.5t-47 -28.5t-49 -24.5t-63.5 -12.5q-41 -4 -104.5 -11t-126 -3t-111.5 26.5t-57 77.5q-8 47 45 76t138 42t185.5 12t186.5 -11t142 -28.5t52 -43.5zM287 930q2 29 14 38t27.5 11t30 3t24.5 13 q47 -2 62.5 -28.5t11.5 -58t-25.5 -58.5t-48.5 -29q-29 -2 -48.5 10.5t-30.5 31t-15 37t-2 30.5zM332 240q16 33 55 34.5t72 -16.5t46 -52t-24 -71q-39 -37 -73.5 -37t-57 20.5t-28.5 54.5t10 67z" />
<glyph unicode="&#xf8;" horiz-adv-x="1097" d="M1059 1237q20 -6 11 -46t-33.5 -92t-55.5 -105.5t-51 -86.5q41 -35 84 -106.5t65.5 -162.5t13 -193.5t-70.5 -198.5q-61 -111 -148.5 -165t-173.5 -72.5t-158.5 -13.5t-107.5 13q-6 6 -22.5 -15.5t-39 -47t-49 -44t-53.5 -3.5q-23 20 -17.5 42.5t13.5 47t9 48t-25 44.5 q-55 41 -93 94t-55 109q-35 82 -39 169t17.5 170t64.5 156.5t105 128.5q55 45 118.5 67.5t126 29t121 2t101.5 -11.5t66.5 -13t19.5 0q96 152 161.5 211t94.5 45zM360 705q-55 -96 -48 -200t104 -186q70 123 139.5 247t153.5 249q-14 0 -59.5 1t-100.5 -8t-108.5 -31.5 t-80.5 -71.5zM819 741q-68 -84 -117 -184t-104 -182q-35 -61 -34 -95t25.5 -46.5t66.5 -7.5t89 20q55 29 103.5 92t62.5 145q0 61 -12 109.5t-27.5 81.5t-31 50t-21.5 17z" />
<glyph unicode="&#xf9;" d="M291 795q-2 -20 -4 -69.5t-2 -111t4 -127t14 -120t30.5 -89t53.5 -32.5q25 0 51.5 31.5t50 78.5t44 102.5t36 104.5t23.5 83t8 38q2 25 39 44.5t81 23.5t84 -11.5t46 -58.5q4 -31 2 -87t-5 -122.5t-1 -137.5t17.5 -127t47 -92t88.5 -34q49 2 74 20.5t40 39t28.5 32.5 t40.5 0q6 -4 6 -24.5t-11.5 -48t-35 -57.5t-61.5 -52.5t-92 -32.5t-128 2q-53 8 -90 27.5t-63.5 45t-42 56.5t-23.5 62q-20 72 -10 157q-27 -82 -70 -141q-37 -53 -95 -91t-142 -26t-138.5 54t-88.5 101.5t-50 130.5t-22 142q-6 57 -6.5 114.5t4 107t12.5 84t18 44.5 q12 10 51 22.5t81 13.5t75 -13t31 -57zM410 1102q-23 14 -52.5 38.5t-53 53.5t-35 55.5t2.5 44.5q10 12 41 10.5t70 -13t81 -32t75.5 -47t53 -57.5t15.5 -61q-10 -25 -33.5 -32t-53 -3t-60.5 17.5t-51 25.5z" />
<glyph unicode="&#xfa;" d="M291 795q-2 -20 -4 -69.5t-2 -111t4 -127t14 -120t30.5 -89t53.5 -32.5q25 0 51.5 31.5t50 78.5t44 102.5t36 104.5t23.5 83t8 38q2 25 39 44.5t81 23.5t84 -11.5t46 -58.5q4 -31 2 -87t-5 -122.5t-1 -137.5t17.5 -127t47 -92t88.5 -34q49 2 74 20.5t40 39t28.5 32.5 t40.5 0q6 -4 6 -24.5t-11.5 -48t-35 -57.5t-61.5 -52.5t-92 -32.5t-128 2q-53 8 -90 27.5t-63.5 45t-42 56.5t-23.5 62q-20 72 -10 157q-27 -82 -70 -141q-37 -53 -95 -91t-142 -26t-138.5 54t-88.5 101.5t-50 130.5t-22 142q-6 57 -6.5 114.5t4 107t12.5 84t18 44.5 q12 10 51 22.5t81 13.5t75 -13t31 -57zM567 1237q-23 -16 -56.5 -34.5t-68 -30t-64.5 -11.5t-40 19q-10 20 20.5 69t82 95.5t108.5 73t98 1.5q20 -18 17.5 -43.5t-18 -51.5t-38.5 -49.5t-41 -37.5z" />
<glyph unicode="&#xfb;" d="M291 795q-2 -20 -4 -69.5t-2 -111t4 -127t14 -120t30.5 -89t53.5 -32.5q25 0 51.5 31.5t50 78.5t44 102.5t36 104.5t23.5 83t8 38q2 25 39 44.5t81 23.5t84 -11.5t46 -58.5q4 -31 2 -87t-5 -122.5t-1 -137.5t17.5 -127t47 -92t88.5 -34q49 2 74 20.5t40 39t28.5 32.5 t40.5 0q6 -4 6 -24.5t-11.5 -48t-35 -57.5t-61.5 -52.5t-92 -32.5t-128 2q-53 8 -90 27.5t-63.5 45t-42 56.5t-23.5 62q-20 72 -10 157q-27 -82 -70 -141q-37 -53 -95 -91t-142 -26t-138.5 54t-88.5 101.5t-50 130.5t-22 142q-6 57 -6.5 114.5t4 107t12.5 84t18 44.5 q12 10 51 22.5t81 13.5t75 -13t31 -57zM475 1323q-29 -25 -49 -47.5t-39.5 -37.5t-40 -23.5t-47.5 -6.5q-29 0 -27 27t16.5 61.5t36 69.5t33.5 51q25 39 46.5 59.5t44 23.5t50 -9t64.5 -39q27 -18 60.5 -65.5t59.5 -98.5t33 -94t-20 -55t-55.5 9t-58 55t-56 69t-51.5 51z " />
<glyph unicode="&#xfc;" horiz-adv-x="1019" d="M287 795q-2 -20 -4 -69.5t-2 -111t4 -127t14 -120t30.5 -89t53.5 -32.5q25 0 51.5 31.5t50 78.5t44 102.5t36 104.5t23.5 83t8 38q2 25 39 44.5t81 23.5t84 -11.5t46 -58.5q4 -31 2 -87t-5 -122.5t-1 -137.5t17 -127t47 -92t89 -34q49 2 74 20.5t40 39t28.5 32.5t40.5 0 q6 -4 6 -24.5t-11.5 -48t-35 -57.5t-61.5 -52.5t-92 -32.5t-128 2q-53 8 -90 27.5t-63.5 45t-42 56.5t-23.5 62q-20 72 -10 157q-27 -82 -70 -141q-37 -53 -95.5 -91t-142.5 -26t-138 54t-88 101.5t-50 130.5t-23 142q-6 57 -6 114.5t4.5 107t12.5 84t18 44.5q12 10 51 22.5 t81 13.5t75 -13t31 -57zM666 1331q23 49 56.5 50t63 -23.5t45 -64.5t-1.5 -74q-25 -49 -55.5 -50.5t-56 24.5t-40.5 66.5t-11 71.5q2 12 1 0t-3 -25l-2 -12zM242 1354q41 37 80.5 37t66.5 -60q10 -14 30.5 -31.5t40 -36t33 -39t11.5 -40.5q-8 -45 -38 -63.5t-67 -16.5 t-74.5 22.5t-64.5 54t-35 78t17 95.5q4 6 -3.5 -10.5t-14.5 -30t-6 -9t24 49.5z" />
<glyph unicode="&#xfd;" horiz-adv-x="942" d="M145 848q-23 2 -46 -36t-35.5 -96.5t-11.5 -128t26.5 -129t81 -99.5t147.5 -40q61 0 111.5 34t85.5 75q41 49 74 111q57 -188 77 -361q8 -74 9.5 -149.5t-11 -146t-41 -130t-77.5 -100.5q-98 -82 -178.5 -96.5t-124.5 15.5t-46 91.5t56 132.5q57 72 115.5 118t104.5 75.5 t75.5 48t29.5 35.5q2 14 -53 16t-136 -19.5t-169 -71.5t-152 -136q-66 -86 -75 -183.5t22 -183.5t91.5 -150.5t137.5 -86.5q82 -23 168 -9.5t166 61.5t148.5 130t112.5 195.5t59.5 259t-10.5 319.5q-18 123 -39 214t-41.5 157.5t-41 110.5t-38.5 73q-43 66 -86 63 q-27 4 -53 -4q-23 -6 -49.5 -22.5t-49.5 -50.5q-31 -47 -56.5 -96.5t-49 -89.5t-47 -64.5t-47.5 -20.5q-29 2 -38.5 29t-10.5 65.5t1 84t-4 85t-23.5 68.5t-58.5 33zM479 1139q-23 -16 -56.5 -35t-68.5 -30t-64.5 -11t-39.5 18q-10 20 20.5 69.5t81.5 95.5t108.5 73t98.5 2 q20 -18 17 -44t-18 -51.5t-38 -49t-41 -37.5z" />
<glyph unicode="&#xfe;" horiz-adv-x="940" d="M92 797q0 49 -1 116.5t11.5 124t45 84t100.5 -3.5q31 -33 45 -86t20 -110.5t9.5 -113.5t9.5 -95q68 25 149.5 47t161.5 26.5t149.5 -21.5t110.5 -97q33 -49 42 -135.5t-17.5 -174.5t-96 -158.5t-192.5 -86.5q-41 0 -94 -3.5t-100.5 -9.5t-80 -14t-32.5 -16q6 -23 12 -73 t6 -111.5t-7 -126t-28.5 -111.5t-59.5 -69.5t-97 -2.5q-6 16 -13.5 88t-14.5 177.5t-14 233.5t-12.5 258t-8.5 251t-3 213zM793 412q-8 33 -29 76.5t-49.5 83.5t-64.5 68t-75 28q-66 0 -110.5 -35t-72 -87t-41 -112.5t-16.5 -113t3 -87t16 -34.5q57 0 137 12t150 37.5 t115 67t37 96.5z" />
<glyph unicode="&#xff;" horiz-adv-x="942" d="M145 848q-23 2 -46 -36t-35.5 -96.5t-11.5 -128t26.5 -129t81 -99.5t147.5 -40q61 0 111.5 34t85.5 75q41 49 74 111q57 -188 77 -361q8 -74 9.5 -149.5t-11 -146t-41 -130t-77.5 -100.5q-98 -82 -178.5 -96.5t-124.5 15.5t-46 91.5t56 132.5q57 72 115.5 118t104.5 75.5 t75.5 48t29.5 35.5q2 14 -53 16t-136 -19.5t-169 -71.5t-152 -136q-66 -86 -75 -183.5t22 -183.5t91.5 -150.5t137.5 -86.5q82 -23 168 -9.5t166 61.5t148.5 130t112.5 195.5t59.5 259t-10.5 319.5q-18 123 -39 214t-41.5 157.5t-41 110.5t-38.5 73q-43 66 -86 63 q-27 4 -53 -4q-23 -6 -49.5 -22.5t-49.5 -50.5q-31 -47 -56.5 -96.5t-49 -89.5t-47 -64.5t-47.5 -20.5q-29 2 -38.5 29t-10.5 65.5t1 84t-4 85t-23.5 68.5t-58.5 33zM565 1368q18 39 47 41t53.5 -18.5t37 -54t-2.5 -62.5q-20 -41 -44.5 -42t-46 20.5t-35 55t-9.5 60.5 q2 10 1 0t-3 -20l-2 -11zM178 1386q35 31 68 31t55 -49q8 -12 24.5 -26.5t33 -30t27.5 -31.5t9 -35q-8 -37 -31.5 -52t-54 -13t-62.5 18t-53.5 45t-28.5 66t13 77q4 4 -2 -9t-12 -23.5t-5 -7.5t19 40z" />
<glyph unicode="&#x152;" horiz-adv-x="1714" d="M903 154q-6 0 -22.5 -18.5t-52 -43t-91 -46t-137.5 -28.5q-121 -12 -229.5 39.5t-188.5 145.5t-124 219t-38 258q12 236 77 387.5t157 235t200.5 110.5t211.5 14q33 0 59.5 -8t52 -19t52 -22.5t59.5 -19.5q63 66 147 91.5t174 12.5q66 0 135.5 -23.5t118.5 -60.5 q33 -33 40 -65.5t-4 -54t-35.5 -22.5t-55.5 32q-63 59 -118.5 74.5t-101.5 -1t-81 -57.5t-56.5 -94t-28.5 -111.5t1 -109.5q8 -68 39 -100.5t73 -45t90 -12.5t88 -3t68.5 -18.5t32.5 -58.5q6 -33 -29.5 -50t-85 -31.5t-99.5 -34t-75 -54.5q-27 -39 -38 -87t-5 -118 q18 -119 113.5 -168t226.5 -24q55 10 106.5 37.5t92.5 51t70.5 34t44.5 -10.5q16 -12 -2.5 -56t-69.5 -93t-135 -92t-201 -51q-109 -8 -186.5 15.5t-127.5 55t-78 62.5t-34 37zM651 1292q-66 20 -118 2t-94 -64t-72.5 -110.5t-50 -134.5t-30 -136.5t-10.5 -117.5 q4 -39 10.5 -96t18.5 -120.5t32.5 -128t51.5 -116t74 -84t102 -32.5q90 0 144.5 35.5t93.5 101.5q12 18 17 35.5t6 38t3 47t9 65.5q12 57 35.5 97t46 68t39 45.5t14.5 27.5q-4 14 -28.5 33.5t-56.5 46t-61.5 61.5t-40.5 78q-18 76 -9 130t9 91q0 47 -29.5 86t-105.5 51z" />
<glyph unicode="&#x153;" horiz-adv-x="1548" d="M1585 393q-16 -43 -40.5 -95t-47.5 -93q-6 -8 -17.5 -31.5t-32 -53.5t-52 -60.5t-77.5 -53t-108.5 -34t-144.5 -1.5q-68 8 -121 36t-90 58.5t-58.5 53t-23.5 18.5q-29 -57 -92.5 -93t-142 -44t-161.5 17.5t-151.5 91t-111.5 176t-41 274.5q0 55 20.5 124t62.5 134.5 t103 118.5t143 76q37 12 84 14t92.5 -3t84 -16.5t61.5 -25.5q43 -33 59.5 -88t16.5 -107.5t-12.5 -89.5t-26.5 -34q0 39 -18.5 79.5t-48 75.5t-68.5 58.5t-82 27.5q-27 2 -62 -13.5t-69.5 -47t-64.5 -79.5t-44 -112q-8 -31 -12 -82t-1 -109.5t13 -118.5t33.5 -108.5 t60.5 -80t90 -31.5q68 -2 111 21.5t67.5 56t34 66.5t11.5 54v31t1 55.5t5 87t14 130.5q4 25 16.5 67.5t34 89.5t53 92.5t74.5 76t98.5 39.5t125.5 -17q82 -33 111.5 -96.5t23.5 -137t-39 -147.5t-76 -129l-31.5 -42t-43 -51.5t-46 -49t-41.5 -35.5q-14 -8 -5 -33t33.5 -52.5 t60.5 -49t77 -21.5q31 0 63.5 9t64.5 24.5t60.5 35t51.5 42.5q20 20 46.5 48.5t52.5 53.5t49.5 41t39.5 12q-6 -16 -8 -18t-1 2t4 10t5 6zM1008 758q-63 -119 -64 -256q43 47 79 106.5t46 122.5q8 66 -12 72t-49 -45z" />
<glyph unicode="&#x178;" horiz-adv-x="921" d="M154 1323q-82 -4 -102.5 -42t-6.5 -94.5t51 -125t70 -133.5q45 -86 105.5 -140.5t115.5 -82.5q66 -35 131 -50q-27 -82 -74 -166q-41 -72 -107.5 -161.5t-170.5 -175.5q-66 -55 -64 -93.5t47.5 -49.5t121 9.5t155.5 79.5q137 100 230.5 226.5t152.5 253.5t90 243.5 t41 196.5q12 86 -19.5 151.5t-74.5 101.5t-81 39t-40 -34q-4 -84 -30.5 -175t-55.5 -169q-37 -92 -78 -180q-37 -23 -69 -11q-29 10 -55.5 59.5t-43.5 170.5q-6 61 -32.5 125.5t-62.5 115t-74.5 82t-69.5 29.5zM647 1681q23 49 58.5 51.5t66.5 -24.5t47.5 -69t-0.5 -78 q-25 -53 -57.5 -53.5t-59 27.5t-44 70t-11.5 76q2 12 1 -1t-3 -26.5t-3 -12.5t5 40zM156 1704q45 39 86 39t69 -62q12 -16 33 -34.5t41.5 -39t33.5 -41t11 -42.5q-10 -47 -41 -66.5t-68.5 -16.5t-77.5 24.5t-68 57.5t-36 82t17 99q4 6 -4.5 -11.5t-14.5 -30.5t-5 -9t24 51z " />
<glyph unicode="&#x2c6;" horiz-adv-x="800" d="M373 1284q-33 -41 -56.5 -74.5t-47 -59.5t-49 -41t-62.5 -19t-41 31.5t8 85.5t33.5 101.5t34.5 77.5q25 57 49 90t55 43.5t71 -1t95 -39.5q41 -20 97 -76.5t101.5 -120t63.5 -121t-14 -80.5q-35 -23 -78 1t-89 63t-90 81t-81 58z" />
<glyph unicode="&#x2dc;" d="M391 1489q45 -23 75 -55.5t54.5 -60t52 -43t68.5 -1.5q47 16 68.5 50t31 69t14.5 61.5t21 26.5q20 -2 42 -24.5t35 -58.5t15 -79t-16 -83t-59 -74.5t-115 -53.5q-57 -14 -99 -9t-77 25.5t-63.5 54.5t-59.5 77q-31 41 -62.5 36.5t-64.5 -22.5t-65.5 -35.5t-63.5 -3.5 q-10 20 5 65.5t50 85.5t89 60.5t124 -8.5z" />
<glyph unicode="&#x2000;" horiz-adv-x="884" />
<glyph unicode="&#x2001;" horiz-adv-x="1768" />
<glyph unicode="&#x2002;" horiz-adv-x="884" />
<glyph unicode="&#x2003;" horiz-adv-x="1768" />
<glyph unicode="&#x2004;" horiz-adv-x="589" />
<glyph unicode="&#x2005;" horiz-adv-x="442" />
<glyph unicode="&#x2006;" horiz-adv-x="294" />
<glyph unicode="&#x2007;" horiz-adv-x="294" />
<glyph unicode="&#x2008;" horiz-adv-x="221" />
<glyph unicode="&#x2009;" horiz-adv-x="353" />
<glyph unicode="&#x200a;" horiz-adv-x="98" />
<glyph unicode="&#x2010;" horiz-adv-x="980" d="M668 717q41 -10 90 -28.5t84 -35.5q27 -16 36 -38.5t2.5 -45t-24.5 -38t-45 -15.5q-115 -10 -206 -19.5t-204 -21.5q-63 -4 -107 10.5t-104 38.5q-27 18 -35 42t-3.5 46.5t15.5 40t23 23.5q14 10 79 20.5t144 16.5t151.5 8t103.5 -4z" />
<glyph unicode="&#x2011;" horiz-adv-x="980" d="M668 717q41 -10 90 -28.5t84 -35.5q27 -16 36 -38.5t2.5 -45t-24.5 -38t-45 -15.5q-115 -10 -206 -19.5t-204 -21.5q-63 -4 -107 10.5t-104 38.5q-27 18 -35 42t-3.5 46.5t15.5 40t23 23.5q14 10 79 20.5t144 16.5t151.5 8t103.5 -4z" />
<glyph unicode="&#x2012;" horiz-adv-x="980" d="M668 717q41 -10 90 -28.5t84 -35.5q27 -16 36 -38.5t2.5 -45t-24.5 -38t-45 -15.5q-115 -10 -206 -19.5t-204 -21.5q-63 -4 -107 10.5t-104 38.5q-27 18 -35 42t-3.5 46.5t15.5 40t23 23.5q14 10 79 20.5t144 16.5t151.5 8t103.5 -4z" />
<glyph unicode="&#x2013;" d="M713 739q41 -10 90 -28.5t84 -34.5q27 -16 36 -39t3 -45.5t-24.5 -37.5t-45.5 -15q-117 -10 -237.5 -19.5t-235.5 -21.5q-63 -4 -107.5 10t-103.5 39q-27 18 -35 41.5t-4 46t15.5 40t23.5 23.5q10 6 48 13.5t91.5 13.5t114.5 10t118.5 6t103 2t65.5 -4z" />
<glyph unicode="&#x2014;" d="M819 717q41 -10 90 -28.5t84 -35.5q27 -16 36 -33.5t3 -34t-24.5 -26.5t-44.5 -10q-86 -16 -187.5 -15t-204 6t-199 9t-171.5 -8q-63 -4 -107.5 10t-103.5 39q-27 18 -35 36.5t-4 35t15 28.5t24 19q10 6 59 15t122 16.5t162 12.5t177 4t170 -10.5t139 -29.5z" />
<glyph unicode="&#x2018;" horiz-adv-x="587" d="M412 1526q6 -113 -15.5 -196t-55.5 -134t-73 -71.5t-71 -8.5q-27 8 -42.5 34t-20.5 61.5t2 77.5t24 83q18 47 57 82t81 55.5t75 24.5t39 -8z" />
<glyph unicode="&#x2019;" horiz-adv-x="559" d="M106 1161q-6 113 4.5 188.5t35 122t61.5 63.5t86 11q49 -12 61.5 -49t3 -81t-31 -84t-39.5 -58q-16 -27 -45 -52.5t-57.5 -44t-51.5 -23.5t-27 7z" />
<glyph unicode="&#x201a;" horiz-adv-x="608" d="M252 268q33 0 53.5 -7t36.5 -18.5t35.5 -25.5t52.5 -27q0 -51 -17.5 -95t-47 -81t-66.5 -66.5t-76 -47.5q-70 -35 -102.5 -23t-38.5 50t8 92.5t41 106.5t59.5 93t61.5 49z" />
<glyph unicode="&#x201c;" horiz-adv-x="823" d="M88 1208q-45 57 -31.5 124t56.5 121t102 84t109 15q25 -6 24.5 -48t-16 -97t-44 -111.5t-63.5 -92.5t-70.5 -40t-66.5 45zM535 1139q-31 -2 -53.5 9t-44 27.5t-44 35t-53.5 28.5q-4 45 10.5 87t39 78t58 64.5t68.5 47.5q61 35 93 22.5t43.5 -50.5t4 -94.5t-26 -109.5 t-44 -95t-51.5 -50q-6 0 -5.5 0h4h5.5t-4 0z" />
<glyph unicode="&#x201d;" horiz-adv-x="823" d="M608 1464q43 -53 30 -116.5t-54 -114.5t-97.5 -81t-101.5 -15q-23 6 -24 46t14.5 92t43 106.5t59.5 88t66.5 37.5t63.5 -43zM184 1532q29 2 50.5 -9.5t42 -27.5t42 -32.5t50.5 -26.5q2 -45 -10.5 -85t-36 -74t-55 -59.5t-64.5 -43.5q-59 -33 -90 -22t-41.5 47t-4 89 t24 104.5t42.5 90.5t50 49z" />
<glyph unicode="&#x201e;" horiz-adv-x="774" d="M705 209q45 -63 27.5 -135t-68 -128.5t-117 -86t-117.5 -11.5q-27 8 -24.5 54.5t23 105t55 117.5t73.5 97t78 40t70 -53zM223 311q33 0 57.5 -14t47 -33.5t46 -40t56.5 -33.5q0 -51 -17.5 -95t-47 -81t-66.5 -66.5t-76 -47.5q-70 -35 -104.5 -19.5t-43.5 57.5t1 103 t33.5 117.5t54 100.5t59.5 52z" />
<glyph unicode="&#x2022;" d="M594 852q35 0 68.5 -20.5t55 -53.5t28 -70.5t-12.5 -70.5q-27 -45 -82 -83t-113.5 -45t-108.5 28.5t-64 136.5q-8 55 17.5 86t64 47t80.5 24.5t67 20.5z" />
<glyph unicode="&#x2026;" horiz-adv-x="1077" d="M893 43q-47 29 -62.5 60.5t35.5 70.5q25 16 55.5 10t57.5 -22.5t42 -38t9 -37.5t-21.5 -30.5t-34 -21.5t-40 -6t-41.5 15zM678 49q-14 -29 -50 -46t-69 1q-37 18 -49 45t-7 54.5t21.5 52t38 39t43 15.5t35.5 -17q2 -18 13.5 -36t20.5 -34.5t12 -35t-9 -38.5zM332 -2 q-51 -33 -92 -16.5t-63.5 54.5t-24.5 84t24 73q14 16 43 16t58.5 -13.5t56 -37t39 -50t4.5 -56t-45 -54.5z" />
<glyph unicode="&#x202f;" horiz-adv-x="353" />
<glyph unicode="&#x2039;" horiz-adv-x="755" d="M430 217q-82 33 -159.5 90.5t-126 126t-51.5 141t65 134.5q35 31 80 74.5t96 79.5t104.5 53.5t106.5 -3.5q51 -23 56 -54.5t-18.5 -69t-67.5 -78.5t-90 -77t-85 -66.5t-55 -47.5q23 -14 62.5 -35.5t84.5 -48t90 -57.5t78 -64l22.5 -31.5t19.5 -32.5t8 -29.5t-9 -22.5 q-31 -23 -91.5 -14t-119.5 32z" />
<glyph unicode="&#x203a;" horiz-adv-x="755" d="M143 295q25 43 69 97t88 103.5t79 85t41 44.5q-14 8 -51 26.5t-82 43t-87 53t-65.5 59.5t-17.5 60.5t57 56.5q45 25 98.5 8t104.5 -50.5t95 -73.5t71 -67q66 -66 75 -125t-19 -113t-80 -100.5t-108.5 -85t-108.5 -68.5t-77 -52q-25 -18 -46 -14.5t-34.5 20t-15.5 41 t14 51.5z" />
<glyph unicode="&#x205f;" horiz-adv-x="442" />
<glyph unicode="&#x20ac;" horiz-adv-x="1245" />
<glyph unicode="&#x2122;" horiz-adv-x="1382" d="M1087 1276q-20 -18 -29 -51t-14.5 -70t-11.5 -72.5t-20.5 -59.5t-41 -30t-71.5 17q-43 25 -72.5 62.5t-55.5 78.5t-52.5 81t-63.5 68q-8 -43 -14 -94t-4 -103t11 -101.5t32 -88.5q27 -33 15.5 -45t-39 -6t-59.5 27.5t-44 58.5q-14 41 -19.5 104.5t0 130t21.5 125t47 89.5 q33 8 50.5 16t28.5 6t24.5 -16t42.5 -47q35 -47 74.5 -89t76.5 -87q8 37 23.5 76.5t39 73.5t55.5 56.5t75 22.5q53 -12 101 -64.5t87 -116t63.5 -122.5t28.5 -84q6 -53 -6 -97t-32.5 -76t-42 -46.5t-36.5 -5.5q-39 18 -64.5 85.5t-44 147.5t-33 150.5t-26.5 95.5zM510 1300 q-49 -14 -91 -24t-42 -6q0 2 -1 -51.5t0 -124t4 -141t9 -101.5q4 -16 -8 -38.5t-32.5 -24t-44 32.5t-42.5 132q-14 74 -20 147t-11 144q-20 6 -42.5 8t-47 4.5t-47 8.5t-43.5 22q-55 37 -33.5 63.5t83 40t144.5 14.5t152.5 -10.5t106.5 -35t6 -60.5q-10 -2 -11 -2t2 2.5t7 2 t2 -2.5z" />
<glyph unicode="&#x25fc;" horiz-adv-x="1146" d="M0 1147h1147v-1147h-1147v1147z" />
<glyph unicode="&#xfb01;" horiz-adv-x="1353" d="M1255 1114q-37 -29 -82 -19.5t-76.5 39t-37.5 68.5t39 70q33 25 79 15.5t78.5 -37t38.5 -65.5t-39 -71zM950 451q-84 -41 -157.5 -68t-129 -43t-88 -26.5t-32.5 -20.5q0 -18 -1 -64.5t-2 -104.5t-5.5 -125t-9.5 -128t-12 -109.5t-17 -72.5q-10 -27 -24.5 -25t-29 17.5 t-25.5 37t-18 31.5q-6 18 -14 62.5t-15.5 99.5t-14.5 114.5t-13 111.5t-9 89t-3 45q-12 0 -49 -4t-81 -7t-85 0t-62 20q-49 33 -54 58.5t16.5 46t63.5 35.5t89 24.5t91 14.5t71 5q2 0 3 41t1 108.5t2 153.5t6 174t11 172t20 148q8 29 16 65.5t21.5 73.5t34 66.5t51.5 41.5 q27 12 91 7t138 -24t140.5 -50t97.5 -70q10 -16 17 -32.5t7 -32t-8 -27.5t-29 -18q-35 -10 -65.5 5t-62 32.5t-63.5 25.5t-65 -14q-20 -23 -40.5 -85.5t-39 -146.5t-34 -179t-25.5 -181t-14 -154.5t2 -99.5q37 6 102.5 18.5t132 34t118.5 51t60 68.5q20 72 43 117t19 41 q14 6 39.5 -1.5t51.5 -21.5t48.5 -30.5t32.5 -28.5q20 -18 20 -42t-8 -49.5t-19.5 -50t-13.5 -45.5q-4 -16 -5 -54t1 -84t7.5 -96t14.5 -94t21.5 -75t30.5 -37q25 -10 23 -21.5t-18.5 -20.5t-39 -16.5t-35.5 -9.5q-20 -6 -60 11.5t-78 66.5t-63.5 135.5t-17.5 219.5z" />
<glyph unicode="&#xfb02;" horiz-adv-x="1476" d="M446 319q0 -18 -1 -64t-2 -104.5t-5 -125t-9 -128t-12 -109.5t-18 -73q-10 -27 -25.5 -30.5t-32.5 7.5t-33.5 33.5t-26.5 51.5q-6 18 -13.5 72.5t-14.5 126t-13.5 149.5t-11.5 145.5t-8 115.5t-3 56q-12 0 -35.5 -1t-51.5 0t-56.5 7.5t-48.5 22.5q-35 35 -24 64.5t46 52 t82 35t88 12.5q2 0 -1 66.5t-4 165t3 212t23 209.5q8 29 16 66t21.5 73.5t34 66.5t50.5 42q27 12 75 7t101.5 -24.5t104.5 -50t82 -69.5q23 -31 24 -62.5t-36 -48.5q-18 -8 -35 4.5t-36 25.5t-44 18t-57 -17q-25 -27 -40.5 -102.5t-25.5 -173t-16 -203t-13 -191.5 q72 8 127.5 22.5t96.5 28.5q47 16 82 35q-2 39 0 92q2 47 8 116t20 161t35 173t59.5 142.5t99 97t154.5 35.5q61 -6 105 -41q37 -29 61.5 -90t10.5 -168q-20 -141 -71.5 -243.5t-107.5 -167.5q-66 -78 -141 -127q-14 -55 -10 -123q4 -59 22.5 -140t69.5 -184 q31 -61 67.5 -88.5t75.5 -32t79 10t76 38t66.5 53.5t51.5 54q31 35 47 42t24.5 -2t8.5 -27.5t-7 -34.5q-35 -92 -92 -162q-25 -31 -57.5 -59.5t-72.5 -50t-89 -34t-106 -8.5q-74 2 -130.5 29t-98.5 68.5t-71.5 94t-48.5 105.5q-45 127 -53 283q-51 -14 -102 -27 q-43 -10 -94.5 -20.5t-92.5 -12.5v-168zM944 907q33 39 66 84q29 39 59.5 87t56.5 98q18 35 31.5 73.5t17 72.5t-10 57.5t-46.5 27.5q-27 4 -48 -15.5t-38.5 -54t-30 -80t-22.5 -92.5q-23 -113 -35 -258z" />
</font>
</defs>
</svg>
